<?xml version="1.0" encoding="utf-8"?>
<!-- Generator: Adobe Illustrator 21.1.0, SVG Export Plug-In . SVG Version: 6.00 Build 0)  -->
<svg version="1.1" id="Capa_1" xmlns="http://www.w3.org/2000/svg" xmlns:xlink="http://www.w3.org/1999/xlink" x="0px" y="0px"
	 viewBox="0 0 512 512" style="enable-background:new 0 0 512 512;" xml:space="preserve">
<style type="text/css">
	.st0{fill:none;stroke:#000000;stroke-width:10;stroke-miterlimit:10;}
</style>
<g>
	<path class="st0" d="M483.5,327.2l21.4-168.8l-153.6-58.3l-48.6,23.2c-1.5,7.4-3.8,14.7-6.8,21.6l36.8-17.6L317.5,291l0.9,8.8
		l-112.2,16.9l-9.2,18.2l123-18.5l14.2,145.1l16.5-1.6l-14.3-145.9l1.4-0.2l128.6,16.3l0.3-2.5l19.4,163.2l-133.9-30.9L178,492.8
		l-1.5-0.3l15.7-148.9l-0.1-0.9l-0.6-5.6L170,294.8l3,26.8l-3.8,0.6L44.9,303l0.7-6.1l-19-150.1l86.9,36.7l-7.3-14.3
		c-2.3-3-4.5-6.2-6.5-9.5L6.5,120.3L29,296.9l-0.4,3.5l-0.3,0l-2.5,16.4l0.9,0.1L7.4,477.7l170.5,32l173.9-33.1L505.5,512
		L483.5,327.2z M337.6,296.8l-2.9,0.4l-0.6-6.2l16-172l1.9-0.9l134.7,51.1l-18.3,144.1L337.6,296.8z M160.2,489.5L25.7,464.3
		L43,319.5L169.1,339l5.7-0.9l0.6,5.6L160.2,489.5z M193.6,341.5l-2.2-4.2l-0.2-1.6l5.7-0.9L193.6,341.5z M119.2,155l73.3,144.6
		l72.5-143c14.2-16.6,22.9-38.1,22.9-61.6c0-52.3-42.6-94.9-94.9-94.9C140.5,0,98,42.6,98,94.9c0,22.8,8.1,43.7,21.5,60.1H119.2z
		 M192.9,36.6c32.2,0,58.3,26.2,58.3,58.3c0,32.2-26.2,58.3-58.3,58.3s-58.3-26.2-58.3-58.3C134.5,62.8,160.7,36.6,192.9,36.6z"/>
</g>
</svg>
