<?xml version="1.0" encoding="utf-8"?>
<!-- Generator: Adobe Illustrator 21.1.0, SVG Export Plug-In . SVG Version: 6.00 Build 0)  -->
<svg version="1.1" id="Capa_1" xmlns="http://www.w3.org/2000/svg" xmlns:xlink="http://www.w3.org/1999/xlink" x="0px" y="0px"
	 viewBox="0 0 320 468.1" style="enable-background:new 0 0 320 468.1;" xml:space="preserve">
<style type="text/css">
	.st0{fill:none;stroke:#000000;stroke-width:5;stroke-miterlimit:10;}
</style>
<path class="st0" d="M10.5,143.6c5.8,0,10.5-4.7,10.5-10.5V90.3c0-5.2,4.2-9.4,9.4-9.4h34.8c5.8,0,10.5-4.7,10.5-10.5
	S71,59.9,65.2,59.9H30.4C13.6,59.9,0,73.5,0,90.3v42.8C0,138.9,4.7,143.6,10.5,143.6z"/>
<path class="st0" d="M65.1,387.2H30.4c-5.2,0-9.4-4.2-9.4-9.4V335c0-5.8-4.7-10.5-10.5-10.5S0,329.2,0,335v42.8
	c0,16.7,13.6,30.4,30.4,30.4h34.8c5.8,0,10.5-4.7,10.5-10.5C75.6,391.9,70.9,387.2,65.1,387.2z"/>
<path class="st0" d="M261.7,59.9h-34.8c-5.8,0-10.5,4.7-10.5,10.5s4.7,10.5,10.5,10.5h34.8c5.2,0,9.4,4.2,9.4,9.4v42.8
	c0,5.8,4.7,10.5,10.5,10.5s10.5-4.7,10.5-10.5V90.3C292.1,73.5,278.4,59.9,261.7,59.9z"/>
<path class="st0" d="M281.6,324.5c-5.8,0-10.5,4.7-10.5,10.5v42.8c0,5.2-4.2,9.4-9.4,9.4h-34.8c-5.8,0-10.5,4.7-10.5,10.5
	s4.7,10.5,10.5,10.5h34.8c16.7,0,30.4-13.6,30.4-30.4V335C292.1,329.2,287.4,324.5,281.6,324.5z"/>
<g>
	<path d="M196.7,182.1c0-5.9-2.3-11.4-6.5-15.6l-16.3-16.3c-2.6-2.6-4-6-4-9.7v-2.9c2.7-1.5,4.5-4.3,4.5-7.6v-13.4
		c0-4.8-3.9-8.6-8.6-8.6H130c-4.8,0-8.6,3.9-8.6,8.6V130c0,3.3,1.8,6.1,4.5,7.6v2.9c0,3.7-1.4,7.1-4,9.7l-16.3,16.3
		c-4.2,4.2-6.5,9.7-6.5,15.6V264c0,3.4,1.3,6.6,3.5,8.9c-2.2,2.3-3.5,5.5-3.5,8.9s1.3,6.6,3.5,8.9c-2.2,2.3-3.5,5.5-3.5,8.9
		s1.3,6.6,3.5,8.9c-2.2,2.3-3.5,5.5-3.5,8.9s1.3,6.6,3.5,8.9c-2.2,2.3-3.5,5.5-3.5,8.9v8.9c0,12.2,9.9,22,22,22h53.6
		c12.2,0,22-9.9,22-22v-8.9c0-3.4-1.3-6.6-3.5-8.9c2.2-2.3,3.5-5.5,3.5-8.9s-1.3-6.6-3.5-8.9c2.2-2.3,3.5-5.5,3.5-8.9
		s-1.3-6.6-3.5-8.9c2.2-2.3,3.5-5.5,3.5-8.9s-1.3-6.6-3.5-8.9c2.2-2.3,3.5-5.5,3.5-8.9V182.1z M129.7,116.6c0-0.2,0.1-0.3,0.3-0.3
		h35.7c0.2,0,0.3,0.1,0.3,0.3V130c0,0.2-0.1,0.3-0.3,0.3H130c-0.2,0-0.3-0.1-0.3-0.3V116.6z M107.4,182.1c0-3.7,1.4-7.1,4-9.7
		l16.3-16.3c4.2-4.2,6.5-9.7,6.5-15.6v-1.8h27.3v1.8c0,5.9,2.3,11.4,6.5,15.6l16.3,16.3c2.6,2.6,4,6,4,9.7V264
		c0,2.6-2.1,4.7-4.7,4.7h-71.4c-2.6,0-4.7-2.1-4.7-4.7V182.1z M188.3,281.8c0,2.6-2.1,4.7-4.7,4.7h-71.4c-2.6,0-4.7-2.1-4.7-4.7
		c0-2.6,2.1-4.7,4.7-4.7h71.4C186.2,277.1,188.3,279.2,188.3,281.8z M188.3,299.7c0,2.6-2.1,4.7-4.7,4.7h-71.4
		c-2.6,0-4.7-2.1-4.7-4.7c0-2.6,2.1-4.7,4.7-4.7h71.4C186.2,294.9,188.3,297.1,188.3,299.7z M188.3,317.5c0,2.6-2.1,4.7-4.7,4.7
		h-71.4c-2.6,0-4.7-2.1-4.7-4.7c0-2.6,2.1-4.7,4.7-4.7h71.4C186.2,312.8,188.3,314.9,188.3,317.5z M188.3,344.3
		c0,7.5-6.1,13.7-13.7,13.7h-53.6c-7.5,0-13.7-6.1-13.7-13.7v-8.9c0-2.6,2.1-4.7,4.7-4.7h71.4c2.6,0,4.7,2.1,4.7,4.7V344.3z"/>
	<path d="M147.9,250.3c12.2,0,22-9.9,22-22c0-10.6-15.5-33.6-18.6-38.1c-0.8-1.1-2.1-1.8-3.4-1.8s-2.7,0.7-3.4,1.8
		c-3.1,4.5-18.6,27.5-18.6,38.1C125.8,240.4,135.7,250.3,147.9,250.3z M142.5,208.8c1.9-3.3,3.8-6.3,5.3-8.7
		c6.5,10.1,13.7,23.1,13.7,28.1c0,7.5-6.1,13.7-13.7,13.7c-7.5,0-13.7-6.1-13.7-13.7C134.2,226.7,135,221.8,142.5,208.8z"/>
</g>
<path class="st0" d="M254.5,217.1H38.9c-5.3,0-9.6,5.3-9.6,11.9c0,6.5,4.3,11.9,9.6,11.9h215.6c5.3,0,9.6-5.3,9.6-11.9
	C264,222.4,259.7,217.1,254.5,217.1z"/>
</svg>
