<?xml version="1.0" encoding="utf-8"?>
<!-- Generator: Adobe Illustrator 22.0.0, SVG Export Plug-In . SVG Version: 6.00 Build 0)  -->
<svg version="1.1" id="Capa_1" xmlns="http://www.w3.org/2000/svg" xmlns:xlink="http://www.w3.org/1999/xlink" x="0px" y="0px"
	 viewBox="0 0 320 359.1" style="enable-background:new 0 0 320 359.1;" xml:space="preserve">
<style type="text/css">
	.st0{fill:#C6C6C6;}
	.st1{fill:#EBEBEB;}
	.st2{fill:#FFFFFF;}
	.st3{fill:#FF9D00;}
	.st4{fill:#A43D3A;}
	.st5{fill:#E9E9E9;}
	.st6{fill:#B8B8B8;}
	.st7{fill:#E5E4E4;}
	.st8{fill:#55C655;}
	.st9{fill:#CBA07E;}
	.st10{fill:#E8BE9C;}
	.st11{fill:#567A7C;}
	.st12{fill:#315858;}
	.st13{fill:#D8AF6E;}
	.st14{fill:#4E78B8;}
	.st15{fill:#2B2E2B;}
	.st16{fill:#F9F7EB;}
	.st17{fill:#2C2D2C;}
</style>
<path class="st0" d="M304.5,236.8L122.3,268c-10,1.7-19.6-5.1-21.4-15.2c0,0-17.9-184.5-1.5-187.4c0,0,191.5-19.1,194.2-2.7
	l26.2,152.7C321.3,225.5,314.6,235.1,304.5,236.8z"/>
<path class="st1" d="M294.2,243.4L110.1,261c-10.1,1-19.2-6.5-20.2-16.7c0,0-4.1-185.4,12.2-186.9c0,0,192.4-4.8,193.9,11.6
	l14.7,154.2C311.8,233.3,304.3,242.4,294.2,243.4z"/>
<path class="st1" d="M104.3,236.8L270.8,261c10.1,1,19.2-6.5,20.2-16.7c0,0,4.1-185.4-12.2-186.9c0,0-164.7-4.3-166.2,12.2
	L95.3,210.4C94.3,220.5,94.2,235.9,104.3,236.8z"/>
<path class="st2" d="M263.9,248.4H128.6c-23.9,0-43.4-19.5-43.4-43.4v-86.6c0-38.7,31.6-70.3,70.3-70.3H237
	c38.7,0,70.3,31.6,70.3,70.3V205C307.3,228.9,287.7,248.4,263.9,248.4z"/>
<path class="st3" d="M307.3,100h-222V81c0-18.1,14.8-33,33-33h156c18.1,0,33,14.8,33,33V100z"/>
<path class="st4" d="M121.3,63.2L121.3,63.2c-2.5,0-4.5-2.1-4.5-4.5V48.1h9v10.7C125.9,61.1,123.8,63.2,121.3,63.2z"/>
<path class="st4" d="M174.8,63.2L174.8,63.2c-2.5,0-4.5-2.1-4.5-4.5V48.1h9v10.7C179.3,61.1,177.2,63.2,174.8,63.2z"/>
<path class="st4" d="M224.7,63.2L224.7,63.2c-2.5,0-4.5-2.1-4.5-4.5V48.1h9v10.7C229.3,61.1,227.3,63.2,224.7,63.2z"/>
<path class="st4" d="M275.1,63.2L275.1,63.2c-2.5,0-4.5-2.1-4.5-4.5c0,0,0-9.8,0-10.7c0-0.8,9,0.1,9,0.1v10.6
	C279.6,61.1,277.6,63.2,275.1,63.2z"/>
<path class="st5" d="M174.7,61.7h-3.3c-1.5,0-2.8-1.3-2.8-2.8v-15c0-1.5,1.3-2.8,2.8-2.8h3.3c1.5,0,2.8,1.3,2.8,2.8v15
	C177.5,60.4,176.2,61.7,174.7,61.7z"/>
<path class="st5" d="M224.9,61.7h-3.3c-1.5,0-2.8-1.3-2.8-2.8v-15c0-1.5,1.3-2.8,2.8-2.8h3.3c1.5,0,2.8,1.3,2.8,2.8v15
	C227.8,60.4,226.5,61.7,224.9,61.7z"/>
<path class="st5" d="M275.1,61.7h-3.3c-1.5,0-2.8-1.3-2.8-2.8v-15c0-1.5,1.3-2.8,2.8-2.8h3.3c1.5,0,2.8,1.3,2.8,2.8v15
	C277.9,60.4,276.7,61.7,275.1,61.7z"/>
<path class="st6" d="M288.5,192.6L236,247.7c0,0,2-9.7,2-15.8c0-3.9-0.8-7.3-1.1-12.9c-0.8-15.6,8.3-19.6,12.5-21.9
	c6.5-3.6,17.3-0.9,23.8-1.3C276,195.6,286.4,195.2,288.5,192.6z"/>
<path class="st7" d="M305.8,189.1L236,247.7c0,0,3.5-11.1,4.1-18.3c0.4-4.6-0.1-8.6,0.1-15.1c0.8-18.4,12.2-22,17.7-24.2
	c8.4-3.4,21.1,0.9,29.1,1.1C290.4,191.3,303.1,191.9,305.8,189.1z"/>
<rect x="108.1" y="129.3" class="st5" width="29.6" height="19.2"/>
<rect x="108.1" y="163.4" class="st5" width="29.6" height="19.2"/>
<rect x="155.3" y="163.4" class="st5" width="29.6" height="19.2"/>
<rect x="202.4" y="163.4" class="st5" width="29.6" height="19.2"/>
<rect x="248.6" y="163.4" class="st5" width="29.6" height="19.2"/>
<rect x="108.1" y="197.6" class="st5" width="29.6" height="19.2"/>
<rect x="155.3" y="197.6" class="st5" width="29.6" height="19.2"/>
<rect x="202.4" y="197.6" class="st5" width="29.6" height="19.2"/>
<rect x="155.3" y="129.3" class="st5" width="29.6" height="19.2"/>
<rect x="202.4" y="129.3" class="st5" width="29.6" height="19.2"/>
<rect x="249.5" y="129.3" class="st5" width="29.6" height="19.2"/>
<path class="st5" d="M121.2,61.7h-3.3c-1.5,0-2.8-1.3-2.8-2.8v-15c0-1.5,1.3-2.8,2.8-2.8h3.3c1.5,0,2.8,1.3,2.8,2.8v15
	C124,60.4,122.8,61.7,121.2,61.7z"/>
<g>
	<g>
		<path class="st8" d="M169.5,142.2c-0.1,0.1-0.1,0.4,0.2,0.4l0.2-0.5L169.5,142.2z"/>
		<path class="st8" d="M171.3,143.4c0.2-0.1,0.4-0.3,0.5-0.4c0.1-0.2,0.2-0.4,0.1-0.8c-0.2,0.2-0.3,0.3-0.4,0.4
			c-0.1,0.1-0.2,0.2-0.4,0.4c-0.3,0-0.5-0.2-0.4-0.4c-0.1,0.1-0.2,0-0.3,0c-0.1,0-0.2,0-0.3,0.2c0.3,0.4,0.9,0.5,1.4,0.2
			C171.6,143.2,171.4,143.3,171.3,143.4z"/>
		<path class="st8" d="M194.3,158.3V158C194.2,158.1,194.3,158.3,194.3,158.3z"/>
		<path class="st8" d="M199,174.5c0-0.1-0.1-0.2-0.1-0.2C198.9,174.5,199,174.6,199,174.5z"/>
		<path class="st8" d="M198.4,177.4c0-0.1,0-0.1,0-0.2C198.4,177.3,198.3,177.3,198.4,177.4z"/>
		<path class="st8" d="M194.3,158.3c0,0,0,0.1,0,0.2s0,0.2,0,0.2C194.6,158.7,194.4,158.5,194.3,158.3z"/>
		<path class="st8" d="M175.6,142.8c-0.1,0-0.2,0-0.3,0.1C175.4,142.8,175.5,142.8,175.6,142.8L175.6,142.8z"/>
		<path class="st8" d="M189.1,152.9L189.1,152.9c-0.2-0.1-0.2,0-0.3,0c0,0,0.1,0,0.2,0H189.1z"/>
		<path class="st8" d="M184.4,149.4c0.1,0.1,0.4-0.3,0.5-0.4c-0.2,0.1-0.3,0.1-0.4,0.1C184.5,149.2,184.5,149.3,184.4,149.4z"/>
		<path class="st8" d="M176.5,145C176.5,145,176.4,145,176.5,145c-0.1,0-0.2,0-0.2,0S176.4,145,176.5,145z"/>
		<path class="st8" d="M191.8,155.9l-0.1,0.1C191.8,156,191.8,156,191.8,155.9z"/>
		<path class="st8" d="M166.5,145.5C166.5,145.6,166.5,145.6,166.5,145.5C166.5,145.6,166.5,145.5,166.5,145.5z"/>
		<path class="st8" d="M173.6,147.6L173.6,147.6c-0.1,0.1-0.1,0.2-0.1,0.3L173.6,147.6z"/>
		<path class="st8" d="M197,182.4L197,182.4C197,182.2,197,182.3,197,182.4z"/>
		<path class="st8" d="M159.1,198.8c0.2,0.3,0,0.3-0.2,0.4c-0.2,0.1-0.4,0.2-0.1,0.5c0-0.1,0.2-0.2,0.3-0.4
			C159.3,199.1,159.5,199,159.1,198.8z"/>
		<path class="st8" d="M175.7,142.9c0.1,0,0.2,0,0.2,0.1C175.9,142.9,175.8,142.8,175.7,142.9z"/>
		<path class="st8" d="M158.8,199.8L158.8,199.8L158.8,199.8C158.9,199.8,158.9,199.8,158.8,199.8z"/>
		<path class="st8" d="M192.3,193.1c0.1,0,0.1,0,0.2,0C192.5,193.1,192.4,193.1,192.3,193.1z"/>
		<path class="st8" d="M197.1,185.6l-0.1,0.2C197,185.7,197.1,185.7,197.1,185.6z"/>
		<path class="st8" d="M189.6,196.9c-0.1,0-0.2,0-0.3,0.2c0,0,0,0,0.1,0C189.4,197.1,189.5,196.9,189.6,196.9z"/>
		<path class="st8" d="M185.6,199.5c0,0,0.1,0,0.1,0.1l0.1-0.1H185.6z"/>
		<path class="st8" d="M150.7,148.7c0.1,0.1,0.3,0.2,0.3,0.3C151,148.8,151.6,148.3,150.7,148.7z"/>
		<path class="st8" d="M175.5,143c0.1-0.1,0.1-0.1,0.2-0.2c-0.1,0-0.1,0-0.2,0C175.5,142.9,175.5,143,175.5,143z"/>
		<path class="st8" d="M191.9,200c0,0-0.2,0.1-0.3,0.2s-0.2,0.1-0.2,0.2c-0.1,0-0.1,0.1-0.1,0.1C191.4,200.4,191.7,200.2,191.9,200z
			"/>
		<path class="st8" d="M132.2,179.4l-0.1-0.2C132.1,179.3,132.2,179.3,132.2,179.4z"/>
		<path class="st8" d="M188.9,202.1c-0.2-0.1-0.4-0.1-0.7,0v0.1L188.9,202.1z"/>
		<path class="st8" d="M151.1,149.1L151.1,149.1L151.1,149.1z"/>
		<path class="st8" d="M156.2,146.5c-0.8,0.2-0.2,0.7-0.3,1.1c-0.9,0.4-0.5-0.3-1-0.5c-0.1,0-0.1,0.1-0.2,0.1
			c-0.1,0-0.1,0.1-0.2,0.1c-0.1,0.1-0.2,0.2-0.3,0.3c-0.2,0.2-0.4,0.4-0.7,0.4c-0.1-0.1-0.1-0.1-0.1-0.2c-0.1,0.1-0.3,0.3-0.5,0.3
			c-0.2,0.1-0.4,0.2-0.7,0.2c-0.1,0-0.2,0.1-0.3,0.1c-0.1,0-0.2,0.1-0.3,0.2c-0.2,0.1-0.4,0.3-0.5,0.4c-0.1,0-0.1-0.1-0.1-0.1
			c0.2,0.2,0.3,0.5,0.4,0.8c-0.2,0.1-0.3,0.2-0.4,0.3c-0.1,0.1-0.2,0.1-0.3,0c0.2-0.1,0.2-0.2,0.2-0.4l-0.1,0.1
			c-0.1,0.1-0.1,0.1-0.1,0.1c-0.5-0.4,0.4-0.3,0.2-0.8c-0.1,0.1-0.3,0.2-0.4,0.3c-0.1,0.1-0.3,0.2-0.4,0.4c-0.1,0.1-0.3,0.2-0.4,0.3
			c-0.1,0.1-0.3,0.1-0.4,0.1c-0.2-0.2,0.1-0.4,0.3-0.5c0.2-0.1,0.3-0.2-0.1-0.3c0,0,0.2,0,0.4-0.1c0.2,0,0.4,0,0.4,0
			c-1-0.7,0.5-0.1-0.4-0.9c-0.5,0.1-0.9,0.3-1.1,0.5c-0.3,0.2-0.5,0.4-1.1,0.5c-0.1,0.4,0.3,0.4,0.2,0.8c-0.3,0.3-0.5,0.4-0.8,0.4
			c-0.1,0-0.2,0-0.3,0c-0.1,0-0.2-0.1-0.3-0.1c-0.4-0.2-0.8-0.3-1.1,0.3c0,0.2,0,0.5-0.1,0.8c-0.1,0.2-0.2,0.4-0.7,0.5
			c0,0,0-0.2,0-0.3c0-0.2,0-0.3,0-0.3c-0.5,0.2-0.5,0.5-0.5,0.8c0,0.1,0,0.2-0.1,0.3c0,0-0.1,0.1-0.2,0.1c-0.1,0-0.2,0.1-0.3,0.1
			c0-0.2,0.2-0.3,0.3-0.4c0.1-0.1,0.2-0.2,0.1-0.2c-0.4,0-0.5,0.1-0.5,0.3c0,0.2,0,0.4-0.2,0.5l-0.4-0.4c-0.2,0.2-0.4,0.4-0.7,0.7
			c-0.1,0.1-0.2,0.2-0.3,0.3c-0.1,0.1-0.2,0.2-0.3,0.3c-0.1,0.1-0.2,0.2-0.3,0.4c-0.1,0.1-0.2,0.2-0.3,0.4c-0.2,0.2-0.4,0.5-0.7,0.8
			c-0.1-0.2,0-0.4-0.3-0.4c-0.5,0.7-1.2,1.3-1.9,2c-0.7,0.7-1.4,1.2-2.1,1.7c0,0,0,0.2,0,0.4c0,0.1,0,0.2,0,0.3c0,0.1,0,0.1,0,0.1
			c-0.1,0.1-0.3,0.1-0.3-0.1c-0.5,0.4,0.2,0.2,0.2,0.5c-0.2,0.3-0.5,0.2-0.5,0c-0.1,0.7-0.3,1.4-0.7,2.2c-0.3,0.8-0.7,1.5-1.1,2
			v-0.1c0-0.1,0-0.1,0-0.1c-0.1,0.2-0.2,0.4-0.1,0.5c0,0.2,0.1,0.3,0.1,0.5c0,0.1,0.1,0.1,0.1,0.2s0,0.1,0,0.2
			c0,0.1-0.1,0.3-0.2,0.4v-0.2c-0.2,0.4-0.3,1-0.4,1.4c-0.1,0.5-0.2,1-0.3,1.5c0,0.1,0,0.2-0.1,0.3c0,0.1,0,0.1,0,0.2s0,0.1,0,0.2
			c0,0.2-0.1,0.4-0.1,0.7c0,0.1-0.1,0.2-0.1,0.3c0,0.1-0.1,0.2-0.1,0.3c-0.1,0.2-0.2,0.4-0.2,0.7c0.2,0.1,0.2,0.2,0.2,0.4
			c0,0.1,0,0.2,0,0.3c0,0.1,0,0.1,0,0.2c0,0.1,0,0.1,0,0.2c0,0.4,0,1,0.4,1c-0.1,0.3-0.2,0.5-0.3,0.7s-0.1,0.3-0.2,0.4
			c-0.1,0.1-0.1,0.3-0.1,0.5c0,0.1,0,0.2-0.1,0.4c0,0.1,0,0.3,0,0.5c0,0.2,0.2,0.3,0.4,0.5c0.2,0.1,0.4,0.3,0.5,0.5l-0.5,0.1
			c0,0,0.2,0.1,0.3,0.3c0.1,0.1,0.2,0.1,0.2,0.2c0.1,0,0.1,0.1,0.1,0.1s-0.1,0.1-0.2,0.2c-0.1,0.1-0.2,0.2-0.2,0.2s0.1,0.1,0.1,0.2
			c0.1,0.1,0.1,0.2,0.1,0.2c0-0.2,0.1-0.4,0.3-0.4c0,0.1,0.1,0.2,0.1,0.3s0.1,0.2,0.1,0.3c0,0.2,0,0.4,0,0.7c0,0.4-0.1,0.8-0.3,0.8
			c0,0,0.1,0.1,0.1,0.2c0.1,0.1,0.2,0.3,0.3,0.5c0.1,0.2,0.2,0.4,0.3,0.5s0.2,0.2,0.2,0.2c-0.2,0-0.4-0.2-0.7-0.4
			c0.1,0.1,0.2,0.2,0.2,0.2c0,0.1,0.1,0.1,0.1,0.1c0,0.1,0,0.1-0.1,0.2c-0.1,0.1-0.2,0.2,0.1,0.5c0.1-0.1,0.3-0.1,0.4-0.1
			c0,0.1,0,0.3,0,0.4c0,0.2,0.1,0.3,0.1,0.5c0.1,0.2,0.2,0.4,0.3,0.5c0.1,0.2,0.2,0.3,0.3,0.5h-0.4c0.1,0.1,0.1,0.3,0.2,0.4
			s0.2,0.3,0.2,0.4c0.1,0.1,0.2,0.3,0.3,0.4c0.1,0.1,0.2,0.3,0.3,0.4c0.1,0.1,0.2,0.3,0.3,0.4c0.1,0.1,0.2,0.3,0.3,0.4
			c0.2,0.3,0.4,0.7,0.7,1c-0.2-0.5,0.4-0.8,0.8-0.4l-0.3,0.4c0.4,0-0.1-0.5,0.5-0.2c0.3,0.5-0.3,0.7-0.7,0.5l0.5,0.4
			c-0.1,0.1-0.3,0-0.4,0.1c0.2,0,0.3,0.3,0.4,0.7c0.1,0.1,0.1,0.3,0.2,0.4c0.1,0.1,0.2,0.2,0.4,0.2l-0.1,0.1c0.5,0.7,0.9,1,1.3,1.3
			c0.2,0.2,0.4,0.3,0.7,0.5l0.1,0.1l0.1,0.1c0.1,0.1,0.2,0.2,0.3,0.3c0.2-0.2,0.3-0.1,0.5-0.1c0.2,0.1,0.4,0.1,0.7,0.1
			c0.1,0.2,0.3,0.3,0.4,0.5s0.3,0.4,0.4,0.7l0.1,0.1l0.1,0.1c0.1,0.1,0.2,0.2,0.3,0.3c0.1,0.1,0.2,0.2,0.3,0.3
			c0.1,0.1,0.2,0.2,0.3,0.2c0.8,0.2,0.4-0.2,0.9-0.2c-0.2,0.4,0.8,1,0.1,0.9c0.5,0.3,1,0.5,1.3,0.8c0.2,0.1,0.4,0.2,0.8,0.3
			c0.1,0,0.3,0.1,0.4,0.2c0.2,0,0.3,0.1,0.5,0.2c-0.1-0.2-0.2-0.4,0-0.5c0.3,0.1,0.5,0.5,0.3,0.7h-0.1c0.2,0,0.4,0.1,0.7,0.2
			c0.1,0,0.2,0.1,0.3,0.2c0.1,0.1,0.2,0.1,0.3,0.2c0.2,0.1,0.4,0.3,0.7,0.4c0.2,0.2,0.4,0.3,0.7,0.5c0.8,0.7,1.6,1.3,2.5,1.2h-0.1
			c0,0,0.1,0,0.2,0c0.1,0,0.3,0,0.5,0c0.4,0,0.8,0,0.8,0c0.3,0.1,0.2,0.2,0,0.2c-0.1,0.1-0.3,0.1-0.1,0.3c0.4,0,0.9,0,1.2,0.1
			c0.3,0.1,0.7,0.2,0.9,0.3c0.3,0.1,0.5,0.2,0.9,0.3s0.7,0.1,1,0.1c0.2,0.4,0.4,0.7,0.9,0.8c0.2,0.1,0.4,0.1,0.7,0.2
			c0.2,0,0.4,0.1,0.8,0.1c0.2,0,0.4,0.1,0.8,0.1c0.2,0,0.4,0.1,0.8,0.1c0.4,0.1,0.9,0.2,1.2,0.5v-0.3c0.4-0.2,0.4,0.2,0.7,0.3
			c0-0.2-0.3-0.3-0.1-0.4c1.5,0.1,3.1,0.3,4.7,0.7c1.5,0.3,3.2,0.7,4.7,0.9c0.5,0.1,0.8-0.3,1-0.7s0.4-0.5,1.2-0.2l-0.4,0.5
			c1.2-0.3,2.4-0.3,3.6-0.4c0.3,0,0.7,0,0.9-0.1c0.3,0,0.7-0.1,0.9-0.1c0.3,0,0.5-0.1,0.9-0.2s0.5-0.2,0.9-0.3
			c-0.1,0.1-0.1,0.3-0.3,0.3c0.1,0.1,0.3,0.1,0.5,0.1c0.2,0,0.4-0.1,0.7-0.2c0.1,0,0.2-0.1,0.2-0.1c0.1,0,0.1-0.1,0.2-0.1
			c0.1-0.1,0.2-0.2,0.2-0.3c0.3,0,0.1,0.3,0.4,0.4c0.1,0,0.3,0,0.4-0.1s0.2-0.2,0.4-0.2c0.2-0.2,0.4-0.3,0.7-0.2
			c0.1,0-0.1,0.2-0.2,0.2c0.1-0.1,0.2-0.1,0.3-0.2c0.1-0.1,0.3-0.1,0.4-0.2c0.3-0.1,0.4-0.2,0.2-0.4c0.4,0,0.9-0.3,1.2-0.4
			c0.1,0,0.2-0.1,0.2-0.1c0.1,0,0.2-0.1,0.2-0.1c0.2-0.1,0.3-0.1,0.5-0.2c0-0.2,0.1-0.3,0.3-0.4c0.1-0.1,0.3-0.1,0.4-0.2
			c0.3-0.1,0.5-0.3,0.4-0.7c0.2,0.3,0.7,0.2,1,0c0.2-0.1,0.4-0.3,0.5-0.5c0.1-0.2,0.3-0.4,0.3-0.5c0,0.3,0.5-0.1,0.5,0.2
			c0.2-0.2,0.4-0.4,0.5-0.7c0.1-0.2,0.1-0.4-0.1-0.5c0.2,0,0.3-0.1,0.5-0.1c0.1-0.1,0.2-0.1,0.3-0.2c0.1-0.1,0.2-0.2,0.2-0.3
			c0.1-0.1,0.1-0.2,0.2-0.3c0.1-0.2,0.2-0.4,0.4-0.7c0.2-0.1,0.4-0.2,0.8-0.2c0.4-0.9,0.9-1.7,1.3-2.5c0.3-0.8,0.8-1.6,1.1-2.4
			c0.3,0.2,0.1,0.7-0.1,1c-0.2,0.4-0.4,0.8-0.1,1c0.3-0.8,0.4-1.4,0.5-2.1c0.1-0.3,0.1-0.7,0.3-1c0.1-0.3,0.2-0.7,0.4-1
			c0.2-0.3,0.2,0.3,0.2,0.5c0.1-0.2,0.1-0.4,0.2-0.5c0.1-0.1,0.1-0.3,0.2-0.5c0.1-0.3,0.3-0.8,0.4-1.1c0.1-0.3,0.2-0.7,0.3-1.1
			c0.1-0.3,0.1-0.8,0.2-1.1c0.1,0,0.1,0.2,0.1,0.3c0.1-0.2,0.3-0.5,0-0.7v0.3c-0.1,0.1-0.3,0-0.3-0.1c-0.1-0.1-0.2-0.3-0.2-0.5
			c-0.1-0.4-0.2-0.8-0.3-0.9c0.4,0.3,0.5,0,0.8-0.2c0.2-0.2,0.3-0.5,0.9,0c0-0.2-0.1-0.4-0.3-0.4c0.1-0.2,0.3-0.3,0.4,0
			c0-0.5-0.1-0.7-0.1-0.9c-0.1-0.2-0.1-0.3,0-0.8c0.2,0,0.2,0.2,0.3,0.3c-0.1-0.2-0.2-0.5-0.3-0.8c-0.1-0.3,0-0.5,0.1-1
			c0.1,0.1,0.2,0,0.2,0.2c0-0.3,0-0.7,0-1c0-0.1,0-0.3-0.1-0.4c0-0.1-0.1-0.3-0.1-0.4c0-0.1,0-0.3-0.1-0.4c0-0.1,0-0.3,0-0.4
			c0-0.3,0-0.7,0.1-1c0.8,0.4,0.2-0.4,0.9-0.5c0,0,0-0.2-0.1-0.4c0-0.2-0.1-0.4-0.1-0.4l-0.3,0.3c0-0.3-0.1-0.7-0.2-1
			c-0.1-0.3-0.1-0.5-0.1-0.9l0.2,0.5c0,0,0-0.3-0.1-0.7c0-0.1,0-0.3-0.1-0.4c0-0.1,0-0.2,0-0.2s0,0.2-0.1,0.3c0,0.1,0,0.2-0.1,0.2
			c0,0.1,0,0.1,0,0.1c-0.1-0.2-0.2-0.2-0.2-0.3c-0.1,0-0.2,0-0.2,0c-0.1,0-0.2,0-0.1-0.4c0,0.1,0-0.1,0.1-0.3c0-0.2,0.1-0.5,0.2-0.8
			l0,0c-0.1-0.1-0.2-0.3-0.3-0.4c-0.1-0.2-0.1-0.3-0.1-0.7c0.2-0.1,0.8,0,0.9-0.1c-0.1-0.1-0.2-0.2-0.3-0.3
			c-0.1-0.1-0.1-0.3-0.1-0.5s-0.1-0.4-0.2-0.5c-0.1-0.2-0.2-0.3-0.3-0.4c0.1,0.1,0.4,0.1,0.5,0l-0.4-0.2c0.1-0.3,0.1-0.4,0.4-0.3
			c0-0.4-0.2-0.3-0.4-0.2c-0.1,0.1-0.3,0.1-0.2-0.4c0,0.1,0.1,0,0.2,0.2c0-0.5-0.2-1.1-0.4-1.5c-0.2-0.4-0.3-1-0.4-1.5
			c0.2-0.2,0.3,0,0.4,0.2c0.1,0.2,0.1,0.4,0.3,0.1c-0.1-0.3-0.3-0.7-0.4-1c-0.2-0.3-0.4-0.7-0.5-1c-0.2-0.3-0.4-0.7-0.5-1
			c-0.1-0.1-0.2-0.3-0.2-0.5c-0.1-0.2-0.1-0.3-0.2-0.5v0.1c0,0.1,0,0.1,0,0.1c-0.4,0.1-0.4-0.2-0.4-0.5c0-0.2,0-0.4,0-0.5
			c0-0.2-0.1-0.3-0.3-0.4c0.1,0.1,0.5,0,0.4,0c-0.3-1-1.1-1.7-2.2-2.7h0.3c0-0.1-0.1-0.3-0.2-0.4s-0.2-0.3-0.3-0.4
			c-0.1-0.2-0.2-0.3-0.3-0.4s-0.2-0.3-0.2-0.4c-0.3,0-0.4-0.3-0.7,0.1c0-0.1,0-0.1,0-0.2c0-0.1,0-0.1,0-0.2c0-0.1-0.1-0.2-0.1-0.3
			s-0.1-0.2-0.1-0.3l-0.1-0.1l-0.1-0.1c-0.3-0.3-0.7-0.7-1-0.9c-0.2-0.1-0.3-0.2-0.5-0.4c-0.2-0.1-0.3-0.2-0.5-0.4
			c-0.1-0.1-0.1-0.1-0.2-0.2c-0.1-0.1-0.1-0.2-0.2-0.2c-0.1-0.2-0.2-0.4-0.2-0.7c0.1,0.1,0.4,0.2,0.3,0.1c0,0-0.1,0-0.2-0.1
			c-0.1,0-0.1-0.1-0.2-0.1s-0.1-0.1-0.2-0.1c-0.3-0.2-0.7-0.4-0.7-0.4c-0.2,0.3,0,0.3,0,0.8c-0.3,0-0.7-0.1-1-0.3
			c0.7,0.2,0.4-0.4,0.3-0.9c0,0.1-0.2,0.1-0.2,0.2c0-0.2-0.1-0.3-0.1-0.3c-0.1,0-0.1,0-0.2,0.1c-0.2,0.1-0.4,0.2-0.7-0.2l0.2-0.1
			c-0.1,0-0.2-0.1-0.3-0.1c-0.1,0-0.2,0-0.3-0.1c-0.2,0-0.3-0.1-0.5-0.2c0.1-0.4,0.4,0.1,0.7-0.2c-0.1-0.1-0.2-0.1-0.4-0.1
			c-0.1,0-0.1,0-0.2,0s-0.2,0-0.2,0c-0.3,0-0.5-0.1-0.7-0.4c0.2,0,0.5,0.2,0.9,0.3c-0.1-0.4-0.1-0.5-0.2-0.7
			c-0.1-0.1-0.2-0.2-0.3-0.3l0,0c0,0-0.2-0.2-0.3-0.3c-0.1-0.1-0.2-0.2-0.2-0.2c-0.1-0.1-0.1-0.1-0.1-0.1s0,0.1,0.1,0.1
			c0,0.1,0.1,0.1,0.1,0.1c-0.3,0.1-0.5,0.2-0.8,0.1c-0.2,0-0.3-0.1-0.5-0.2s-0.3-0.2-0.5-0.3c-0.1,0-0.2-0.1-0.3-0.1s-0.2,0-0.4,0
			c0.3,0,0.4-0.1,0.5-0.1c0.1,0,0.1-0.1,0.1-0.1c0-0.1-0.1-0.2,0-0.4c-0.1-0.2-0.4-0.5-0.2-0.7c-0.3,0.1-0.4-0.1-0.7-0.2
			c-0.2-0.1-0.3-0.3-0.8-0.2c0-0.1-0.1-0.1-0.2-0.2c-0.1-0.1-0.1-0.2,0-0.3c-0.7-0.1,0,0.3-0.1,0.5c-0.5,0.1-1-0.3-1.4-0.7
			c-0.1-0.1-0.2-0.2-0.4-0.3c-0.1-0.1-0.3-0.1-0.4-0.2c-0.1-0.1-0.3-0.1-0.4-0.1c-0.2,0-0.3,0-0.5,0c-0.3,0-0.5,0-0.8,0
			c-0.2,0-0.4,0.1-0.7,0.1c-0.2,0-0.3,0.1-0.5,0.1c-0.2,0-0.4,0.1-0.7,0.1c-0.1-0.2,0-0.3,0.1-0.4c0.1-0.1,0.3-0.1,0.3-0.1
			c-0.4-0.4-0.9-0.4-1.5-0.4c0.1-0.1,0.1-0.2-0.1-0.4c-0.4-0.1-0.4,0.5-1,0.1c0.1-0.1,0.3-0.4,0.5-0.5c-0.5,0-1.1,0.2-1.6,0.3
			c-0.1-0.3,0.4-0.3,0.7-0.5c-0.1,0-0.3,0-0.5,0s-0.3,0-0.5,0c-0.3,0-0.7,0.1-0.8,0.3c0,0,0.1,0,0.2,0.1c0.1,0.1,0.2,0.1,0.2,0.1
			c-0.2,0,0-0.4,0.1-0.4c0.5-0.3,0.8,0.3,0.8,0.4h-0.4c0.1,0.2,0.2,0.4,0.3,0.4c0.1,0.1,0.3,0,0.5,0c0.4-0.1,1-0.2,1.3-0.1
			c0,0-0.1,0.1-0.2,0.3c-0.1,0.1-0.2,0.3-0.2,0.3s0.2-0.1,0.4-0.2c0.1,0,0.2-0.1,0.3-0.1c0.1,0,0.1-0.1,0.1-0.1
			c0.1,0.2,0.1,0.7-0.2,0.7c0.2,0.2,0.3,0.2,0.4,0.2s0.2-0.1,0.4,0.2c0,0.1,0,0.1,0,0.1l0.5-0.1c-0.1,0.1-0.1,0.5-0.3,0.3
			c0.2,0.2,0.4,0.2,0.5,0.2c0.2,0,0.3,0,0.5,0c0.3,0,0.5,0,0.7,0.3H178c0.7,0.1,0.8,0,0.8-0.2c0-0.1,0-0.2,0.1-0.3
			c0.1-0.1,0.2-0.2,0.5-0.2c0,0,0,0.3,0.1,0.8c0,0.3,0.1,0.8,0.1,0.8l0.3-0.4c0.1,0.1,0.3,0.2,0.2,0.4c0.5-0.1,0-0.2,0.4-0.4
			c0.1,0.2,0.2,0.3,0.4,0.4c0.2,0.1,0.3,0.2,0.5,0.2c0.3,0.1,0.7,0.3,0.5,0.8c0.4-0.2-0.4-0.5,0.3-0.4c-0.1,0.4,0.1,0.5,0.3,0.5
			s0.7,0,0.8,0.3c-0.4,0.3-0.8-0.1-0.4,0.4c0.2-0.1,0.3-0.1,0.4-0.1c0.1,0,0.2,0.1,0.3,0.3c0.2,0.2,0.3,0.5,0.7,0.7
			c0.2-0.2,0.4-0.2,0.8,0c0.1,0.1,0.3,0.2,0.5,0.3c0.2,0.1,0.3,0.2,0.5,0.3c-0.1,0.1,0.2,0.3,0.5,0.8c0.3,0.3,0.8,0.8,1,1.1
			l-0.1,0.1c0.2-0.2,0.5-0.1,0.8,0c0.2,0.1,0.5,0.3,0.8,0.5c-0.2,0.2-0.4,0.3-0.8,0.2l0.4,0.3c0.2-0.1,0.4,0,0.8,0.1l-0.4,0.2
			c0.1,0.1,0.3,0.2,0.4,0.3s0.3,0.2,0.5,0.3c0.3,0.2,0.7,0.4,0.9,0.9c0.2-0.1,0.3-0.4,0.4-0.8c0.1-0.2,0.4-0.4,0.9-0.1
			c-0.1,0.2-0.4,0.4-0.7,0.3c0.1,0,0.3,0.1,0.4,0.3h-0.5c0.1,0.4,0.4-0.1,0.5,0.2c-0.2,0.2,0,0.3-0.2,0.4c-0.1,0-0.1-0.3-0.2-0.3
			c0.1,0.1,0.2,0.3,0.2,0.5s0.1,0.4,0,0.5c0.1-0.1,0.3-0.3,0.5-0.1c0.2,0.2,0.2,0.3,0.1,0.4c-0.1,0.1-0.2,0.2-0.1,0.4
			c0.3,0,0.3,0.5,0.8,0.2c0.1,0.2,0,0.3-0.1,0.4c0.1,0,0.2,0.1,0.3,0.2c0.1,0.1,0.2,0.2,0.3,0.4c0.2,0.2,0.4,0.4,0.5,0.1v-0.1l0,0
			l0,0l0,0c0.1,0.1,0.2,0.2,0.3,0.3c0.1,0.1,0.2,0.2,0.3,0.3c0.1,0.1,0.1,0.3,0.2,0.4c0.1,0.1,0.1,0.3,0.2,0.4
			c0.1,0.3,0.2,0.5,0.3,0.9c0.1,0.1,0.1,0.3,0.2,0.4c0,0.1,0.1,0.1,0.1,0.2c0,0.1,0.1,0.1,0.1,0.2l-0.1,0.1c0.2,0.3,0.4,0.7,0.7,1
			c0.1,0.1,0.2,0.3,0.3,0.4c0.1,0.1,0.2,0.2,0.3,0.3c0.1,0.2-0.1,0.5-0.3,0.5c0.2,0.2,0.3,0.3,0.3,0.5c0,0.1,0.1,0.2,0.1,0.3
			c0,0.1,0,0.3,0,0.5c-0.1-0.1-0.2-0.1-0.2-0.1h-0.1c0,0,0,0-0.1-0.3c0,0.2,0,0.3,0,0.4c0,0.1,0,0.2,0,0.3c0,0.1,0.1,0.2,0.1,0.3
			c0.1,0.1,0.2,0.2,0.3,0.4c-0.2-0.1-0.3,0.1-0.3,0.3s0.1,0.4,0.2,0.7c0,0,0-0.1,0.1-0.3c0-0.1,0.1-0.3,0.1-0.3
			c0.2,0.3,0.2,0.7,0.2,1h-0.5c0,0.2,0,0.3,0,0.5s0.1,0.3,0.1,0.4c0.1,0.1,0.1,0.3,0.2,0.4c0.1,0.1,0.2,0.3,0.2,0.4
			c0.1,0.1,0.2,0.2,0.2,0.4c0,0.2,0.1,0.3,0.1,0.4c0,0.1,0,0.3,0,0.4c0,0.1,0,0.1-0.1,0.2c0,0.1-0.1,0.1-0.1,0.2
			c0.2,0.1,0.2,0,0.3-0.2c0-0.2,0.1-0.4,0.3-0.3c0,0.1,0,0.2,0,0.2c0,0.1,0,0.2-0.1,0.2c-0.1,0.2-0.1,0.3-0.2,0.5
			c-0.2,0.3-0.3,0.5-0.3,0.7c-0.1,0.4,0.1,0.7,0.3,0.9c0.1,0.1,0.2,0.2,0.3,0.3c0,0.1,0.1,0.1,0.1,0.2c0,0.1,0,0.2,0,0.3
			c0.2-0.1,0.8-0.3,1,0.4c0,0.2-0.1,0.3-0.1,0.4c-0.1,0.1-0.2,0.2-0.3,0.2c-0.2,0.1-0.4,0-0.5-0.2c0-0.1,0-0.2,0.1-0.2
			c-0.1-0.2-0.2-0.4-0.4-0.2l0.2,0.1c0,0.1-0.1,0.2-0.1,0.3s-0.1,0.2-0.1,0.4c-0.1,0.2-0.1,0.4-0.3,0.3c0.2,0.4,0.3,0.2,0.4-0.1
			c-0.1,0.4-0.1,0.8-0.1,1.1s0,0.7-0.1,1.1c0.1-0.1,0.3-0.2,0.3-0.1c0,0.1-0.1,0.3-0.1,0.4c0,0.1,0,0.2,0,0.2c0,0.1,0.1,0.2,0.1,0.2
			c0.1,0.1,0.3,0.1,0.3,0.5c-0.3,0.4-0.8-0.2-0.5,0.7c-0.2,0.5-0.5,0-0.7-0.2c0,0.1,0.1,0.2,0.1,0.3s0,0.2,0,0.3
			c0,0.2-0.1,0.3-0.2,0.4c-0.1,0.1-0.2,0.3-0.2,0.4c-0.1,0.1-0.1,0.2-0.2,0.3l-0.1-0.4c0.1,0.2,0,0.4,0,0.7l0.4-0.1
			c-0.1,0.1-0.1,0.2-0.1,0.3c0,0.1-0.1,0.1-0.2,0.1c0.1,0.1,0.3,0.1,0.4,0.1c0.2,0,0.3,0.1,0.5,0.3c-0.1,0.1-0.1,0.4-0.2,0.7
			c0,0.2-0.1,0.4-0.4,0.4c0.2-0.4,0.1-0.4-0.1-0.4c-0.1,0-0.2,0-0.2,0c-0.1,0-0.1-0.1-0.1-0.3c0,0.2,0,0.3-0.1,0.5
			c-0.1,0-0.1-0.1-0.1-0.1c-0.7,0.8,0.5,0.5,0.2,1.5c-0.2-0.2-0.7,0.1-0.7,0.2c0.1-0.3,0.5,0,0.7,0.4c-0.2,0.3-0.2,0.4-0.2,0.7
			c0,0.1,0.1,0.3,0,0.4l0.2-0.3c0.2,0.2,0.1,0.5,0,1c-0.2,0,0-0.4-0.2-0.3c0,0.1,0.1,0.1,0.1,0.2c0,0.1,0,0.1-0.1,0.2
			c-0.1,0.1-0.2,0.2-0.3,0.3c-0.2,0.2-0.5,0.4-0.5,0.9c-0.3,0.2-0.5-0.2-0.8,0c0,0.4-0.2,0.5-0.3,0.8l-0.1,0.1l-0.1,0.1
			c-0.1,0.1-0.1,0.2-0.1,0.4c0.4,0,0.4-0.1,0.5,0.5c0,0,0,0,0-0.1v-0.1c0-0.1,0.1-0.3,0.1-0.4c0-0.2,0.1-0.3,0.1-0.4
			c0-0.1,0-0.2,0-0.2v0.1c0,0.1,0,0.2,0.1,0.3c0,0.2,0.1,0.5,0.1,0.5c0.1-0.2,0.1-0.4,0.2-0.7c0-0.2,0.1-0.4,0.1-0.4
			c0.1,0.5,0,0.4,0.4,0.4c-0.2,0.1-0.3,0.2-0.3,0.3c-0.1,0.1-0.1,0.3-0.1,0.4s0,0.3-0.1,0.4c0,0.1-0.1,0.3-0.3,0.3l-0.9-0.5
			c-0.2,0.1-0.3,0.3-0.4,0.5c-0.1,0.2-0.1,0.4-0.2,0.7c-0.1,0.2-0.1,0.4-0.2,0.8c-0.1,0.2-0.2,0.4-0.4,0.8c0,0,0.1-0.1,0.2-0.1
			c0.1-0.1,0.2-0.1,0.2-0.1c0.1,0.2,0,0.3-0.1,0.5c-0.1,0.2-0.3,0.3-0.4,0.5c-0.2-0.2-0.5-0.1-0.8-0.1c0.1,0.1,0,0.2-0.1,0.4
			s-0.2,0.4,0,0.8c0,0-0.2,0-0.3,0.1c-0.2,0-0.3,0.1-0.3,0.1l-0.1,0.1l-0.1,0.1c-0.1,0.1-0.1,0.2-0.1,0.2c-0.1,0.2-0.1,0.3-0.1,0.5
			c0,0.3,0,0.8-0.4,1.1c0-0.2-0.1-0.3-0.2-0.4c-0.1-0.1-0.1-0.2,0-0.5c-0.2,0.2-0.4,0.3-0.3,0.5c-0.1,0-0.1,0-0.2,0.1
			c0,0.1-0.1,0.2-0.1,0.3c-0.1,0.1-0.1,0.2-0.2,0.3c-0.1,0.1-0.2,0.1-0.3,0.1c0,0.2,0.2,0.5-0.1,0.8c-0.1,0-0.1-0.1-0.1-0.1
			c0.1,0.1-0.3,0.5,0.1,0.7c-0.2,0-0.3,0-0.5,0s-0.3,0.1-0.4,0.1c-0.3,0.1-0.5,0.3-0.9,0.5c-0.1,0.1-0.3,0.2-0.4,0.2
			c-0.1,0.1-0.3,0.1-0.4,0.2c-0.1,0-0.3,0.1-0.4,0.1c-0.1,0-0.1,0-0.2,0c-0.1,0-0.1,0-0.2-0.1c-0.1,0.1-0.3,0.2-0.4,0.3
			c-0.1,0-0.2,0.1-0.2,0.1c-0.1,0-0.2,0.1-0.2,0.1c-0.3,0.2-0.7,0.3-1,0.4c0-0.1,0-0.1,0.1-0.2c-0.2,0-0.3,0-0.4,0.1
			c-0.1,0.1-0.1,0.2-0.2,0.3c0,0.1-0.1,0.2-0.2,0.3c-0.1,0.1-0.3,0.1-0.5,0.1c-0.7-0.4,0.4-0.4,0.1-0.5c-0.1-0.2-0.2-0.3-0.3-0.4
			c-0.1,0-0.1,0-0.2,0c-0.1,0-0.1,0.1-0.2,0.1c-0.2,0.1-0.3,0.2-0.5,0.2c-0.2,0-0.4,0-0.5-0.1l0.1-0.1c-0.1-0.1-0.3-0.1-0.4,0
			c-0.1,0-0.3,0.1-0.4,0.2c-0.1,0-0.2,0.1-0.2,0.1c-0.1,0-0.2,0.1-0.3,0.1c-0.2,0.1-0.4,0.1-0.7,0.1c0,0,0-0.1,0-0.2
			c-0.2,0.3-0.7,0.5-1.2,0.7c-0.4,0.2-1,0.2-1.4,0.3c0.2-0.4,0.3-0.2,0.2-0.7c-0.3,0.1,0.1,0.8-0.7,0.9c-0.2-0.2-0.8-0.4-0.9-0.9
			c0,0,0.2,0,0.3,0c0.1,0,0.2,0,0.2,0c0.1,0,0.1,0,0.1,0c-0.2-0.3-0.4-0.3-0.7-0.2c-0.2,0.1-0.4,0.2-0.7,0.1v-0.2
			c-0.3,0-0.4,0.1-0.7,0.1c-0.2,0.1-0.3,0.1-0.4,0.2c-0.3,0.2-0.7,0.3-1.2,0.2l0.1,0.2c-0.7,0.7-0.5-0.4-1.2,0.1l-0.1-0.7
			c-0.2,0.1-0.7,0.2-1,0.3c-0.4,0.1-0.9,0.2-1.3,0.3c0.4-0.4,1.4-0.7,2-0.9c-0.2,0-0.5,0-0.9,0c-0.3,0-0.7,0.1-0.8,0.2
			c0.2,0,0.4-0.2,0.5-0.1c-0.3,0.2-0.5,0.4-1,0.5c-0.3,0.1-0.8,0.1-1.2,0.1c0.1-0.7-0.4-0.8-1-0.9c-0.3-0.1-0.7-0.1-1-0.2
			c-0.3-0.1-0.5-0.3-0.7-0.5c-0.2,0-0.3,0-0.5,0c-0.2,0-0.3,0-0.5,0c-0.2,0-0.3-0.1-0.5-0.1s-0.3-0.1-0.5-0.2
			c-0.3-0.1-0.8-0.2-1.1-0.4c-0.2-0.1-0.4-0.1-0.5-0.2c-0.2-0.1-0.4-0.1-0.7-0.1c0.1,0.3,0.1,0.4,0.1,0.4c0,0.1-0.1,0-0.2,0
			c-0.2,0-0.4-0.1-0.5,0.4c-0.4,0-0.5-0.1-0.5-0.1s-0.2-0.2-0.5-0.4c-0.1-0.1-0.2-0.2-0.3-0.3c-0.1-0.1-0.1-0.1-0.1-0.1
			c-0.2-0.3,0.4-0.1,0.4-0.3c-0.8-0.3-0.2-0.5-0.7-1c0,0.4-0.4,0.4-0.9,0.1l0.5,0.7c-0.7,0.1-0.9-0.2-1-0.5c-0.2-0.3-0.3-0.5-1-0.5
			l0.4-0.2c-0.3,0-0.9-0.2-1.4-0.3c-0.1,0-0.3-0.1-0.4-0.1s-0.3,0-0.4,0c-0.2,0-0.5,0-0.8,0.2c0-0.1-0.1-0.4,0.2-0.4
			c-0.3-0.2-0.7-0.3-1.1-0.4c-0.2,0-0.4-0.1-0.5-0.1c-0.2,0-0.4-0.1-0.5-0.1c-0.4-0.1-0.8-0.2-1.1-0.3c-0.3-0.1-0.5-0.3-0.8-0.7
			l0.2-0.2c-0.3-0.1-0.7,0.2-0.9-0.2c0.1-0.1,0.2-0.1,0.1-0.2c-0.1,0-0.3,0-0.5,0c-0.2,0-0.4-0.1-0.5-0.3l0.4-0.1
			c-0.1-0.1-0.2-0.2-0.4-0.3c-0.1-0.1-0.2-0.2-0.4-0.2c-0.1-0.1-0.2-0.1-0.4-0.1c-0.1,0-0.3-0.1-0.4-0.1c-0.5-0.1-1.2-0.2-1.6-0.5
			c0.2-0.3,0.2-0.7,0-1c-0.1-0.2-0.2-0.3-0.3-0.5c-0.1-0.1-0.2-0.3-0.3-0.4l0.1-0.1c-0.1-0.1-0.3-0.3-0.4-0.4
			c-0.1-0.1-0.1-0.1-0.2-0.2l-0.1-0.1L143,189c-0.1-0.1-0.3-0.2-0.4-0.3c-0.1,0-0.1-0.1-0.2-0.1s-0.1-0.1-0.2-0.1
			c-0.3-0.2-0.7-0.3-0.9-0.5c-0.1-0.1-0.3-0.2-0.4-0.3c-0.1-0.1-0.3-0.2-0.4-0.3c0-0.1,0-0.3-0.1-0.4c0-0.2-0.1-0.3-0.2-0.5
			c0-0.1-0.1-0.2-0.1-0.2c0-0.1-0.1-0.2-0.1-0.2c-0.1-0.2-0.2-0.3-0.3-0.5c-0.4-0.8-1-1.5-1.1-2.3c0,0.2-0.5,0.2-0.8,0
			c0-0.2-0.2-0.3-0.4-0.5c-0.1-0.1-0.2-0.3,0.1-0.4v0.1c0.1-0.1,0.2-0.2,0.2-0.4c0-0.1,0-0.3,0-0.4s-0.1-0.3-0.2-0.4
			c-0.1-0.1-0.1-0.3-0.2-0.4l-0.9,0.2c0.1-0.4,0.1-1,0-1.3c-0.1-0.2-0.1-0.4-0.2-0.7c0-0.1-0.1-0.2-0.1-0.3c0-0.1-0.1-0.2-0.1-0.3
			c-0.1-0.2-0.2-0.4-0.2-0.7c-0.1-0.2-0.1-0.4-0.2-0.5c0-0.1,0-0.2,0-0.2c0-0.1,0-0.2,0-0.2c0-0.1,0.1-0.3,0.2-0.4
			c-0.1-0.1-0.1-0.1-0.2-0.2c0-0.1-0.1-0.2-0.1-0.3c-0.1-0.2-0.2-0.3-0.3-0.5h0.4c0-0.2,0-0.4,0-0.7c0-0.1,0-0.2,0-0.3s0-0.2,0-0.3
			c0-0.2,0-0.4,0-0.7s0-0.4-0.1-0.8l0.3,0.2c0-0.1,0-0.1-0.1-0.2c0-0.1-0.1-0.1-0.1-0.2c-0.1-0.1-0.3-0.2-0.4-0.3
			c-0.2-0.1-0.3-0.2-0.5-0.3c-0.1-0.1-0.2-0.2-0.2-0.4c0,0,0.2,0,0.3-0.1c0.2,0,0.3-0.1,0.3-0.1c0-0.1,0-0.3,0.1-0.4
			c0-0.1,0.1-0.3,0.1-0.4l0.1-0.2c0-0.1,0-0.1,0.1-0.2c0-0.1,0.1-0.3,0.1-0.4c0-0.1,0-0.1,0.1-0.2v-0.1v-0.1c0-0.1,0.1-0.3,0.1-0.4
			c0-0.1,0-0.1,0-0.2v-0.1v-0.1c0-0.1,0-0.3-0.1-0.4c0.1,0,0.3,0.1,0.3,0.3c0-0.1,0.1-0.3,0.2-0.5s0.2-0.4,0.2-0.7
			c0.1-0.2,0.1-0.4,0-0.5c0-0.1-0.2-0.2-0.4-0.3c0.1,0,0.2,0,0.3-0.1c0,0,0.1-0.1,0.1-0.2c0-0.1,0-0.2,0.1-0.2s0-0.2,0-0.3
			c0-0.1,0-0.2,0-0.3c0-0.2,0-0.4,0-0.7l0.4,0.3c-0.1-0.3-0.2-0.5-0.3-0.8c0-0.2,0-0.4,0.1-0.9c0.1-0.1,0.4,0.1,0.2,0.2
			c0.2-0.2,0.2-0.3,0.2-0.5c0-0.2,0-0.3,0.3-0.7l0.1,0.4c0.1-0.1,0.1-0.2,0.2-0.3c0-0.1,0-0.1,0-0.2c0-0.1-0.1-0.3-0.1-0.5
			c0-0.2,0.2-0.4,0.5-0.7c0.2-0.1,0.5-0.2,0.8-0.1c-0.1-0.1-0.1-0.3-0.1-0.4c0-0.2,0.1-0.3,0.2-0.4c0.1,0.1,0.1,0.2,0.1,0.3
			c0.2-0.1,0.4-0.3,0.5-0.5c0.1-0.2,0.2-0.3,0.3-0.5c0.1-0.2,0.1-0.3,0.3-0.4c0.1-0.1,0.1-0.1,0.2-0.2c0.1,0,0.2-0.1,0.3-0.1
			c0.1,0.1,0.2,0.1,0.3,0.1c-0.3,0.3-0.5,0.5-0.8,0.8c-0.2,0.2-0.3,0.3-0.3,0.2c0.1,0.1,0.3,0.1,0.5,0.1c0.2,0,0.3,0.1,0.3,0.5
			c0-0.1,0.1-0.3,0.1-0.5s0.1-0.4,0.1-0.7c0.1-0.2,0.1-0.4,0.2-0.5c0.1-0.1,0.2-0.3,0.4-0.3c0,0,0.1,0,0.2,0.1v0.1
			c0.1-0.1,0.2-0.2,0.2-0.3c0.2-0.1,0.3-0.1,0.5-0.2c0.1,0.1,0.3,0,0.5-0.1c0.2-0.1,0.3-0.3,0.5-0.4c-0.3-0.3,0.1-0.5-0.4-0.7
			c0.1,0,0,0.1-0.2,0.2l-0.1,0.1l0,0c-0.2,0.1-0.4,0.3-0.7,0.5c0-0.3,0.1-0.7,0.7-0.8c0-0.3-0.1-0.8-0.1-0.9c0.8,0.2,1.7,0,2.1,0.3
			c0.3-0.4,0.9-0.8,1.3-1.2c0.2-0.2,0.4-0.4,0.5-0.7c0.1-0.2,0.2-0.4,0.3-0.8c0.2-0.2,0.4,0.1,0.5,0.1c-0.1,0.1-0.3,0.2-0.3,0.4
			c0.1-0.1,0.2-0.2,0.4-0.3c0.1-0.1,0.3-0.2,0.5-0.3c0.3-0.2,0.5-0.4,0.5-0.8c0.4,0,0.3,0.1,0.3,0.2s0,0.2,0.4-0.1v0.2
			c0.3,0,0.5,0,0.8-0.1c0.2-0.1,0.4-0.1,0.7-0.3c0.2-0.1,0.3-0.2,0.5-0.4c0.2-0.1,0.3-0.3,0.5-0.4c0.2-0.1,0.3-0.3,0.5-0.4
			c0.1-0.1,0.2-0.1,0.3-0.2c0.1-0.1,0.2-0.1,0.3-0.1c0.4-0.2,1-0.2,1.6-0.1c-0.2,0-0.2,0-0.3-0.1c0.3,0,0.7-0.1,1-0.1
			c0.3,0,0.7-0.1,1-0.2c0.2,0,0.3-0.1,0.5-0.1s0.3-0.1,0.5-0.1l0.5-0.1l0.2-0.1l0.2-0.1c0.3-0.1,0.7-0.1,1-0.2
			c0.3-0.1,0.7-0.1,1-0.1c0.2,0,0.3,0,0.5,0c0.2,0,0.3,0,0.5,0c0.3,0,0.7,0,1,0.1c0.8,0.1,0.8-0.3,1.2-0.7l0.2,0.5l0.8-0.7
			c0.5-0.3,1.1,0,1.6,0.2c0.5,0.2,1.1,0.4,1.7,0l-0.2-0.3c0.5,0,1.6-0.3,1.5,0.1c0-0.1,0.1-0.3,0.3-0.2v0.2l1.2-0.5
			c1,0.1-0.1,1.1,1.3,1.1c0.5-0.1,1.4-0.9,1.3-1c-0.2,0-0.5-0.1-0.5-0.4l0.4-0.1c0-0.8,0.4-1.6-0.9-2.2l-0.8,0.5l-0.3-0.3l0.7-0.1
			c-0.4-0.3-0.7,0-0.9,0.2c-0.1-0.2-0.2-0.3-0.3-0.4l-0.8,0.8c-0.1-0.3,0.3-0.7-0.2-0.8c-0.3,0.3,0.4,0.7-0.2,1
			c-0.4-0.3-0.3-0.7-0.8-0.3c-0.1-0.2,0-0.3,0.2-0.4c-0.4,0.2-1.1,0.2-1.3,0.7c-0.4-0.4-1.4,0.2-1.4-0.5c-0.1,0.2-0.7,0.7-1.1,0.8
			c0.3-0.4,0-0.4-0.4-0.4c-0.4,0-0.9,0-0.9-0.4c-0.2,0.4-0.7,0.5-1.2,0.7c-0.2,0-0.5,0.1-0.8,0.1c-0.2,0.1-0.5,0.1-0.8,0.3
			c0-0.1,0.1-0.2,0.2-0.2c-0.5,0-0.8-0.2-1.1-0.3c0,0.7-0.8,1-1.1,1.4c-0.3-0.2-0.3-0.4-0.2-0.7c0.1-0.2,0.3-0.4,0.1-0.8
			c0.1,0.2-0.2,0.4-0.4,0.7c-0.2,0.2-0.4,0.3-0.3,0.5c-0.5-0.3-0.4-0.1-0.8-0.7c0.1,0.9-0.4,0.2-0.8,0.9c-0.4-0.1-0.4-0.3-0.5-0.4
			l-0.1-0.1C156.5,146.2,156.4,146.3,156.2,146.5c-0.1-0.2,0-0.3,0-0.4C156,146.6,156.1,146.6,156.2,146.5L156.2,146.5z
			 M139.7,155.9L139.7,155.9c0.1-0.1,0.2-0.2,0.2-0.3C139.9,155.6,139.9,155.7,139.7,155.9z M138.6,157.1c0.1-0.1,0.3-0.3,0.5-0.4
			c0.1,0.1,0.2,0.2,0.1,0.3c0-0.1-0.1-0.1-0.2,0C139,156.9,138.7,156.9,138.6,157.1z M143.2,157.4c-0.1,0.2-0.2,0.2-0.3,0.1
			c0.1-0.1,0.1-0.2,0.2-0.3c0,0,0,0,0-0.1C143.2,157.3,143.2,157.3,143.2,157.4z"/>
		<path class="st8" d="M143.1,156.6C143.2,156.6,143.2,156.6,143.1,156.6c0-0.1-0.1-0.1-0.1-0.1C143,156.6,143,156.6,143.1,156.6
			C143.1,156.7,143.1,156.6,143.1,156.6z"/>
		<path class="st8" d="M194.2,158L194.2,158C194.3,158,194.3,158,194.2,158C194.3,158,194.3,158,194.2,158z"/>
		<polygon class="st8" points="131.6,177.7 131.7,177.5 131.6,177.4 		"/>
		<path class="st8" d="M190,150.7c0,0,0-0.1,0-0.2C190,150.5,190,150.6,190,150.7z"/>
		<path class="st8" d="M187,148.3l-0.3-0.4C186.8,148.1,186.9,148.2,187,148.3z"/>
		<path class="st8" d="M184.7,146.6c-0.1,0.1-0.1,0.1-0.1,0.1l0,0L184.7,146.6z"/>
		<path class="st8" d="M200.2,186.5v0.1C200.1,186.9,200.2,186.7,200.2,186.5z"/>
		<path class="st8" d="M200.8,172.9c0.1,0.1,0.2,0.2,0.2,0.4C201.1,173.1,201.1,172.9,200.8,172.9z"/>
		<path class="st8" d="M192,200L192,200C191.9,200,191.9,200,192,200L192,200z"/>
		<path class="st8" d="M201.1,173.9c0.1-0.2,0.1-0.4,0-0.7C201,173.5,201,173.7,201.1,173.9z"/>
		<path class="st8" d="M173.1,142.2H173v0.1L173.1,142.2z"/>
		<path class="st8" d="M172.9,142.2h-0.1H172.9z"/>
		<path class="st8" d="M172.3,142.3c0,0,0.1,0,0.2,0h0.1l0,0C172.6,142.2,172.4,142.2,172.3,142.3z"/>
		<path class="st8" d="M176.8,143.2l0.1-0.1C176.8,143.1,176.8,143.1,176.8,143.2z"/>
		<path class="st8" d="M177.9,143.5c-0.2-0.1-0.5-0.5-1-0.5l-0.1,0.1c0.1-0.1,0.3,0.1,0.4,0.2C177.5,143.4,177.8,143.6,177.9,143.5z
			"/>
		<path class="st8" d="M181.5,147.2c0,0-0.2-0.1-0.4-0.2c-0.1-0.1-0.2-0.1-0.2-0.2c-0.1,0-0.1-0.1-0.1-0.1c0.1,0.2,0.1,0.5-0.2,0.4
			c0.2,0.2,0.3,0.3,0.3,0.3s0-0.1,0.1-0.1C180.9,147.1,180.9,146.9,181.5,147.2z"/>
		<path class="st8" d="M183.9,148.8c-0.4-0.2-0.1,0.2-0.2,0.3C184,149.1,184.1,149.1,183.9,148.8z"/>
		<path class="st8" d="M196.8,163.9l-0.4,0.1C196.6,164.4,196.6,163.9,196.8,163.9z"/>
		<polygon class="st8" points="200.3,167 200.4,166.5 200,166.4 		"/>
		<polygon class="st8" points="197.7,169.9 197.6,169.8 197.8,170.4 		"/>
		<path class="st8" d="M186.3,198.7l0.3,0.4c0.1-0.1,0.1-0.3,0-0.4c0-0.1-0.1-0.1-0.1-0.1C186.4,198.6,186.3,198.6,186.3,198.7z"/>
		<path class="st8" d="M172.2,201.3c-0.1-0.3-0.5-0.4-0.9-0.2C171.7,201.1,172,201.3,172.2,201.3z"/>
		<polygon class="st8" points="136.9,180.4 137.1,180.6 136.8,180.1 		"/>
	</g>
</g>
<path class="st9" d="M112.4,188.2c-1.4,0.3-34.6,28-80.5,36.3l34.9-60.7L112.4,188.2z"/>
<path class="st10" d="M27.7,188.4l25.1-28c0,0,2.1-2.1,5-3.8c3.1-1.9,6.6-2.6,10.2-2l46.5,7.5l-20.8,14.9l-23-4.9
	c0,0-3.2-0.7-6.1,5.6l-9.3,15.8c-3.3,5.6-2.6,12.5,1.6,17.3c0.8,0.9,1.6,1.6,2.6,2.3l-29.8,13.6L24.5,206
	C24.5,206,21.4,195.6,27.7,188.4z"/>
<polygon class="st11" points="60.6,295.1 42.7,327.3 0,327.3 0,283.7 9.3,266.8 33.1,280 60.5,295 "/>
<polygon class="st12" points="60.5,295 42.6,327.3 7,327.3 33.1,280 "/>
<path class="st13" d="M116.9,160.8c0,0,19.7-2.3,20.2-1.5s-13.8,16.2-13.8,16.2l-4.7-6L116.9,160.8z"/>
<path class="st14" d="M117.1,160.8l-85.8,37.1l6.2,14.3l85.8-36.6c0,0,0.8-2.4-1.3-2.8c0,0,1.3-2.1-1.3-2.8c0,0,1.2-2-1.3-3.3
	c0,0,1.2-2-1-2.7C118.3,163.7,119.3,162.3,117.1,160.8z"/>
<path class="st10" d="M76.1,208.4c2-1.5,9.2-8.3,13-16.1l8.2-15.9c0,0,2.9-5.2,9.2-4.8c0.3,0,0.5,0.1,0.9,0.1c1.6,0.4,7,2.3,8.8,7.8
	c0.2,0.7,0.3,1.3,0.2,2c-0.2,1.4-1,4.4-3.7,9.4l-21.9,43.5c0,0-6,10.7-12.2,16.8c-0.1,0.1-0.2,0.2-0.2,0.3c-0.9,1-5.7,6.6-8.6,8.8
	c-0.4,0.3-0.9,0.9-1.2,1.3l-3.6,6.4c-0.1,0.1-0.2,0.1-0.3,0.1l-34.2-19l2.1-3.8c0.5-0.9,0.7-2,0.4-2.9l-3.3-15.5l27.7-12.6
	c0.7-0.3,1.4-0.7,2.1-1C60.1,213,62.9,219,76.1,208.4z"/>
<path class="st15" d="M21.9,201.7l12-5.1l6.1,14.3L28,216c-4.4,1.9-9.3,0.1-10.9-3.8l0,0C15.5,208.3,17.7,203.6,21.9,201.7z"/>
<path class="st16" d="M8.6,269.4l50.2,27.7c3.3,1.7,7.4,0.7,9.2-2.6l8.7-15.7c1.7-3.3,0.7-7.4-2.6-9.2L23.9,242
	c-3.3-1.7-7.4-0.7-9.2,2.6L6,260.3C4.1,263.5,5.3,267.6,8.6,269.4z"/>
<path class="st17" d="M129.4,159.7c0,0,7.5-0.9,7.6-0.4c0.2,0.5-4.8,6-4.8,6L129.4,159.7z"/>
</svg>
