<?xml version="1.0" encoding="utf-8"?>
<!-- Generator: Adobe Illustrator 22.0.0, SVG Export Plug-In . SVG Version: 6.00 Build 0)  -->
<svg version="1.1" id="Capa_1" xmlns="http://www.w3.org/2000/svg" xmlns:xlink="http://www.w3.org/1999/xlink" x="0px" y="0px"
	 viewBox="0 0 200 200" style="enable-background:new 0 0 200 200;" xml:space="preserve">
<style type="text/css">
	.st0{fill:#55C655;}
	.st1{fill:#F5B041;}
</style>
<path class="st0" d="M120.7,111.8c0.7-2,1.2-4,1.6-6c-4.4-0.1-8.9-0.1-13.4,0c-0.2,2-0.3,4.1-0.2,6.1
	C112.8,112,116.7,112.1,120.7,111.8z"/>
<path class="st0" d="M124,97.4c1.6-1.7,1.6-4.7,2.1-6.9c-5.4,0-10.8-0.2-16.1,0.1c-0.4,2.4-0.5,4.7-0.3,7
	C114.4,97.5,119.3,97.7,124,97.4z"/>
<rect x="46.6" y="63.4" class="st1" width="23.5" height="9.1"/>
<path class="st0" d="M83.4,90.5c-0.1,2.3,0.1,4.6,0.4,6.8c5.8,0.3,11.8,0.7,17.6-0.2c0.3-2.1,0.4-4.2,0.4-6.4
	C95.7,90,89.5,90.5,83.4,90.5z"/>
<path class="st0" d="M128.3,82.3c1-2.5,1.6-5.1,2-7.7c-6.4-0.1-12.9-0.1-19.2,0c-0.2,2.5-1,5.3-0.2,7.7
	C116.7,82.4,122.5,82.5,128.3,82.3z"/>
<path class="st0" d="M61.5,105.7c0.3,2.1,0.8,4.1,1.6,6.1c4.5,0.1,9,0.1,13.5,0c0.1-2-0.1-4.1-0.5-6.1
	C71.1,105.7,66.3,105.7,61.5,105.7z"/>
<path class="st0" d="M104,9.5c-48.6,0-88,39.4-88,88c0,48.6,39.4,88,88,88c48.6,0,88-39.4,88-88C192,48.9,152.6,9.5,104,9.5z
	 M88.8,66.5c15.5,0,30.9,0,46.4,0c3-0.4,5.3,2.9,4.2,5.6c-4,15-7.8,30-11.8,45c-0.4,2.3-2.8,3.2-4.9,3c-20.7,0-41.4,0-62.1,0
	c-2.1,0.1-4.4-1.1-4.8-3.4c-1.8-6.8-3.5-13.6-5.2-20.5c2.4,0.6,4.9,0.9,7.5,0.9c0.4,0,0.8,0,1.2,0c0,0.1,0,0.1,0.1,0.2
	c5.4,0.5,10.8,0.2,16.2,0.1c0.1-1.9,0-3.7-0.3-5.5c3.7-2.5,6.8-5.8,9.2-9.6c6,0.1,11.9,0.1,17.9-0.1c0.2-2.5,0.4-5.1,0.4-7.6
	c-5-0.1-10-0.1-15-0.1C88.4,72,88.8,69.3,88.8,66.5z M31.9,67.9c0-14.6,11.8-26.4,26.4-26.4c14.6,0,26.4,11.8,26.4,26.4
	c0,14.6-11.8,26.4-26.4,26.4C43.8,94.4,31.9,82.5,31.9,67.9z M73,153.3c-4.8,1-10-2.4-11.1-7.2c-1.3-4.7,1.8-9.9,6.4-11.4
	c5.1-2,11.3,1.6,12.3,6.9C81.9,146.8,78.2,152.4,73,153.3z M119,153.4c-5.5,0.1-10.5-5.5-9.5-11c0.4-3.9,3.7-7.2,7.5-8
	c5.5-1.5,11.5,3.3,11.6,8.9C128.9,148.6,124.3,153.6,119,153.4z M173.5,69.1c-6.7,0.7-13.6-0.2-20.3,0.4
	c-5.5,19.4-10.7,38.9-16,58.4c-0.4,2.3-2.6,4-4.9,3.7c-26-0.1-52,0.1-78-0.1c-5,0.1-5.2-8-0.1-8.1c25.3-0.2,50.5,0.1,75.8-0.1
	c5.8-19.6,10.7-39.5,16.3-59.1c0.4-1.6,2-3,3.8-2.8c7.6-0.1,15.2-0.1,22.8,0C176.7,61.8,177.3,68,173.5,69.1z"/>
<path class="st0" d="M84.4,105.7c-0.1,2.1,0,4.1,0.5,6.1c5.1,0.1,10.2,0.1,15.3,0.1c0.1-2,1-4.4,0.1-6.1
	C95.1,105.7,89.7,105.7,84.4,105.7z"/>
</svg>
