<?xml version="1.0" encoding="utf-8"?>
<!-- Generator: Adobe Illustrator 22.0.0, SVG Export Plug-In . SVG Version: 6.00 Build 0)  -->
<svg version="1.1" id="Capa_1" xmlns="http://www.w3.org/2000/svg" xmlns:xlink="http://www.w3.org/1999/xlink" x="0px" y="0px"
	 viewBox="0 0 200 200" style="enable-background:new 0 0 200 200;" xml:space="preserve">
<style type="text/css">
	.st0{fill:#EFCB32;}
	.st1{fill:#DB882E;}
	.st2{fill:#FFFFFF;}
	.st3{fill:#DF9B4D;}
	.st4{fill:#DD9A5B;}
	.st5{fill:#E8B47C;}
	.st6{fill:#55C655;}
	.st7{fill:#D77A44;}
	.st8{fill:#B3C8C4;}
	.st9{fill:#F5B041;}
</style>
<path class="st0" d="M101.1,158c0,7.9-6.4,14.3-14.3,14.3c-7.9,0-14.3-6.4-14.3-14.3c0-7.9,6.4-14.3,14.3-14.3
	C94.7,143.7,101.1,150.1,101.1,158z"/>
<path class="st1" d="M98.5,158c0,6.4-5.2,11.7-11.7,11.7c-6.4,0-11.7-5.2-11.7-11.7c0-6.4,5.2-11.7,11.7-11.7
	C93.3,146.3,98.5,151.5,98.5,158z"/>
<path class="st0" d="M95.7,158c0,4.9-4,8.9-8.9,8.9c-4.9,0-8.9-4-8.9-8.9c0-4.9,4-8.9,8.9-8.9C91.7,149.1,95.7,153.1,95.7,158z"/>
<rect x="76.6" y="149.3" transform="matrix(0.7069 -0.7073 0.7073 0.7069 -83.7039 99.3031)" class="st2" width="2.8" height="2.8"/>
<path class="st3" d="M105,73.7c-0.6,20.2,0.7,25.8-7,25.8V69.2l17.8-13.9L105,73.7z"/>
<path class="st4" d="M98.8,177.5l32.3-14c12.1-5.7,13.8,2.6,4.8,7.4c-9.9,5.3-29.4,13.7-29.4,13.7l-7.6-2.1V177.5z"/>
<g>
	<g>
		<path class="st5" d="M98.8,196c-11.1-1.3-54.5-8.9-55.6-8.9l-5.5,0v-25.7l6.7-0.1c11.7-3.1,15-7.9,31-5.3
			c4.3,0.7,26.3,1.9,37.4,3.3c7.4,0.9,9.3,9.9-6.3,10.5c-16.5,0.6-24.1,0.9-24.1,0.9s15,6.2,19.9,8l35.5-12.7
			c9.8-4.6,11.3,3.8,4.8,7.4C137,176.6,117.5,187.9,98.8,196z"/>
	</g>
</g>
<rect x="24.3" y="157.9" width="18.6" height="31.8"/>
<rect x="10" y="156" class="st6" width="28.4" height="35.7"/>
<path class="st7" d="M106.5,161.3v5.5c4,2,10,0.3,10-2.8C116.5,161,110.5,159.3,106.5,161.3z"/>
<path class="st8" d="M31.9,164.6c0,1.7-1.4,3.1-3.1,3.1c-1.7,0-3.1-1.4-3.1-3.1c0-1.7,1.4-3.1,3.1-3.1
	C30.6,161.5,31.9,162.9,31.9,164.6z"/>
<path class="st5" d="M168.5,42.4l-13.6,12.8c-3.5,12.8-16.3,20.1-16.3,20.1c-12.8,2.3-27.1,12.4-27.1,12.4c-0.7,1.4-1.3,2.8-1.9,4.1
	c-0.9,1.9-2.9,6.6-5.3,5.9c-3.3-1-3.5-12.4,0.2-19.2l13.9-10.1c0.7-9.5-1.3-17.9-16.3,3.5l-1.2,21.7c0,4.5-3.3,7.5-5.7,7
	c-1.2-0.2-2.2-1.3-2.4-3.5c-0.5-6.3-0.1-0.9-1.9-26.3c13.4-30.5,13-27,38.7-35.1l22.1-13L168.5,42.4z"/>
<path class="st0" d="M101.1,119.9c0,7.9-6.4,14.3-14.3,14.3c-7.9,0-14.3-6.4-14.3-14.3c0-7.9,6.4-14.3,14.3-14.3
	C94.7,105.6,101.1,112,101.1,119.9z"/>
<ellipse transform="matrix(3.618429e-02 -0.9993 0.9993 3.618429e-02 -36.1831 202.2543)" class="st1" cx="86.8" cy="119.9" rx="11.7" ry="11.7"/>
<path class="st0" d="M95.6,119.9c0,4.9-4,8.9-8.9,8.9c-4.9,0-8.9-4-8.9-8.9c0-4.9,4-8.9,8.9-8.9C91.7,111,95.6,115,95.6,119.9z"/>
<rect x="76.5" y="111.2" transform="matrix(0.7071 -0.7071 0.7071 0.7071 -56.7747 88.0401)" class="st2" width="2.8" height="2.8"/>
<path class="st0" d="M129.2,134.2c0,7.9-6.4,14.3-14.3,14.3c-7.9,0-14.3-6.4-14.3-14.3c0-7.9,6.4-14.3,14.3-14.3
	C122.8,119.9,129.2,126.3,129.2,134.2z"/>
<path class="st1" d="M126.5,134.2c0,6.4-5.2,11.7-11.7,11.7c-6.4,0-11.7-5.2-11.7-11.7c0-6.4,5.2-11.7,11.7-11.7
	C121.3,122.5,126.5,127.8,126.5,134.2z"/>
<path class="st0" d="M123.7,134.2c0,4.9-4,8.9-8.9,8.9c-4.9,0-8.9-4-8.9-8.9c0-4.9,4-8.9,8.9-8.9
	C119.8,125.3,123.7,129.3,123.7,134.2z"/>
<rect x="104.6" y="125.5" transform="matrix(0.7073 -0.7069 0.7069 0.7073 -58.6545 112.0583)" class="st2" width="2.8" height="2.8"/>
<path class="st7" d="M109.7,91.8c-1,2.3-2,4.2-3.2,5.2c-0.8,0.7-1.5,0.9-2.2,0.7c0.1-0.5,0.2-1,0.3-1.5c0.6-2.3,1.9-4.1,3.3-4.9
	C108.5,91.4,109,91.6,109.7,91.8z"/>
<path class="st7" d="M95.8,97.7c0,1-0.2,2-0.4,2.8c-1.2-0.2-2.2-1.3-2.4-3.5l-0.3-4.7c0.1,0,0.2,0,0.3,0
	C94.5,92.4,95.8,94.8,95.8,97.7z"/>
<rect x="148.5" y="17.1" transform="matrix(0.7522 -0.659 0.659 0.7522 17.3885 112.1873)" width="18.6" height="31.8"/>
<rect x="150.7" y="8.9" transform="matrix(0.7521 -0.659 0.659 0.7521 23.2319 115.3166)" class="st9" width="28.4" height="35.7"/>
<path class="st8" d="M174.3,31.6c-1.1-1.3-1-3.2,0.3-4.3c1.3-1.1,3.2-1,4.3,0.3c1.1,1.3,1,3.2-0.3,4.3
	C177.4,33,175.4,32.9,174.3,31.6z"/>
</svg>
