<?xml version="1.0" encoding="utf-8"?>
<!-- Generator: Adobe Illustrator 22.0.0, SVG Export Plug-In . SVG Version: 6.00 Build 0)  -->
<svg version="1.1" id="Capa_1" xmlns="http://www.w3.org/2000/svg" xmlns:xlink="http://www.w3.org/1999/xlink" x="0px" y="0px"
	 viewBox="0 0 200 200" style="enable-background:new 0 0 200 200;" xml:space="preserve">
<style type="text/css">
	.st0{fill:#E3E9EC;}
	.st1{fill:#EFEFEF;}
	.st2{fill:#55C655;}
	.st3{fill:#FFFFFF;}
	.st4{font-family:'Roboto-Bold';}
	.st5{font-size:11.3657px;}
	.st6{clip-path:url(#SVGID_2_);}
	.st7{fill:#F6A084;}
	.st8{fill:#F8B8A3;}
	.st9{fill:#19475E;}
	.st10{fill:#8F503C;}
	.st11{fill:#E5E5E5;}
	.st12{fill:#3B6376;}
	.st13{fill:#EB7379;}
	.st14{fill:#E55058;}
	.st15{fill:#F5B041;}
	.st16{fill:#AEBFC7;}
	.st17{opacity:0.2;fill:#EFEFEF;}
</style>
<path class="st0" d="M50.3,163h101.3c-15.2-14.4-41.2-33-52-31.4c-12.7,1.9-39.7,22.7-46.7,28.9C51.9,161.4,51.1,162.2,50.3,163z"/>
<path class="st1" d="M181,160.6H20c-9.4,0-17-7.6-17-17V55.1c0-9.4,7.6-17,17-17h161c9.4,0,17,7.6,17,17v88.5
	C198,153,190.4,160.6,181,160.6z"/>
<path class="st2" d="M198,64.6V51.9c0-7.6-6.2-13.7-13.7-13.7H16.7C9.2,38.2,3,44.3,3,51.9v12.7H198z"/>
<text transform="matrix(1 0 0 1 169.998 56.6196)" class="st3 st4 st5">DNI</text>
<g>
	<rect x="18.4" y="80" class="st2" width="55.6" height="63.7"/>
	<g>
		<defs>
			<rect id="SVGID_1_" x="18.4" y="80" width="55.6" height="63.7"/>
		</defs>
		<clipPath id="SVGID_2_">
			<use xlink:href="#SVGID_1_"  style="overflow:visible;"/>
		</clipPath>
		<g class="st6">
			<g>
				<g>
					<ellipse class="st7" cx="30.6" cy="106.1" rx="3.3" ry="3.5"/>
					<ellipse class="st7" cx="60.2" cy="106.1" rx="3.3" ry="3.5"/>
				</g>
				<path class="st7" d="M45.7,135.5L45.7,135.5c-3.4,0-6.1-2.8-6.1-6.1v-13.2c0-3.4,2.8-6.1,6.1-6.1l0,0c3.4,0,6.1,2.8,6.1,6.1
					v13.2C51.8,132.8,49.1,135.5,45.7,135.5z"/>
				<path class="st8" d="M45.4,121.3L45.4,121.3c-7.6,0-13.8-6.2-13.8-13.8v-8.8c0-7.6,6.2-13.8,13.8-13.8l0,0
					c7.6,0,13.8,6.2,13.8,13.8v8.8C59.2,115.1,53,121.3,45.4,121.3z"/>
				<path class="st1" d="M35.4,108.4c0.2,4.6,4.6,8.2,10,8.2s9.8-3.6,10-8.2H35.4z"/>
				<g>
					<ellipse class="st9" cx="40.4" cy="102.3" rx="2" ry="2.8"/>
					<path class="st3" d="M40.6,101.2c0,0.5-0.3,0.9-0.6,0.9c-0.3,0-0.6-0.4-0.6-0.9c0-0.5,0.3-0.9,0.6-0.9
						C40.3,100.4,40.6,100.8,40.6,101.2z"/>
				</g>
				<g>
					<ellipse class="st9" cx="50.3" cy="102.3" rx="2" ry="2.8"/>
					<path class="st3" d="M50.5,101.2c0,0.5-0.3,0.9-0.6,0.9c-0.3,0-0.6-0.4-0.6-0.9c0-0.5,0.3-0.9,0.6-0.9
						C50.3,100.4,50.5,100.8,50.5,101.2z"/>
				</g>
				<path class="st10" d="M31.6,103.1c1.5-1.3,2-3.8,2-5.7c0-1.2-0.1-3.2-0.6-4.3c6.2,2.3,15.1,1.6,21.1-1.5c0.9-0.4,1.8-1,2.6-1.4
					C56.2,93,56,96.3,57,99c0.4,1.2,1.3,3.2,2.3,4c3.2-6.6-0.5-15.6-7-18.6c-8.5-3.9-18.8,0.4-21.1,9.6
					C30.4,97.1,30.7,100.9,31.6,103.1z"/>
			</g>
			<path class="st11" d="M69,136.8c-0.2-3.1-2.8-5.3-4.5-6.3c-4.2-2.4-12.6-6.9-12.6-6.9l-6.3,6.6l-6.3-6.6c0,0-8.4,4.6-12.6,6.9
				c-1.7,0.9-4.2,3.2-4.5,6.3C22,142,21.9,147,21.9,147h21.9h3.8h21.9C69.4,147,69.4,142,69,136.8z"/>
			<path class="st9" d="M26.8,130.6c-1.7,0.9-4.2,3.2-4.5,6.3C22,142,21.9,147,21.9,147h19.1c-1.8-7-3.9-14.1-5.2-21.4
				C33,127.1,29.2,129.2,26.8,130.6z"/>
			<path class="st12" d="M35.8,125.6c-1.1,0.6-2.3,1.3-3.5,1.9l-0.8,10.9l4.5,1l-2.8,2.3l2.4,5.3h5.5
				C39.2,140,37.2,132.9,35.8,125.6z"/>
			<path class="st9" d="M64.6,130.6c1.7,0.9,4.2,3.2,4.5,6.3c0.3,5.1,0.4,10.2,0.4,10.2H50.3c1.8-7,3.9-14.1,5.2-21.4
				C58.3,127.1,62.1,129.2,64.6,130.6z"/>
			<polygon class="st13" points="48.8,147.8 42.7,147.8 44.2,133.5 47.2,133.5 			"/>
			<path class="st12" d="M55.5,125.6c1.1,0.6,2.3,1.3,3.5,1.9l0.8,10.9l-4.5,1l2.8,2.3l-2.4,5.3h-5.5
				C52.1,140,54.2,132.9,55.5,125.6z"/>
			<ellipse class="st14" cx="45.7" cy="133.2" rx="3" ry="3.3"/>
			<polygon class="st3" points="39.2,122.9 36.7,125 40.6,136.3 45.7,130 			"/>
			<polygon class="st3" points="52.1,122.9 54.7,125 50.8,136.3 45.6,130 			"/>
		</g>
	</g>
</g>
<rect x="84.9" y="80" class="st15" width="99" height="10.8"/>
<g>
	<rect x="97.6" y="131" class="st9" width="1.2" height="12.7"/>
	<rect x="103.2" y="131" class="st9" width="0.6" height="12.7"/>
	<rect x="134.1" y="131" class="st9" width="1.3" height="12.7"/>
	<rect x="142.2" y="131" class="st9" width="1.3" height="12.7"/>
	<rect x="105.2" y="131" class="st9" width="0.5" height="12.7"/>
	<rect x="132.2" y="131" class="st9" width="0.5" height="12.7"/>
	<rect x="144.6" y="131" class="st9" width="0.5" height="12.7"/>
	<rect x="167.7" y="131" class="st9" width="0.5" height="12.7"/>
	<rect x="155.8" y="131" class="st9" width="0.5" height="12.7"/>
	<rect x="160.4" y="131" class="st9" width="0.5" height="12.7"/>
	<rect x="117.6" y="131" class="st9" width="0.5" height="12.7"/>
	<rect x="130.1" y="131" class="st9" width="0.7" height="12.7"/>
	<rect x="100.5" y="131" class="st9" width="2" height="12.7"/>
	<rect x="123.8" y="131" class="st9" width="2" height="12.7"/>
	<rect x="127" y="131" class="st9" width="2.3" height="12.7"/>
	<rect x="152.4" y="131" class="st9" width="2.6" height="12.7"/>
	<rect x="162.2" y="131" class="st9" width="3.9" height="12.7"/>
	<rect x="156.7" y="131" class="st9" width="1.9" height="12.7"/>
	<rect x="136.6" y="131" class="st9" width="3.7" height="12.7"/>
	<rect x="111" y="131" class="st9" width="4.4" height="12.7"/>
	<rect x="107.1" y="131" class="st9" width="1.4" height="12.7"/>
	<rect x="119.5" y="131" class="st9" width="1.4" height="12.7"/>
	<rect x="146.6" y="131" class="st9" width="1.4" height="12.7"/>
	<rect x="169.8" y="131" class="st9" width="1.4" height="12.7"/>
	<rect x="148.9" y="131" class="st9" width="1.4" height="12.7"/>
</g>
<rect x="93.8" y="100.2" class="st16" width="65.2" height="5.8"/>
<rect x="93.8" y="112.3" class="st16" width="65.2" height="5.8"/>
<path class="st17" d="M6.2,149.7V54.7c0-7.1,5.8-12.9,12.9-12.9h167.5c3.3,0,6.2,1.2,8.5,3.2c-2.3-3.6-6.3-6-10.9-6H16.7
	C9.6,39,3.8,44.8,3.8,51.9v94.9c0,3.9,1.7,7.4,4.4,9.7C7,154.6,6.2,152.2,6.2,149.7z"/>
<path class="st11" d="M191.6,40.3c2,2.4,3.2,5.4,3.2,8.8V144c0,7.6-6.2,13.7-13.7,13.7H13.5c-2.7,0-5.2-0.8-7.3-2.1
	c2.5,3,6.3,5,10.6,5h167.5c7.6,0,13.7-6.2,13.7-13.7V51.9C198,47,195.4,42.7,191.6,40.3z"/>
</svg>
