<?xml version="1.0" encoding="utf-8"?>
<!-- Generator: Adobe Illustrator 22.0.0, SVG Export Plug-In . SVG Version: 6.00 Build 0)  -->
<svg version="1.1" id="Capa_1" xmlns="http://www.w3.org/2000/svg" xmlns:xlink="http://www.w3.org/1999/xlink" x="0px" y="0px"
	 viewBox="0 0 320 359.1" style="enable-background:new 0 0 320 359.1;" xml:space="preserve">
<style type="text/css">
	.st0{fill:#E0E0E0;}
	.st1{fill:#F0F0F0;}
	.st2{fill:#F5F5F5;}
	.st3{fill:#FFFFFF;}
	.st4{fill:#EBEBEB;}
	.st5{fill:#263238;}
	.st6{fill:#455A64;}
	.st7{fill:#E6E6E6;}
	.st8{fill:#55C655;}
	.st9{fill:#E5BAAB;}
	.st10{fill:#FF9D00;}
	.st11{fill:#D78776;}
	.st12{fill:#FF725E;}
	.st13{opacity:0.2;fill:#55C655;enable-background:new    ;}
	.st14{opacity:0.2;fill:none;stroke:#FF9D00;stroke-miterlimit:10;enable-background:new    ;}
</style>
<g id="freepik--background-complete--inject-17">
	<rect x="84" y="302" class="st0" width="35.4" height="46.7"/>
	<rect x="102.9" y="302" class="st1" width="16.6" height="46.7"/>
	<rect x="91.4" y="308.3" class="st2" width="3.2" height="7.7"/>
	<rect x="91.4" y="338.6" class="st2" width="3.2" height="7.7"/>
	<path class="st3" d="M102.9,319.1c0,0.1-4.2,0.1-9.4,0.1s-9.4-0.1-9.4-0.1c0-0.1,4.2-0.1,9.4-0.1S102.9,319,102.9,319.1z"/>
	<rect x="91.4" y="323.6" class="st2" width="3.2" height="7.7"/>
	<path class="st3" d="M102.9,334.3c0,0.1-4.2,0.1-9.4,0.1s-9.4-0.1-9.4-0.1c0-0.1,4.2-0.1,9.4-0.1S102.9,334.3,102.9,334.3z"/>
	<rect x="106.4" y="308.3" class="st0" width="3.2" height="7.7"/>
	<rect x="113.3" y="308.3" class="st0" width="3.2" height="7.7"/>
	<rect x="106.4" y="323" class="st0" width="3.2" height="7.7"/>
	<rect x="113.3" y="323" class="st0" width="3.2" height="7.7"/>
	<rect x="106.4" y="337.7" class="st0" width="3.2" height="7.7"/>
	<rect x="113.3" y="337.7" class="st0" width="3.2" height="7.7"/>
	<rect x="81.4" y="300.4" class="st0" width="40.8" height="1.7"/>
	<path class="st3" d="M119.7,302.2c0,0.1-7.9,0.1-17.7,0.1s-17.6-0.1-17.6-0.1s7.9-0.1,17.7-0.1S119.7,302.2,119.7,302.2z"/>
	<rect x="231.2" y="314.8" class="st0" width="25.5" height="33.6"/>
	<rect x="244.7" y="314.8" class="st1" width="11.9" height="33.6"/>
	<rect x="236.6" y="319.4" class="st2" width="2.3" height="5.6"/>
	<rect x="236.6" y="341.2" class="st2" width="2.3" height="5.6"/>
	<path class="st3" d="M244.7,327.1c0,0.1-3,0.1-6.8,0.1c-3.7,0-6.8-0.1-6.8-0.1s3-0.1,6.8-0.1C241.8,327,244.7,327.1,244.7,327.1z"
		/>
	<rect x="236.6" y="330.3" class="st2" width="2.3" height="5.6"/>
	<path class="st3" d="M244.7,338.1c0,0.1-3,0.1-6.8,0.1c-3.7,0-6.8-0.1-6.8-0.1c0-0.1,3-0.1,6.8-0.1
		C241.8,338,244.7,338.1,244.7,338.1z"/>
	<rect x="247.3" y="319.4" class="st0" width="2.3" height="5.6"/>
	<rect x="252.3" y="319.4" class="st0" width="2.3" height="5.6"/>
	<rect x="247.3" y="330" class="st0" width="2.3" height="5.6"/>
	<rect x="252.3" y="330" class="st0" width="2.3" height="5.6"/>
	<rect x="247.3" y="340.5" class="st0" width="2.3" height="5.6"/>
	<rect x="252.3" y="340.5" class="st0" width="2.3" height="5.6"/>
	<rect x="229.3" y="313.7" class="st0" width="29.3" height="1.2"/>
	<path class="st3" d="M256.9,315c0,0.1-5.7,0.1-12.7,0.1c-7,0-12.7-0.1-12.7-0.1c0-0.1,5.7-0.1,12.7-0.1
		C251.2,314.9,256.9,314.9,256.9,315z"/>
	<path class="st0" d="M78.2,223.2h26.1c0,0,0-6-3.1-6c-2.3-0.1-4.3,1.5-4.8,3.7c0,0,0-11.1-5.6-9.5c-5.3,1.5-5.9,8.7-5.9,8.7
		s-1-3.6-3.8-1.6C78.2,220.6,78.2,223.2,78.2,223.2z"/>
	<path class="st4" d="M216.1,173.4H233c0,0,0-3.9-2-3.9c-1.5-0.1-2.8,1-3.1,2.4c0,0,0-7.2-3.7-6.1c-3.5,1-3.8,5.6-3.8,5.6
		s-0.6-2.3-2.5-1C216.1,171.7,216.1,173.4,216.1,173.4z"/>
	<path class="st0" d="M250.4,248.1h16.9c0,0,0-3.9-2-3.9c-1.5-0.1-2.8,1-3.1,2.4c0,0,0-7.2-3.7-6.1c-3.5,1-3.8,5.7-3.8,5.7
		s-0.6-2.3-2.5-1C250.4,246.4,250.4,248.1,250.4,248.1z"/>
</g>
<g id="freepik--Floor--inject-17">
	<path class="st5" d="M269.2,348.7c0,0.1-43.1,0.1-96.3,0.1s-96.3-0.1-96.3-0.1c0-0.1,43.1-0.1,96.3-0.1S269.2,348.6,269.2,348.7z"
		/>
</g>
<polygon class="st6" points="237.1,177.4 171.1,177.4 171.1,181.8 232.7,181.8 232.7,335.7 171.1,335.7 171.1,340.1 237.1,340.1 "/>
<polygon class="st3" points="171.1,181.8 171.1,186.2 171.1,331.2 171.1,335.7 232.7,335.7 232.7,181.8 "/>
<polygon class="st5" points="106.2,335.7 106.2,181.8 171.1,181.8 171.1,177.4 101.7,177.4 101.7,340.1 171.1,340.1 171.1,335.7 "/>
<polygon class="st2" points="106.2,181.8 106.2,335.7 171.1,335.7 171.1,331.2 171.1,186.2 171.1,181.8 "/>
<path class="st2" d="M218.1,186.5c1.2,0.4,2.3,0.8,3.5,1.3v-6h-37h0.7C194.9,182.1,207.5,182.9,218.1,186.5z"/>
<path class="st2" d="M227.6,181.8v8.6c1.7,0.8,3.3,1.6,5,2.5v-9c-1.6-0.7-3.2-1.5-4.9-2.1H227.6z"/>
<path class="st2" d="M125.1,315.4c3.3-1.2,6.4-2.6,9.4-4.4l-20-14.4c-3,1.4-6.1,2.9-8.4,4.5v12.2
	C110.9,316.6,118.7,317.5,125.1,315.4z"/>
<path class="st2" d="M159.5,279.2c-0.5-2.9-0.5-5.9-0.1-8.8l-9.7-2.3c-4.6-1.1-9.6,0.8-10.8,4c-2.7,8-9.9,15.9-18.4,21.3
	c-1.2,0.7-2.5,1.5-3.8,2.1l9.5,6.8l33.9-20.6C159.9,280.9,159.7,280,159.5,279.2z"/>
<path class="st2" d="M166.8,292.7c-2.6-2.6-4.6-5.6-6-9l-32.7,19.9l8.4,6c3.2-2,6.1-4.2,9.4-6.3
	C152.4,299.1,159.4,295.5,166.8,292.7z"/>
<path class="st2" d="M200,280.1l-38-9.1c-0.4,2.7-0.3,5.4,0.1,8c0.9,4.9,3.3,9.4,6.9,12.9c9.9-3.6,20.1-6.1,30.5-7.5
	C202.9,283.9,203.1,280.8,200,280.1z"/>
<path class="st2" d="M123,265.4l1.5-8.5l0.1-0.8c-0.2-0.5-0.5-0.9-0.7-1.3c-2.1,0.5-4.4,0.5-6.6,0.7c-2.2,0.2-4.5,1-5.2,2.4
	c-0.5,0.9-0.2,1.8,0.1,2.7c0.4,1.4,0.8,2.8,1.2,4.2c0.3,1.2,0.7,2.4,1.6,3.4c1.2,1.2,2.9,1.6,4.4,1.4c1.2-0.2,2.1-0.8,2.8-1.8
	C122.6,267.1,122.9,266.3,123,265.4z"/>
<polygon class="st7" points="204,248 227.8,255.1 232.7,251.7 232.7,241.9 216.8,237.1 "/>
<polygon class="st7" points="219.6,234.8 232.7,238.7 232.7,228.5 227.6,227.9 "/>
<path class="st0" d="M227.6,190.4v-8.6h-6.1v37.1l-77.7-15.2l4.2-21.9h-6L138,203l-31.8-1.3v4.1l31,1.3l-7.7,40.2l-21.2,2.6
	l-2.1-7.4v13.4c0.2,3.7,0.8,7.2,1.7,10.8c0.4,1.8,1.2,3.5,2.3,5c2.1,2.7,6.2,4.6,10.6,5.1c-1.6,2.3-3.5,4.3-5.7,5.9
	c-2.6,1.9-5.6,3.5-8.9,4.9v4.8l1.6-0.7l6.7,4.9l20,14.4l6,4.3c-5.8,3.2-11.6,5.8-17.8,6.5c-1.5,0.2-3.2,0.2-5,0.4
	c-3.9,0.1-7.7,0.5-11.6,1.2v4.2c0.3-0.1,0.6-0.1,0.9-0.2c3.6-0.7,7.3-1,11-1.1c1.9-0.1,3.8-0.2,5.5-0.4c10.6-1.2,19.6-6.6,29.1-12.4
	c9.9-6,21-12.8,35.5-14.8c15.3-2.2,32.4,1.6,44.6,9.8l0,0v-5.5c-7.2-3.9-15.1-6.6-23.2-7.9c4.4-3,7.5-6.9,8.8-11.1
	c0.1-0.2,0.1-0.5,0.2-0.7c0.2-0.9,0.3-1.8,0.3-2.7c0-0.5,0-0.9-0.1-1.4l14.1-4.2v-4.4l-15.3,4.6c-0.9-1.8-2.1-3.4-3.5-4.7l18.8-8.8
	v-2.3l-20.5,9.6c-3.3-2.4-7-4.1-11-5l-17.7-4.3l42.2-35.5l6.9,0.7v-4.1l-5-0.5L227.6,190.4L227.6,190.4z M143,207.7l22,4.3
	l-1.2,42.5l-28.4-6.9L143,207.7z M112.5,270.8c-1.1-1.4-1.6-3-2-4.5c-1.1-4.1-1.6-8.2-1.7-12.4l19.9-2.5l-1.3,6.5
	c-1.2,6.3-2.6,12.1-5.5,17.1C118,274.8,114.3,273.2,112.5,270.8z M116.7,295.5l-6.6-4.8c3.3-1.5,6.4-3.2,9.3-5.3
	c9.4-6.9,11.8-16.3,13.9-26.9l1.3-6.8l28.2,6.9c-1.6,3.8-2.8,7.7-3.4,11.8c-0.4,2.9-0.4,5.9,0.1,8.8c0.1,0.9,0.4,1.7,0.6,2.6
	l-33.9,20.6L116.7,295.5z M148.8,310.3c-2.1,1.3-4.2,2.6-6.3,3.8l-6.1-4.4l-8.4-6l32.7-19.9c1.3,3.3,3.3,6.4,6,9
	c1.9,2,4.2,3.7,6.6,5C163.9,301.1,156,305.9,148.8,310.3L148.8,310.3z M199.2,267.4c9.2,2.3,14.8,8.5,13.3,14.9
	c-0.1,0.2-0.1,0.4-0.2,0.6c-1.3,4.4-5.1,8.5-10.5,11c-8.7-0.6-17.5,0.4-25.9,3c-2.6-1.3-4.9-3-6.9-5.1c-3.6-3.5-6-8-6.9-12.9
	c-0.4-2.6-0.5-5.4-0.1-8c0.5-4.1,1.7-8,3.3-11.8L199.2,267.4z M194.2,243.8l-16.6,14l-11.1-2.7l1.2-42.6l26.5,5.2L194.2,243.8z
	 M197.2,241.3v-22.9l22.1,4.3L197.2,241.3z"/>
<polygon class="st4" points="132.3,210.3 113.1,209.7 113.1,230.7 128.9,230.7 "/>
<rect x="110.1" y="234.6" class="st4" width="18.3" height="8.6"/>
<polygon class="st4" points="175.9,204.9 217.5,212.2 217.5,190.5 191.1,190.5 191.1,200.4 175.9,200.4 "/>
<polygon class="st4" points="165.8,203.2 165.8,185.2 153,185.2 150.8,200.4 "/>
<rect x="171.9" y="184.6" class="st0" width="13.2" height="9.2"/>
<polygon class="st7" points="193.2,257.2 215.1,264 224.6,257.4 201.2,250.4 "/>
<rect x="147.5" y="214.9" class="st4" width="12.2" height="27"/>
<rect x="139.4" y="240.5" class="st0" width="3" height="5.3"/>
<polygon class="st4" points="190.1,221.1 171.9,217.2 171.9,231 171.9,233.3 190.1,233.3 "/>
<rect x="169.9" y="241.2" class="st4" width="4.1" height="7.9"/>
<rect x="175.9" y="241.2" class="st4" width="4.1" height="7.9"/>
<rect x="182" y="241.2" class="st4" width="4.1" height="7.9"/>
<polygon class="st7" points="112.1,181.8 106.2,181.8 106.2,198.1 112.1,198.3 "/>
<polygon class="st7" points="133.3,199 136.1,181.8 117.2,181.8 117.2,198.4 "/>
<polygon class="st1" points="232.7,298.9 232.7,290.8 228.9,297.2 "/>
<path class="st5" d="M141.7,314.1c9.6-4.6,15.9-13.9,25.2-19c2.4-1.4,5-2.3,7.8-2.5c2.4-0.2,4.7,0.1,7.2-0.7
	c3.3-0.9,5.4-3.1,6.8-6.2c1.8-3.8,3.2-8.9,1.5-12.9c-1.6-3.8-4.6-6.9-8.5-8.7c-2.1-1-4.3-1.6-6.4-2.4c-1.4-0.5-3-1.2-4.2-2.2
	c-0.9-0.8-0.5-1.3,0.1-2.3c0.7-1.3,1.6-2.4,2.6-3.6c1.7-2.1,3.8-4.2,5-6.7c0.9-1.7,1-3.7,1.1-5.5c0.1-6.2,0.3-12.3,0.5-18.6
	c0-0.7-1-0.7-1,0c-0.4,5.5-0.7,11-0.5,16.5c0.1,2,0.2,4.2-0.5,6.1c-0.9,2.6-3,4.7-4.7,6.8c-1.3,1.5-2.6,3.2-3.5,5
	c-0.4,0.9-0.7,1.4-0.2,2.2c1.2,1.8,4.2,2.8,6.1,3.5c2.4,0.9,4.9,1.6,7.1,2.9c2.1,1.3,3.9,3.1,5.2,5.2c1.9,3,2.2,6,1.3,9.5
	c-1.1,4.5-3,9.1-7.8,10.5c-2.3,0.7-4.6,0.5-6.9,0.7c-2,0.2-4,0.7-5.8,1.5c-10.6,4.5-17.4,14.9-27.4,20.5
	C141.3,313.9,141.4,314.3,141.7,314.1L141.7,314.1z"/>
<path class="st8" d="M148.1,286c0.7-6.3-7.4-8.3-10.4-3.7c-2.8,4.2,4.9,16.6,4.9,16.6l0,0 M144.1,288.4c-1.4,1-3.3,0.6-4.3-0.8
	c-1-1.4-0.6-3.3,0.8-4.3s3.3-0.6,4.3,0.8l0,0C145.8,285.6,145.4,287.5,144.1,288.4L144.1,288.4z"/>
<path class="st9" d="M233.2,233.4c-2.2-3.2-3.7-4.7-6.8-5.9c-1.2-0.4-2.4-0.7-3.7-0.7l0,0c-3,0.9-5,0.9-8,0
	c-1.5,0.2-2.8-0.9-10.6,3.9c-3.2,2-5.4,3.3-9.2,5.3c-1,0.5-1.8,0.8-1.9,0.7c-0.7-0.4-8.4-14.5-8.4-14.5s-1.7-4.9-2.4-4.8
	s-5.8,0.2-5.9,1c-0.1,0.8,0.2,4.3,0.8,4.8c0.5,0.5,2.6,1.8,2.6,1.8s8.5,22,11.7,21.7c2.3-0.2,11.2-3.9,15.8-5.9l1-0.4l0.6,12.8
	l-0.2,16.1l20.1-1.2l-0.3-16.5c0.2-4.1,0.1-5.5,0.5-8.9l6,2.3l1.1-6.8C235.1,236.5,234.2,234.9,233.2,233.4z"/>
<path class="st10" d="M178.9,213.9c-1.2-2.8-5.8-2.3-6.1,0.7c-0.5,4.1,7.4,7.4,7.4,7.4v-0.3C180.1,221.6,179.8,216,178.9,213.9z
	 M177.6,216.2c-0.4,0.9-1.3,1.3-2.2,0.9c-0.9-0.4-1.3-1.3-0.9-2.2c0.4-0.9,1.3-1.3,2.2-0.9l0,0C177.6,214.4,178,215.3,177.6,216.2z"
	/>
<path class="st11" d="M177.9,220.8c0.3,0.1,0.5,0.2,0.8,0.5l0.8,0.5c0.1,0.1,0.3,0.2,0.5,0.4c0.2,0.1,0.3,0.4,0.4,0.6
	c0,0.2-0.1,0.4-0.4,0.5c-0.2,0.1-0.4,0.1-0.5,0c-0.3-0.1-0.5-0.2-0.8-0.4c-0.5-0.2-0.8-0.4-0.9-0.5l0.1-0.1c0,0.1,0,0.1,0,0.1
	s-0.1,0-0.1-0.1l-0.1-0.1h0.1c0.2,0.1,0.5,0.2,1,0.4c0.2,0.1,0.5,0.2,0.8,0.3c0.2,0.1,0.6-0.1,0.6-0.3c0-0.3-0.4-0.5-0.7-0.8
	l-0.7-0.6C178.3,221.2,178.1,221.1,177.9,220.8z"/>
<path class="st11" d="M178.7,219.7c0.3,0.1,0.6,0.2,0.9,0.4c0.3,0.2,0.5,0.4,0.8,0.6c0.1,0.1,0.2,0.3,0.4,0.5s0.2,0.5,0.1,0.7
	c-0.1,0.1-0.2,0.2-0.3,0.3s-0.2,0.1-0.4,0.1c-0.2,0-0.4-0.1-0.6-0.2c-0.3-0.1-0.6-0.3-0.9-0.5c-0.5-0.4-0.7-0.7-0.6-0.7
	c0,0,0.2,0.2,0.7,0.5c0.2,0.2,0.5,0.4,0.9,0.5c0.2,0.1,0.4,0.1,0.5,0.1c0.2,0,0.4-0.1,0.4-0.2c0.1-0.2,0-0.4-0.1-0.5
	c-0.1-0.2-0.2-0.3-0.3-0.5c-0.2-0.2-0.5-0.4-0.7-0.6C179.2,220.1,178.9,219.9,178.7,219.7z"/>
<path class="st9" d="M182.2,217.6l-4,1.2c-0.2,0.1-0.4,0.1-0.5,0.3c-0.1,0.3,0.1,0.6,0.4,0.8c0.6,0.3,1.3,0.4,1.9,0.4
	c0.7-0.1,1.3-0.2,1.9-0.5"/>
<path class="st11" d="M182,219.8c-0.1,0.1-0.2,0.1-0.4,0.2c-0.3,0.1-0.7,0.2-1,0.3c-0.5,0.1-1,0.1-1.6,0.1c-0.3-0.1-0.6-0.1-0.9-0.3
	c-0.2-0.1-0.3-0.2-0.4-0.3s-0.2-0.4-0.2-0.5c0.1-0.2,0.2-0.4,0.4-0.4c0.2-0.1,0.3-0.1,0.5-0.1l0.9-0.2l1.5-0.4
	c0.4-0.1,0.9-0.2,1.4-0.3c-0.4,0.2-0.9,0.4-1.3,0.5l-1.5,0.5l-0.9,0.2c-0.3,0.1-0.7,0.2-0.7,0.4c0,0.1,0.1,0.2,0.1,0.4
	c0.1,0.1,0.2,0.2,0.4,0.2c0.2,0.1,0.5,0.2,0.9,0.2c0.5,0.1,1,0.1,1.5,0C181.5,219.9,182,219.7,182,219.8z"/>
<path class="st10" d="M235.7,293.6c4.9,0.3,9.1-3.3,9.4-8.3c0.1-2.1-0.4-4.1-1.6-5.8c-1.3-1.8-3.1-3-4.9-4.2l-6.5-4.3l2,16.8
	L235.7,293.6"/>
<path class="st5" d="M244.9,282.6c-0.1,0.2-0.2,0.3-0.4,0.4c-0.4,0.3-0.9,0.5-1.3,0.7c-1.3,0.3-3.1,0.1-4.8-0.9
	c-1.5-0.8-2.7-1.8-3.8-3.1c-0.4-0.5-0.8-0.9-1-1.1c-0.1-0.1-0.2-0.3-0.4-0.4c0.1,0.1,0.3,0.2,0.4,0.4l1,1c1.1,1.2,2.4,2.2,3.8,3
	c1.4,0.8,3,1.2,4.6,0.9c0.5-0.1,0.9-0.2,1.3-0.5C244.7,282.7,244.9,282.5,244.9,282.6z"/>
<path class="st6" d="M228.3,252.2l0.5-9.6c0,0-3.3-2.7-2.2-15.1l-1.6-0.5c0,0-1,15.6-8.9,14.8c-7.9-0.7-5.1-14.7-5.1-14.7
	c-0.9,0.1-1.7,0.4-2.3,1c-0.1,0-0.4,5.1-0.5,9.4c-0.9,1.5-1.3,3.3-1.3,5c0.1,1.3,0.6,2.6,1.5,3.7c0.2,2.9,0.4,6.8,0.4,6.8l-3.1,8
	l0.7,2.8l22.6-0.2l0.7-3L228.3,252.2z"/>
<path class="st3" d="M224.9,241.5c-0.1,0.4-0.2,0.7-0.4,0.9c-0.3,0.5-0.6,0.9-0.7,0.8c-0.1-0.1,0.1-0.5,0.4-0.9
	C224.5,241.8,224.9,241.4,224.9,241.5z"/>
<path class="st3" d="M225.8,249.5c-0.1,0.1-0.5-0.3-1-0.8c-0.3-0.3-0.6-0.6-0.8-1c0.1-0.1,0.5,0.3,1,0.8
	C225.3,248.8,225.6,249.2,225.8,249.5z"/>
<path class="st3" d="M212.8,243.5c-0.7,0.6-1.5,1.2-2.3,1.5C211.2,244.4,212,243.8,212.8,243.5z"/>
<path class="st3" d="M209.3,242.9c-0.4-0.1-0.7-0.2-1-0.5c-0.5-0.3-0.9-0.6-0.9-0.7c0.4,0.1,0.7,0.2,1,0.5
	C208.9,242.5,209.3,242.8,209.3,242.9z"/>
<path class="st3" d="M209.3,233.2c0.1,0.4,0.1,0.9,0.1,1.3c0,0.4-0.1,0.9-0.2,1.3c-0.1-0.4-0.1-0.9-0.1-1.3
	C209.2,234.1,209.2,233.7,209.3,233.2z"/>
<path class="st3" d="M225.7,234.9c0.1,0.1-0.1,0.4-0.2,0.8c-0.2,0.4-0.4,0.7-0.5,0.7c-0.1,0,0.1-0.4,0.2-0.8
	C225.5,235.2,225.6,234.9,225.7,234.9z"/>
<path class="st3" d="M217.5,247.5c-0.2-0.7-0.4-1.3-0.3-2.1C217.4,246.1,217.5,246.8,217.5,247.5z"/>
<path class="st3" d="M222.6,241.2c0,0.1-0.2,0.2-0.5,0.4c-0.3,0.1-0.5,0.2-0.6,0.1c-0.1-0.1,0.2-0.2,0.5-0.4
	C222.3,241.2,222.5,241.2,222.6,241.2z"/>
<path class="st3" d="M228.1,244.9c0,0.1-0.2,0.2-0.5,0.3c-0.3,0.1-0.6,0.1-0.6,0.1c0-0.1,0.2-0.2,0.5-0.3S228.1,244.8,228.1,244.9z"
	/>
<path class="st3" d="M211.3,241.1c-0.1,0.1-0.3-0.3-0.6-0.7c-0.2-0.4-0.4-0.9-0.4-0.9c0.1-0.1,0.3,0.3,0.6,0.7
	C211.2,240.7,211.4,241.1,211.3,241.1z"/>
<path class="st3" d="M211.6,248c-0.1,0-0.2-0.1-0.3-0.2c-0.1-0.1-0.2-0.3-0.2-0.4c0.1-0.1,0.2,0,0.4,0.2
	C211.7,247.8,211.8,248,211.6,248z"/>
<path class="st3" d="M208.8,259c-0.1-0.3,0-0.7,0.1-1c0.1-0.5,0.3-1,0.4-0.9c0.1,0.3,0,0.7-0.1,1C209,258.7,208.9,259.1,208.8,259z"
	/>
<path class="st3" d="M213.7,259.2c-0.1,0.1-0.4-0.2-0.8-0.7c-0.4-0.4-0.7-0.8-0.6-0.9c0.1-0.1,0.4,0.2,0.8,0.7
	C213.4,258.8,213.7,259.1,213.7,259.2z"/>
<path class="st3" d="M211.4,261.8c0,0.1-0.4,0-0.9-0.2c-0.5-0.2-0.8-0.4-0.8-0.4c0-0.1,0.4,0,0.9,0.2
	C211.1,261.6,211.5,261.7,211.4,261.8z"/>
<path class="st3" d="M217.7,258.5c-0.1,0.4-0.1,0.7-0.3,1c-0.2,0.5-0.5,0.9-0.5,0.9c0.1-0.4,0.2-0.7,0.4-1
	C217.4,258.8,217.7,258.5,217.7,258.5z"/>
<path class="st3" d="M223.2,259.8c-0.2,0.5-0.5,0.9-0.9,1.1c-0.4,0.3-0.9,0.5-1.3,0.5c0-0.1,0.6-0.2,1.2-0.7
	C222.7,260.2,223.1,259.7,223.2,259.8z"/>
<path class="st3" d="M227.6,261.3c-0.5-0.2-1-0.5-1.4-1c-0.5-0.3-0.9-0.7-1.3-1.2c0.5,0.2,1,0.5,1.4,0.9
	C226.9,260.4,227.3,260.8,227.6,261.3z"/>
<path class="st3" d="M220.7,253.6c-0.3,0.4-0.7,0.8-1.1,1.1c-0.4,0.4-0.8,0.7-1.2,0.9c0.3-0.4,0.7-0.8,1.1-1.1
	C219.8,254.2,220.2,253.9,220.7,253.6z"/>
<path class="st3" d="M214,253.9c-0.4-0.2-0.7-0.5-1-0.9c-0.4-0.3-0.6-0.7-0.9-1.1c0.4,0.2,0.7,0.5,1,0.9
	C213.4,253.1,213.7,253.4,214,253.9z"/>
<path class="st3" d="M220.3,250.6c-0.4,0.2-0.8,0.4-1.2,0.5c-0.4,0.2-0.9,0.2-1.3,0.2C218.6,250.9,219.4,250.7,220.3,250.6
	L220.3,250.6z"/>
<path class="st3" d="M226.2,254.8c-0.3-0.3-0.5-0.7-0.7-1.1c-0.2-0.4-0.4-0.8-0.5-1.2c0.3,0.3,0.5,0.7,0.7,1.1
	C225.9,253.9,226.1,254.3,226.2,254.8z"/>
<path class="st3" d="M209.6,252.3c0.1,0.4,0.1,0.9,0,1.2c0,0.4-0.1,0.9-0.2,1.2c-0.1-0.4-0.1-0.9,0-1.2
	C209.4,253.1,209.5,252.7,209.6,252.3z"/>
<path class="st5" d="M210.4,217.7c-1.2,0.2-2.3,0.1-3.4-0.2c-1.1-0.3-2.1-1.1-2.5-2.2c-0.5-1.1-0.1-2.4,0.9-3.1
	c0.5-0.3,1.1-0.5,1.3-1c0.2-0.5-0.2-1.2-0.4-1.7c-0.9-1.9-0.1-4.2,1.8-5.1c1.2-0.5,2.5-0.5,3.6,0.1c0.2-2.9,2.7-4.9,5.6-4.7
	c2.4,0.2,4.4,2.1,4.7,4.5c0.1,0.7,0,1.5,0.4,2.2c0.4,0.7,1.3,1.1,1.9,1.7c1.2,1.2,1,3.1,0.5,4.7c-0.5,1.6-1.3,3.1-1.3,4.7"/>
<path class="st9" d="M214.8,226.9c-0.1-1.6-0.2-3.1-0.2-3.1s-3.4-0.2-3.7-3.7c-0.3-3.3-0.2-11.1-0.2-11.1l6.1-3.2l6.1,5l0.1,15.8
	c0,2.2-1.6,4-3.8,4.1l0,0C216.9,230.9,214.9,229.2,214.8,226.9z"/>
<path class="st5" d="M211.4,214.7c0,0.2,0.2,0.4,0.5,0.4c0.2,0,0.4-0.2,0.4-0.5c0-0.2-0.2-0.4-0.4-0.4
	C211.6,214.2,211.4,214.4,211.4,214.7L211.4,214.7z"/>
<path class="st5" d="M211,214.2c0.1,0.1,0.4-0.2,0.9-0.2c0.5-0.1,0.8,0.2,0.9,0.1c0.1-0.1-0.1-0.1-0.2-0.2c-0.4-0.2-1-0.2-1.3,0.1
	C211,214.1,210.9,214.2,211,214.2z"/>
<path class="st5" d="M216.4,214.6c0,0.2,0.2,0.4,0.4,0.4l0,0c0.2,0,0.4-0.2,0.4-0.4c0-0.2-0.2-0.4-0.4-0.4
	C216.6,214.1,216.4,214.3,216.4,214.6C216.4,214.5,216.4,214.6,216.4,214.6z"/>
<path class="st5" d="M216.1,214.1c0.1,0.1,0.4-0.2,0.9-0.2c0.5-0.1,0.8,0.2,0.9,0.1s-0.1-0.1-0.2-0.2c-0.2-0.1-0.4-0.2-0.7-0.2
	s-0.5,0.1-0.7,0.3C216.1,213.9,216.1,214.1,216.1,214.1z"/>
<path class="st5" d="M214.5,218c-0.2,0.1-0.5,0.1-0.8,0.1c-0.1,0-0.1,0-0.2,0c-0.1,0-0.2-0.1-0.2-0.2c-0.1-0.2-0.1-0.4,0.1-0.5
	c0.1-0.3,0.2-0.6,0.3-1c0.2-0.9,0.5-1.6,0.9-2.5c-0.1,0.9-0.4,1.7-0.7,2.6c-0.1,0.4-0.2,0.7-0.3,1c-0.1,0.1-0.1,0.2-0.1,0.4
	c0,0.1,0.1,0.1,0.2,0.1C214,218,214.3,218,214.5,218z"/>
<path class="st3" d="M216.2,218.4c0.1-0.1-1.3,0.9-2.3,0.9c0.4,0.5,1,0.7,1.5,0.4S216.3,218.9,216.2,218.4z"/>
<path class="st11" d="M214.5,223.8c1.6-0.1,3.2-0.7,4.4-1.6c0,0-1,2.5-4.3,2.4L214.5,223.8z"/>
<path class="st5" d="M209,210.1c1,1,2.7,1.1,4.1,0.6c1.3-0.5,2.5-1.5,3.3-2.7c1.2,1.2,2.9,1.6,4.5,1.3c0.2,3,0.8,4.9,1.9,8
	c0,0-0.2,1.3,0.1,1.2c0.4-2.1,0.8-4.4,1.2-6.5c0.1-0.8,0.3-1.6,0-2.3c-0.3-0.7-1.1-1.2-1.8-1.8c-0.9-0.6-1.6-1.3-2.4-1.9
	c-0.9-0.6-1.8-1-2.9-1.2c-1,0-2.1,0.2-3.1,0.6c-1.2,0.3-2.3,0.9-3.2,1.6c-0.9,0.8-1.6,2-1.3,3.2"/>
<path class="st9" d="M222.8,214.1c0.4-0.2,0.7-0.2,1.1-0.3c0.4,0,0.7,0.1,1,0.5c0.1,0.2,0.2,0.5,0.1,0.8c-0.2,0.8-1,1.3-1.8,1.1
	c-0.1,0-0.2-0.1-0.3-0.1"/>
<path class="st5" d="M218,213.2c0.1,0,0.1,0.2-0.1,0.4c-0.2,0.2-0.4,0.2-0.4,0.1s0.2-0.1,0.3-0.2C217.9,213.4,218,213.2,218,213.2z"
	/>
<path class="st9" d="M206.1,266.8l-5.8,87.9c-0.4,0.1-5.9,1.1-5.8,1.9c0.1,0.8,14,0.3,14,0.3l8.2-76.3l12.7-15L206.1,266.8z"/>
<path class="st5" d="M208.3,356.3c0,0.1-3.2,0.2-7.1,0.2c-4-0.1-7.1-0.2-7.1-0.3s3.2-0.2,7.1-0.2
	C205.1,356.1,208.3,356.2,208.3,356.3z"/>
<path class="st5" d="M198.8,356.5c-0.1,0-0.2-0.5-0.5-1c-0.4-0.5-0.9-0.8-0.9-0.9C198.1,354.8,198.8,355.6,198.8,356.5L198.8,356.5z
	"/>
<path class="st5" d="M208.6,354.1c-2.4-0.1-4.9,0.7-6.8,2.2c0.2-0.3,0.5-0.5,0.8-0.7c0.7-0.5,1.5-0.9,2.3-1.2
	c0.9-0.2,1.7-0.4,2.6-0.4C207.9,353.9,208.2,353.9,208.6,354.1z"/>
<path class="st5" d="M208.6,353.1c-1.4,0.1-2.9,0.1-4.3,0c-1.5,0-2.9-0.1-4.3-0.2c1.4-0.1,2.9-0.1,4.3,0
	C205.7,352.8,207.2,352.9,208.6,353.1z"/>
<path class="st5" d="M208.7,351.6c-1.5,0.2-2.9,0.2-4.3,0.2c-1.5,0.1-2.9,0.1-4.3,0c1.5-0.2,2.9-0.2,4.3-0.2
	C205.8,351.5,207.3,351.5,208.7,351.6z"/>
<path class="st5" d="M194.2,356.2c-0.1,0.3,0,0.6,0.3,0.7c0.3,0.1,0.5,0.1,0.9,0c0.3-0.1,0.5-0.1,0.9-0.2c0.6,0,1.2,0.5,1.8,0.4
	c0.4-0.1,0.7-0.2,1-0.3c0.6-0.1,1.2,0.4,1.8,0.4s1.2-0.5,1.8-0.4c0.6,0.1,1.1,0.5,1.6,0.5c0.5,0,0.9-0.2,1.3-0.3
	c0.6,0,1.2,0.4,1.8,0.3c0.2-0.1,0.5-0.2,0.6-0.4s0.1-0.5-0.1-0.7"/>
<path class="st5" d="M206.5,351.7c0,0-0.3-0.1-0.6-0.4c-0.2-0.2-0.3-0.4-0.4-0.7c-0.1-0.2-0.1-0.4-0.1-0.5c0-0.2,0.1-0.4,0.2-0.5
	c0.1-0.1,0.2-0.1,0.4-0.1c0.1,0.1,0.2,0.1,0.2,0.2c0.1,0.1,0.2,0.3,0.2,0.5c0.1,0.2,0.1,0.5,0.1,0.9c-0.1,0.5-0.2,0.7-0.3,0.7
	c0,0,0.1-0.2,0.1-0.7c0-0.2-0.1-0.5-0.1-0.7c-0.1-0.1-0.1-0.2-0.2-0.4c-0.1-0.1-0.2-0.2-0.2-0.1c-0.1,0.1-0.1,0.2-0.1,0.4
	s0,0.3,0.1,0.4c0.1,0.2,0.2,0.5,0.3,0.7C206.2,351.5,206.5,351.7,206.5,351.7z"/>
<path class="st5" d="M206.5,351.4c0,0-0.1-0.2,0.1-0.5c0.1-0.2,0.3-0.4,0.5-0.5c0.1-0.1,0.2-0.1,0.4-0.1c0.1,0,0.2,0,0.2,0.1
	c0.1,0.1,0.1,0.2,0.1,0.3c-0.1,0.5-0.4,0.9-0.9,1c-0.4,0.1-0.6-0.1-0.6-0.1s0.2,0,0.5-0.1c0.4-0.1,0.7-0.5,0.7-0.9
	c0-0.1,0-0.1,0-0.1c-0.1,0-0.1,0-0.1,0c-0.3,0.1-0.5,0.2-0.7,0.5C206.5,351.3,206.5,351.4,206.5,351.4z"/>
<path class="st9" d="M235.8,351.6l-0.1,0.1l-3.8-30.8l-3.6-53.8l-10.5,9.9c-0.2,0.5,3.3,43.4,4.1,46.4c0.7,2.8,5.2,27.2,5.7,30.2
	c-0.6,0.3-5.3,2.7-5,3.4c0.3,0.7,13.6-3.5,13.6-3.5L235.8,351.6z"/>
<path class="st5" d="M236.2,353.5c0.1,0.1-3,1.1-6.8,2.1s-6.9,1.8-6.9,1.6c-0.1-0.1,3-1.1,6.8-2.1S236.1,353.3,236.2,353.5z"/>
<path class="st5" d="M227,356.2c-0.1,0-0.3-0.5-0.9-0.9s-1-0.5-1-0.6C226,354.8,226.7,355.4,227,356.2z"/>
<path class="st5" d="M235.8,351.2c-1.2,0.4-2.3,0.9-3.3,1.5c-1,0.7-1.9,1.5-2.6,2.5c0.1-0.4,0.3-0.7,0.5-0.9
	c1.1-1.4,2.6-2.4,4.3-2.9C235.1,351.3,235.4,351.2,235.8,351.2z"/>
<path class="st5" d="M235.6,350.3c-1.3,0.5-2.7,0.9-4.1,1.2c-1.4,0.4-2.7,0.7-4.2,0.9c1.3-0.5,2.7-0.9,4.1-1.2
	C232.8,350.8,234.2,350.5,235.6,350.3z"/>
<path class="st5" d="M235.3,348.8c-1.3,0.5-2.7,1-4.1,1.4c-1.3,0.5-2.7,0.9-4.2,1.2c1.3-0.5,2.7-1,4.1-1.4
	C232.5,349.5,233.8,349.1,235.3,348.8z"/>
<path class="st5" d="M222.6,357.3c-0.1,0.3,0.2,0.5,0.5,0.6c0.3,0.1,0.6-0.1,0.9-0.2c0.2-0.2,0.5-0.3,0.8-0.4
	c0.6-0.2,1.2,0.1,1.8-0.1c0.3-0.1,0.5-0.5,0.9-0.6c0.5-0.2,1.3,0,1.8-0.2c0.6-0.2,1-0.8,1.6-0.9c0.6-0.1,1.2,0.2,1.8,0.1
	c0.4-0.1,0.7-0.5,1.2-0.7c0.6-0.2,1.3,0.1,1.8-0.2c0.2-0.1,0.4-0.3,0.5-0.5c0.1-0.2-0.1-0.5-0.3-0.7"/>
<path class="st5" d="M233.1,349.5c-0.2,0-0.5-0.1-0.7-0.2c-0.2-0.1-0.4-0.4-0.6-0.6c-0.1-0.1-0.2-0.3-0.2-0.5
	c-0.1-0.2,0-0.4,0.1-0.6c0.1-0.1,0.2-0.2,0.3-0.1c0.1,0,0.2,0.1,0.3,0.1c0.1,0.1,0.2,0.2,0.4,0.4c0.2,0.2,0.3,0.5,0.3,0.8
	c0.1,0.2,0.1,0.5-0.1,0.7c-0.1,0,0-0.3-0.1-0.7c-0.1-0.2-0.2-0.5-0.3-0.7c-0.1-0.1-0.2-0.2-0.3-0.3c-0.1-0.1-0.2-0.1-0.3,0
	c-0.1,0.1-0.1,0.2-0.1,0.4c0,0.1,0.1,0.3,0.1,0.4c0.1,0.2,0.3,0.4,0.5,0.5C232.9,349.4,233.1,349.5,233.1,349.5z"/>
<path class="st5" d="M233.1,349.3c0,0-0.1-0.2,0-0.6c0.1-0.2,0.2-0.4,0.3-0.5c0.1-0.1,0.2-0.2,0.3-0.2c0.1-0.1,0.2-0.1,0.2-0.1
	c0.1,0.1,0.2,0.1,0.2,0.2c0.1,0.5-0.2,1-0.6,1.3c-0.3,0.2-0.5,0.1-0.5,0.1s0.2-0.1,0.5-0.2c0.4-0.2,0.5-0.7,0.5-1.1
	c0-0.1,0-0.1,0-0.1c-0.1,0-0.1,0-0.1,0c-0.2,0.1-0.5,0.4-0.5,0.7C233.1,349.1,233.1,349.3,233.1,349.3z"/>
<path class="st5" d="M229,261.9l-22.6,0.2l-7.1,30.4c0,0-1.8,7.4,7.1,7.8c8.8,0.4,13-3.5,20.3-0.7c4.7,1.8,11.7-1.6,11.3-2.4
	C233.9,287.9,233.9,274.5,229,261.9z"/>
<path class="st6" d="M235.9,299.4c0,0-0.1-0.1-0.1-0.4c-0.1-0.2-0.1-0.6-0.2-1.1c-0.4-1.3-0.9-2.6-1.4-3.8c-0.9-1.8-1.6-3.7-2.3-5.7
	c-0.7-2.4-1.1-4.9-1.2-7.4c-0.2-2.6-0.2-5.2-0.3-7.4c-0.1-2-0.4-4.1-0.9-6c-0.3-1.3-0.8-2.6-1.3-3.8c-0.2-0.4-0.4-0.8-0.5-1
	c-0.1-0.1-0.1-0.2-0.2-0.4c0.1,0.1,0.1,0.2,0.2,0.3c0.2,0.3,0.4,0.6,0.5,1c0.6,1.2,1.1,2.5,1.5,3.8c0.5,1.9,0.8,4,0.9,6
	c0.2,2.3,0.2,4.8,0.3,7.4c0.1,2.5,0.5,4.9,1.2,7.3c0.7,1.9,1.4,3.8,2.3,5.6c0.5,1.3,1,2.6,1.3,3.9c0.1,0.5,0.2,0.9,0.2,1.1
	C235.9,299.2,235.9,299.3,235.9,299.4z"/>
<path class="st6" d="M214.8,274.5c0,0-0.1,0.1-0.1,0.1c-0.1,0.1-0.2,0.1-0.4,0.1c-0.5-0.1-0.9-0.5-1.1-1c-0.2-0.7-0.2-1.5-0.1-2.2
	c0-0.8,0.1-1.7,0.1-2.6c0.1-1.8,0.1-3.5,0.2-4.7c0.1-0.5,0.1-1,0.1-1.5c0-0.2,0-0.4,0.1-0.5c0.1,0.2,0.1,0.4,0,0.5
	c0,0.4,0,0.9,0,1.5c0,1.2-0.1,2.9-0.1,4.8c-0.1,0.9-0.1,1.8-0.1,2.6c-0.1,0.7-0.1,1.4,0.1,2.1c0.1,0.4,0.5,0.8,0.9,0.9
	C214.4,274.5,214.6,274.5,214.8,274.5z"/>
<path class="st6" d="M214.8,263.3c0,0,0.2-0.2,0.5-0.1c0.2,0.1,0.4,0.2,0.4,0.5c0.1,0.3-0.1,0.5-0.4,0.7c-0.2,0.1-0.5,0.1-0.7-0.2
	c-0.1-0.2-0.1-0.4,0-0.6c0.1-0.1,0.2-0.2,0.3-0.2s0.1,0,0.1,0s-0.2,0.1-0.3,0.3c-0.1,0.1-0.1,0.3,0.1,0.4c0.1,0.1,0.3,0.2,0.5,0.1
	c0.2-0.1,0.2-0.2,0.2-0.4c0-0.1-0.1-0.3-0.2-0.4C215,263.2,214.8,263.3,214.8,263.3z"/>
<path class="st5" d="M229.5,268c-0.1,0.1-0.2,0.1-0.4,0.1c-0.4,0-0.7,0-1.1,0c-1.2-0.1-2.4-0.4-3.5-1.1c-1-0.7-1.7-1.8-1.8-3.1
	c-0.1-0.4,0-0.7,0.1-1.1c0-0.1,0.1-0.2,0.2-0.4c-0.1,0.5-0.1,1-0.1,1.5c0.2,1.2,0.9,2.3,1.8,2.9c1,0.7,2.1,1,3.3,1.1
	C228.9,268,229.5,267.9,229.5,268z"/>
<path class="st5" d="M208.3,262c0,0,0.1,0.1,0.1,0.3c0.1,0.3,0.1,0.6,0.1,0.9c0,1-0.2,2.1-0.5,3.1c-0.4,1-1,1.9-1.8,2.6
	c-0.2,0.2-0.6,0.3-0.9,0.4c-0.1,0-0.2,0-0.4,0c0.4-0.1,0.8-0.2,1.2-0.5c0.8-0.7,1.3-1.5,1.7-2.5c0.4-1,0.5-1.9,0.6-3
	C208.4,262.5,208.2,262,208.3,262z"/>
<path class="st5" d="M237.1,295.6c-0.4,0.4-0.7,0.7-1.2,1c-1.2,0.7-2.6,1.2-4,1.4c-2.1,0.2-4.2,0.1-6.2-0.3c-2.3-0.4-4.8-1-7.5-1
	s-5.2,0.8-7.4,1.4c-1.1,0.3-2.1,0.5-3.2,0.7c-1,0.1-1.9,0.1-2.9,0.1c-1.4-0.1-2.8-0.5-4-1.3c-0.2-0.1-0.4-0.2-0.5-0.4
	c-0.1-0.1-0.2-0.2-0.4-0.4s-0.2-0.2-0.2-0.3c0.4,0.4,0.8,0.7,1.2,1c1.2,0.7,2.6,1.2,3.9,1.3c1,0.1,1.9,0.1,2.9-0.1
	c1.1-0.2,2.2-0.4,3.2-0.7c2.3-0.6,4.7-1.4,7.5-1.4c2.7,0.1,5.2,0.7,7.5,1.1c2,0.4,4.1,0.5,6.1,0.4c1.4-0.1,2.7-0.6,3.9-1.3
	C236.7,296,237.1,295.5,237.1,295.6z"/>
<path class="st6" d="M228.4,262.7c-0.1,0.1-0.2-0.1-0.3-0.2c-0.1-0.2-0.1-0.3-0.1-0.4c0.1-0.1,0.2,0.1,0.3,0.2
	S228.4,262.7,228.4,262.7z"/>
<path class="st6" d="M229.7,265.3c-0.1,0-0.2-0.2-0.4-0.6c-0.2-0.4-0.2-0.7-0.2-0.7c0.1-0.1,0.2,0.2,0.4,0.6
	C229.7,264.9,229.7,265.3,229.7,265.3z"/>
<path class="st6" d="M230.5,268c-0.1,0-0.2-0.3-0.3-0.7c-0.1-0.4-0.1-0.7-0.1-0.7c0.1,0,0.2,0.3,0.3,0.7
	C230.5,267.7,230.6,268,230.5,268z"/>
<path class="st6" d="M231,270.9c-0.1,0-0.2-0.3-0.2-0.7c-0.1-0.4-0.1-0.7,0-0.7s0.2,0.3,0.2,0.7C231.1,270.5,231.1,270.9,231,270.9z
	"/>
<path class="st6" d="M231.3,273.7c-0.1,0-0.1-0.3-0.2-0.7c-0.1-0.4,0-0.7,0.1-0.7s0.1,0.3,0.2,0.7
	C231.4,273.4,231.4,273.7,231.3,273.7z"/>
<path class="st6" d="M231.5,276.6c-0.1,0-0.1-0.3-0.2-0.7s0-0.7,0.1-0.7s0.1,0.3,0.2,0.7C231.5,276.3,231.5,276.6,231.5,276.6z"/>
<path class="st6" d="M231.6,279.5c-0.1,0-0.1-0.3-0.2-0.7c0-0.4,0-0.7,0.1-0.7s0.1,0.3,0.2,0.7C231.7,279.2,231.7,279.5,231.6,279.5
	z"/>
<path class="st6" d="M231.8,282.4c-0.1,0-0.2-0.3-0.2-0.7c-0.1-0.4,0-0.7,0.1-0.7c0.1,0,0.1,0.3,0.2,0.7
	C232,282.1,231.9,282.4,231.8,282.4z"/>
<path class="st6" d="M232.3,285.2c-0.1,0-0.2-0.3-0.2-0.7s-0.1-0.7,0-0.7s0.2,0.3,0.2,0.7C232.3,284.9,232.3,285.2,232.3,285.2z"/>
<path class="st6" d="M233,288c-0.1,0-0.2-0.2-0.3-0.7c-0.1-0.4-0.1-0.7-0.1-0.7s0.2,0.3,0.3,0.7C233,287.7,233.1,288,233,288z"/>
<path class="st6" d="M234.1,290.7c-0.1,0.1-0.2-0.2-0.4-0.6c-0.2-0.4-0.2-0.7-0.2-0.7c0.1,0,0.2,0.2,0.4,0.6
	C234,290.4,234.2,290.7,234.1,290.7z"/>
<path class="st6" d="M235.4,293.2c-0.1,0.1-0.2-0.2-0.5-0.5c-0.2-0.3-0.3-0.7-0.2-0.7c0.1-0.1,0.2,0.2,0.5,0.5
	C235.4,292.9,235.5,293.2,235.4,293.2z"/>
<path class="st6" d="M236.7,295.8c-0.1,0-0.2-0.2-0.4-0.6c-0.1-0.4-0.2-0.7-0.2-0.7c0.1,0,0.2,0.2,0.4,0.6
	C236.7,295.5,236.7,295.8,236.7,295.8z"/>
<path class="st6" d="M237,298c-0.1,0-0.1-0.1-0.2-0.3c0-0.2,0-0.4,0.1-0.4s0.1,0.1,0.2,0.3C237.1,297.8,237.1,298,237,298z"/>
<path class="st10" d="M211.9,227c0,0,12.8,41.3,21.1,47.5l-0.7-3.7c-5-8.7-10.9-25.5-17.6-44.1C214.2,226.4,212.1,226.5,211.9,227z"
	/>
<path class="st9" d="M228.5,242.4l4.4,9.9c-6.4-0.1-13.5-1.5-16.4-2.3c-0.2-0.2-0.5-0.5-0.7-0.7c-0.3-0.3-0.5-0.7-0.7-1.2
	c-0.2-0.5-0.4-1-0.5-1.6c-0.1-0.5-0.7-0.7-0.9-0.3c-0.2,0.4-0.1,1.8,0.7,3.3c0.8,1.5-1.6,0.5-2.5,0.1c-0.9-0.3-3.7-1.3-4-1.1
	c-0.5,0.3-0.2,0.9,0.7,1.2c0.9,0.3,3.5,1.5,3.3,1.9c-0.2,0.5-4.7-1.3-4.7-1.3s-0.9-0.5-1.2,0c-0.4,1,4.5,2.5,4.9,2.7
	c0.3,0.1,0.1,0.6-0.2,0.5c-0.4-0.1-4.4-1.9-4.9-0.9c-0.4,0.7,4,1.3,4.7,2.2s-3.3-0.8-3.6-0.1c-0.1,0.2-0.2,0.5,2.3,1.1
	c1.9,0.4,3.9,0.7,5.8,0.9c3.8,1.1,13.1,3.2,19.9,3c0,0,9.6,0.2,8-5.7c-1.8-6.2-6.9-15.8-6.9-15.8L228.5,242.4z"/>
<path class="st12" d="M223.4,215.8c-0.2,0-0.4,0.1-0.4,0.3c0,0.2,0.1,0.4,0.3,0.4l0,0c0.2,0,0.3-0.2,0.3-0.4l0,0
	c-0.1-0.2-0.2-0.2-0.4-0.2c0,0,0,0-0.1,0"/>
<path class="st8" d="M266.9,327.9c-1.1,0.1-2.2,0.6-2.9,1.5c-0.7,0.9-1.2,1.9-1.5,3c-0.5,2.1-0.2,4.6,0.4,6.6
	c2.3-0.9,3.6-3.2,4.3-4.5C268.2,332.5,268.8,328.3,266.9,327.9"/>
<path class="st13" d="M266.5,327.9c-1,0.1-2.1,0.6-2.7,1.5c-0.7,0.8-1.2,1.8-1.4,2.9c-0.5,2-0.2,4.4,0.4,6.4
	c2.2-0.8,3.5-3.1,4.1-4.3C267.7,332.3,268.3,328.3,266.5,327.9"/>
<path class="st8" d="M259.6,341c0.7-1,0.7-2.4,0.1-3.4c-0.6-1-1.6-1.8-2.7-2.2c-0.5-0.2-1.1-0.2-1.6,0.1c-0.4,0.4-0.7,0.8-0.5,1.3
	c0.1,0.5,0.3,1,0.7,1.4C256.5,339.7,257.9,340.9,259.6,341"/>
<path class="st5" d="M259.8,348.6c0.1-0.1,0.1-0.3,0.1-0.4c0.1-0.3,0.1-0.7,0.2-1.2c0.2-1.3,0.2-2.7,0.1-4.1
	c-0.2-1.4-0.7-2.7-1.5-3.8c-0.2-0.3-0.5-0.6-0.9-0.9c-0.1-0.1-0.2-0.2-0.4-0.2c0.4,0.4,0.8,0.8,1.2,1.2c0.8,1.1,1.3,2.4,1.4,3.7
	c0.1,1.3,0.1,2.7-0.1,4C259.8,347.5,259.8,348.1,259.8,348.6z"/>
<path class="st5" d="M266.2,331.1c-0.1,0.2-0.2,0.4-0.3,0.7c-0.2,0.4-0.5,1.1-0.8,1.8c-0.7,1.6-1.6,3.8-2.5,6.2
	c-0.9,2.4-1.7,4.7-2.3,6.3c-0.2,0.8-0.5,1.5-0.6,1.9c-0.1,0.2-0.1,0.5-0.2,0.7c0.1-0.2,0.2-0.4,0.3-0.7c0.2-0.5,0.4-1.2,0.7-1.9
	c0.6-1.6,1.4-3.8,2.3-6.3s1.8-4.6,2.4-6.3c0.3-0.8,0.5-1.4,0.7-1.9C266.1,331.5,266.2,331.3,266.2,331.1z"/>
<path class="st8" d="M262.1,343.5c1.5-2.2,4-3.5,6.6-3.6c0.7,0,1.5,0.2,1.7,0.8c0.2,0.6-0.2,1.3-0.7,1.8c-2.1,1.9-5.2,2.4-7.7,1.3"
	/>
<path class="st5" d="M267.7,341.6c-0.1,0-0.3,0-0.4,0c-0.2,0-0.4,0.1-0.5,0.1c-0.2,0.1-0.4,0.1-0.7,0.1c-0.5,0.1-1.1,0.4-1.6,0.6
	c-0.7,0.3-1.3,0.7-1.8,1.2c-0.5,0.5-1,1-1.5,1.5c-0.4,0.5-0.7,1-0.9,1.5c-0.1,0.2-0.2,0.4-0.2,0.6c-0.1,0.1-0.1,0.3-0.2,0.5
	c-0.1,0.1-0.1,0.3-0.1,0.4c0.1,0,0.2-0.6,0.7-1.5c0.3-0.5,0.6-1,1-1.5c0.9-1.1,2-2,3.2-2.6c0.5-0.2,1-0.5,1.6-0.6
	C267.1,341.7,267.7,341.6,267.7,341.6z"/>
<path class="st8" d="M85.8,245.6c6.5-2.9,9.6,17.6,10,19.2s1.5,1.8,3.4-0.6c1.9-2.4,3.5-1.5,3.5-1.5c3.5,2.2-1.3,14.8-1.2,15.8
	c0.1,1-0.7,2.5,3,0.4c3.7-2.1,6.8-3.2,7.3,0c0.5,2.9-3.3,11.3-3.2,12.5s3.8-1.8,5.5-2.8c2.1-1.3,4.3-1.2,4.7,1.4
	c0.5,3.4-6.3,13.3-6.3,13.3l-3.2,5l-5.9-1.6c0,0-11.6-3.3-13.4-6.2c-1.4-2.3,0.2-3.8,2.6-4.1c1.8-0.3,6.7-0.5,6-1.4
	c-0.7-0.9-9.1-4.9-10.6-7.4c-1.6-2.8,1.4-4,5.5-4.7c4.2-0.8,2.6-1.5,2-2.3s-12.5-7.2-11.2-11.2c0,0,0.6-1.8,3.6-1.2
	c3,0.6,3.7-0.3,3-1.8s-11.6-19-4.9-21"/>
<path class="st3" d="M112.6,317.9c-0.1,0.1-5.7-14.8-12.3-33.2c-6.7-18.4-12-33.3-11.9-33.3c0.1-0.1,5.7,14.8,12.3,33.2
	C107.4,303,112.7,317.9,112.6,317.9z"/>
<path class="st3" d="M97.2,275.8c-0.1-0.1,0.4-1.7,1.3-3.7c0.9-1.9,1.8-3.5,1.9-3.4c0.1,0.1-0.6,1.6-1.5,3.6
	C98,274.2,97.3,275.8,97.2,275.8z"/>
<path class="st3" d="M89.2,272.4c0-0.1,1.9,0.2,4.1,1.2c2.2,0.9,3.8,1.9,3.7,2s-1.8-0.7-3.9-1.6C91,273.1,89.2,272.6,89.2,272.4z"/>
<path class="st3" d="M102.1,289.3c-0.1-0.1,1.3-1.8,3.1-4c1.8-2.1,3.3-3.8,3.5-3.7c0.1,0.1-1.3,1.8-3.1,4
	C103.7,287.8,102.1,289.4,102.1,289.3z"/>
<path class="st3" d="M91.3,287.1c0-0.1,2.6,0.1,5.6,0.7c3,0.6,5.5,1.3,5.4,1.5s-2.5-0.4-5.5-1C93.8,287.6,91.3,287.3,91.3,287.1z"/>
<path class="st3" d="M94.7,300.2c0-0.1,2.7,0.1,5.9,0.6c3.2,0.5,5.8,1,5.8,1.1s-2.7-0.1-5.9-0.6C97.2,300.8,94.6,300.3,94.7,300.2z"
	/>
<path class="st3" d="M106.6,301.6c-0.1-0.1,1.7-1.6,3.6-3.7c1.9-2.1,3.1-4.1,3.2-4c0.1,0.1-0.9,2.1-2.9,4.3
	C108.7,300.4,106.7,301.7,106.6,301.6z"/>
<path class="st5" d="M268,214.2c0,0,0-0.1,0-0.3s0.1-0.5,0.1-0.9c0-0.2,0.1-0.4,0.1-0.7c0-0.2,0-0.5,0-0.8c0-0.3,0-0.6,0-0.9
	c0-0.3-0.1-0.7-0.1-1c-0.2-1.8-0.7-3.5-1.4-5.2c-1-2.2-2.4-4.1-4.2-5.7l-0.7-0.7c-0.2-0.2-0.5-0.4-0.9-0.6c-0.5-0.4-1.2-0.8-1.8-1.1
	c-1.3-0.7-2.7-1.2-4.2-1.5c-0.8-0.2-1.5-0.3-2.3-0.4c-0.4-0.1-0.8,0-1.2-0.1h-0.6c-0.2,0-0.4,0.1-0.6,0.1c-1.7,0.1-3.4,0.5-5,1.1
	c-3.4,1.3-6.3,3.7-8.3,6.9c-2.1,3.3-2.9,7.4-2.4,11.3c0.1,0.2,0.1,0.5,0.1,0.8v0.1v0.1l-5.5,7.6L229,222l8-1.2h0.1l0.1,0.1
	c2.3,3.5,5.8,6,9.9,7c0.6,0.2,1.2,0.3,1.8,0.4l0.9,0.1c0.3,0.1,0.6,0,0.9,0.1c2.3,0.1,4.6-0.4,6.7-1.2c1.8-0.7,3.5-1.8,5-3l1-0.9
	l0.8-0.9c0.2-0.3,0.5-0.6,0.7-0.9c0.2-0.3,0.5-0.6,0.6-0.9c0.6-1,1.2-2.1,1.6-3.2l0.4-1.2c0.1-0.4,0.2-0.7,0.2-0.9l0.1-0.5
	C268,214.3,268,214.2,268,214.2c0,0.1,0,0.1-0.1,0.2c0,0.1-0.1,0.3-0.1,0.5c-0.1,0.2-0.1,0.5-0.2,0.9l-0.4,1.2
	c-0.4,1.2-0.9,2.2-1.5,3.2c-0.2,0.3-0.4,0.6-0.6,0.9c-0.2,0.3-0.4,0.6-0.7,0.9l-0.8,0.9l-1,0.9c-1.5,1.3-3.2,2.4-5,3.1
	c-2.1,0.9-4.4,1.3-6.8,1.2c-0.3,0-0.6,0-0.9-0.1l-0.9-0.1c-0.7-0.1-1.3-0.2-1.9-0.4c-1.3-0.3-2.6-0.8-3.7-1.4
	c-2.6-1.3-4.7-3.3-6.3-5.7l0.1,0.1l-8,1.3l-0.3,0.1l0.2-0.2c1.8-2.4,3.6-5,5.5-7.6v0.1c-0.1-0.2-0.1-0.5-0.1-0.8
	c-0.5-4,0.3-8,2.4-11.4c1.9-3.2,4.9-5.6,8.4-6.9c1.6-0.6,3.3-1,5-1.1c0.2,0,0.4-0.1,0.6-0.1h0.6c0.4,0,0.8,0,1.2,0.1
	c0.8,0.1,1.6,0.2,2.4,0.4c2.2,0.5,4.3,1.4,6,2.7c0.3,0.2,0.5,0.4,0.9,0.6l0.7,0.7c3.2,2.9,5.2,6.8,5.5,11c0,0.4,0.1,0.7,0.1,1
	c0,0.3,0,0.7,0,0.9c0,0.3,0,0.5,0,0.8c0,0.2-0.1,0.5-0.1,0.7c-0.1,0.4-0.1,0.7-0.1,0.9C268.1,214.1,268,214.2,268,214.2z"/>
<polygon class="st8" points="256.8,204.8 258.9,220.2 243.8,220.2 246,204.8 "/>
<path class="st3" d="M247.2,207c0.2,0.5,0.4,1,0.8,1.5c0.4,0.5,0.8,0.9,1.3,1.2c0.7,0.4,1.3,0.5,2.1,0.5c0.7,0,1.5-0.1,2.1-0.5
	c0.5-0.3,1-0.7,1.3-1.2c0.3-0.5,0.5-1,0.7-1.5c0,0.2,0,0.3-0.1,0.5c-0.1,0.4-0.2,0.8-0.5,1.2c-0.3,0.5-0.8,1-1.3,1.3
	c-0.7,0.4-1.5,0.5-2.2,0.5c-0.8,0-1.5-0.2-2.2-0.5c-0.5-0.3-1-0.7-1.3-1.3c-0.2-0.4-0.4-0.7-0.5-1.1
	C247.2,207.3,247.2,207.1,247.2,207z"/>
<polyline class="st10" points="163.5,169.7 163.5,206.5 154.1,197.1 85.7,197.1 85.7,169.7 163.5,169.7 "/>
<circle class="st10" cx="144.6" cy="184.3" r="10.3"/>
<circle class="st14" cx="144.6" cy="184.3" r="10.3"/>
<path class="st3" d="M92.9,181c0-0.1,8-0.2,17.9-0.2s17.9,0.1,17.9,0.2s-8,0.2-17.9,0.2S92.9,181.1,92.9,181z"/>
<path class="st3" d="M92.9,184.9c0-0.1,8-0.2,17.9-0.2s17.9,0.1,17.9,0.2s-8,0.1-17.8,0.1S92.9,185,92.9,184.9z"/>
<path class="st3" d="M110.1,188.8c0-0.1,4.2-0.2,9.3-0.2c5.1,0,9.3,0.1,9.3,0.2s-4.2,0.1-9.3,0.1
	C114.3,188.9,110.1,188.9,110.1,188.8z"/>
<path class="st3" d="M109.4,176.9c0-0.1,4.3-0.2,9.7-0.2c5.4,0,9.7,0.1,9.7,0.2c0,0.1-4.3,0.2-9.7,0.2
	C113.8,177.1,109.4,177,109.4,176.9z"/>
<path class="st3" d="M145.5,184.2c0.9-0.4,1.5-1.4,1.5-2.4c0.1-1.3-1-2.4-2.3-2.6c-1.3-0.1-2.4,1-2.6,2.3c0,0.1,0,0.2,0,0.3
	c0,1,0.6,1.9,1.6,2.4c-3.7,0.6-3.5,4.6-3.5,4.6l8.9-0.1C149.1,188.7,149.2,184.7,145.5,184.2z"/>
<polyline class="st10" points="148.2,222.2 148.2,237.4 144.4,233.5 116.3,233.5 116.3,222.2 148.2,222.2 "/>
<path class="st3" d="M130.2,225.8c0-0.1,3.1-0.1,6.9-0.1s6.9,0.1,6.9,0.1s-3.1,0.1-6.9,0.1S130.2,225.9,130.2,225.8z"/>
<path class="st3" d="M139.6,229c0.7-0.1,1.3-0.2,1.9-0.1c0.7-0.1,1.3,0,1.9,0.1c-0.7,0.1-1.3,0.2-1.9,0.1
	C140.9,229.2,140.2,229.1,139.6,229z"/>
<path class="st3" d="M138.6,229.8c-0.1,0-0.2-0.2-0.3-0.5c-0.1-0.2-0.2-0.5-0.2-0.5c0.1-0.1,0.2,0.1,0.4,0.4
	C138.7,229.6,138.7,229.8,138.6,229.8z"/>
<path class="st3" d="M131.5,228.9c0.9-0.1,1.8-0.2,2.7-0.1c0.9-0.1,1.8,0,2.7,0.1c-0.9,0.1-1.8,0.2-2.7,0.1
	C133.2,229,132.3,229,131.5,228.9z"/>
<path class="st3" d="M130.8,229.8c-0.1,0.1-0.2-0.2-0.4-0.5c-0.2-0.3-0.2-0.5-0.2-0.5c0.1-0.1,0.2,0.2,0.4,0.5
	C130.7,229.5,130.9,229.8,130.8,229.8z"/>
<path class="st3" d="M123,228.8c0.9-0.1,1.9-0.2,2.8-0.1c0.9-0.1,1.9,0,2.8,0.1c-0.9,0.1-1.9,0.2-2.8,0.1
	C124.9,229,123.9,228.9,123,228.8z"/>
<path class="st3" d="M122.3,229.3c-0.1,0.1-0.2-0.1-0.4-0.4c-0.1-0.2-0.2-0.5-0.2-0.5c0.1-0.1,0.2,0.1,0.4,0.4
	C122.2,229,122.3,229.3,122.3,229.3z"/>
<path class="st3" d="M119.1,228.6c0-0.1,0.4-0.1,0.9-0.1s0.9,0.1,0.9,0.1c0,0.1-0.4,0.1-0.9,0.1S119.1,228.7,119.1,228.6z"/>
<g>
	<ellipse class="st8" cx="169.4" cy="80.9" rx="77" ry="51.4"/>
	<ellipse class="st8" cx="169.4" cy="80.9" rx="51.4" ry="77"/>
	<g>
		<g>
			<path class="st3" d="M167.5,63.7c2.2,0,4.1-0.8,5.7-2.4c1.6-1.6,2.4-3.5,2.4-5.7c0-2.3-0.8-4.3-2.4-5.8c-1.6-1.5-3.5-2.3-5.7-2.3
				c-2.2,0-4.1,0.8-5.7,2.4c-1.6,1.6-2.4,3.5-2.4,5.7c0,2.2,0.8,4.1,2.4,5.7C163.5,62.9,165.3,63.7,167.5,63.7z"/>
			<path class="st3" d="M184.8,102.3h-5.3c0,0-2.6,0-2.7-2.4c-0.3-3.2-0.5-5.8-0.5-6.5l-0.3-7.7c0-0.5,0-1.1,0-1.8c0-1.7,0-3,0-4
				c0-0.4,0-0.7,0-1.2l0.1-3.3v-7.7c-7.6,3.6-14.4,5.9-20.3,6.9l-1.2,5.5c1.1,0.2,2.1,0.3,3.2,0.3c1.4,0,2.7-0.2,4-0.7l0.2,11
				c0,2.7,0.1,6.1,0.1,9.6c0.1,2.2-2.2,2.2-2.2,2.2H154v11.8h7.9c0,0,0,0,0,0c0,0,0,0,0.1,0h22.8V102.3z"/>
		</g>
	</g>
</g>
</svg>
