<?xml version="1.0" encoding="utf-8"?>
<!-- Generator: Adobe Illustrator 22.0.0, SVG Export Plug-In . SVG Version: 6.00 Build 0)  -->
<svg version="1.1" id="Capa_1" xmlns="http://www.w3.org/2000/svg" xmlns:xlink="http://www.w3.org/1999/xlink" x="0px" y="0px"
	 viewBox="0 0 320 359.1" style="enable-background:new 0 0 320 359.1;" xml:space="preserve">
<style type="text/css">
	.st0{clip-path:url(#SVGID_2_);}
	.st1{fill:#5B4A2C;}
	.st2{fill:#DA9126;}
	.st3{fill:#DD9529;}
	.st4{fill:#E2AD4B;}
	.st5{filter:url(#Adobe_OpacityMaskFilter);}
	.st6{fill:none;}
	.st7{mask:url(#SVGID_3_);}
	.st8{opacity:0.2;fill:#232E41;}
	.st9{fill:#3A678F;}
	.st10{fill:#C1A794;}
	.st11{fill:#FFFFFF;}
	.st12{fill:#4BA34B;}
	.st13{fill:#55C655;}
	.st14{fill:#B79F8D;}
	.st15{fill:#E1C3AC;}
	.st16{fill:#CACACA;}
	.st17{fill:#E9E9E9;}
	.st18{fill:#F8E7CE;}
	.st19{clip-path:url(#SVGID_2_);fill:#4BA34B;}
	.st20{clip-path:url(#SVGID_2_);fill:#CACACA;}
	.st21{clip-path:url(#SVGID_2_);fill:#949494;}
	.st22{fill:#FFFDFC;}
	.st23{font-family:'Roboto-Black';}
	.st24{font-size:32.96px;}
</style>
<g>
	<defs>
		<rect id="SVGID_1_" x="-41.9" y="0" width="411.9" height="412"/>
	</defs>
	<clipPath id="SVGID_2_">
		<use xlink:href="#SVGID_1_"  style="overflow:visible;"/>
	</clipPath>
	<g class="st0">
		<g>
			<path class="st1" d="M133.6,356.5c-39.9,0-72.4-32.5-72.4-72.4s32.5-72.4,72.4-72.4h60.9c39.9,0,72.4,32.5,72.4,72.4
				s-32.5,72.4-72.4,72.4H133.6z"/>
		</g>
		<path class="st2" d="M254.6,271.8v12.4c0,27.8-19,51.3-44.8,58c-1.7,0.4-3.4,0.8-5.1,1.1c-1.1,0.2-2.2,0.3-3.3,0.5
			c-2.3,0.3-4.6,0.4-6.9,0.4h-60.9c-33.1,0-60-26.9-60-60v-12.4H254.6z"/>
		<path class="st3" d="M201.5,308v35.8c-2.3,0.3-4.6,0.4-6.9,0.4h-3.3V308H201.5z"/>
		<path class="st3" d="M209.8,308v34.2c-1.7,0.4-3.4,0.8-5.1,1.1V308H209.8z"/>
		<path class="st4" d="M254.6,271.8c0,33.1-26.9,60-60,60h-60.9c-33.1,0-60-26.9-60-60s26.9-60,60-60h60.9
			C227.7,211.8,254.6,238.7,254.6,271.8z"/>
		<path class="st3" d="M206.6,325.6h-85c-23.1,0-41.8-18.7-41.8-41.8v-24c0-23.1,18.7-41.8,41.8-41.8h85c23.1,0,41.8,18.7,41.8,41.8
			v24C248.4,306.9,229.7,325.6,206.6,325.6z"/>
		<path class="st4" d="M86,271.8c0-26.3,21.4-47.6,47.7-47.6h60.9c17.2,0,32.4,9.2,40.7,22.9c4.4,7.2,6.9,15.7,6.9,24.7
			c0,26.3-21.4,47.7-47.7,47.7h-60.9c-14.3,0-27.1-6.3-35.9-16.3C90.4,294.7,86,283.8,86,271.8z"/>
		<path class="st4" d="M109.5,298.3l115.6-47.1c3.9-1.6,8.5,0.2,10,4.1c2.1,5.2,3.2,10.8,3.2,16.5c0,24.1-19.6,43.8-43.8,43.8h-60.9
			c-9.1,0-17.8-2.8-25.1-7.9C105.1,305.2,105.6,299.9,109.5,298.3z"/>
		<defs>
			<filter id="Adobe_OpacityMaskFilter" filterUnits="userSpaceOnUse" x="101.9" y="253.6" width="124.4" height="36.4">
				<feFlood  style="flood-color:white;flood-opacity:1" result="back"/>
				<feBlend  in="SourceGraphic" in2="back" mode="normal"/>
			</filter>
		</defs>
		<mask maskUnits="userSpaceOnUse" x="101.9" y="253.6" width="124.4" height="36.4" id="SVGID_3_">
			<g class="st5">
				<g>
					<rect x="101.9" y="253.6" class="st6" width="124.4" height="36.4"/>
				</g>
			</g>
		</mask>
		<g class="st7">
			<rect x="101.9" y="253.6" class="st6" width="124.4" height="36.4"/>
		</g>
		<path class="st3" d="M179.8,312.5L179.8,312.5c0-1.7,1.4-3.1,3.1-3.1h11.7c19.8,0,36.1-15.4,37.5-34.8c0.1-1.6,1.5-2.8,3.1-2.8
			l0,0c1.8,0,3.2,1.5,3.1,3.4c-1.7,22.6-20.6,40.4-43.7,40.4h-11.7C181.1,315.6,179.8,314.2,179.8,312.5z"/>
		<path class="st3" d="M171,309.4c1.7,0,3.1,1.4,3.1,3.1v0c0,1.7-1.4,3.1-3.1,3.1c-1.7,0-3.1-1.4-3.1-3.1v0
			C167.9,310.8,169.3,309.4,171,309.4"/>
	</g>
	<g class="st0">
		<path class="st8" d="M191.5,211.8v19.6c0,6.8-5.5,13.1-12.3,13.1c-3.4,0-6.5-2.2-8.7-4.4c-2.2-2.2-3.6-5.3-3.6-8.7v-19.6H191.5z"
			/>
		<path class="st9" d="M186.3,71.5h-0.9c-4,0-7.2-3.2-7.2-7.2v-2.5v9.7H186.3z"/>
		<path class="st9" d="M170.1,71.5h0.9c4,0,7.2-3.2,7.2-7.2v-2.5v9.7H170.1z"/>
		<path class="st10" d="M208.2,186.7c0-0.4,0.4-0.8,0.8-0.8h2.8v1.6H209C208.6,187.5,208.2,187.1,208.2,186.7z"/>
		<g>
			<path class="st11" d="M137,71.5h41.1c3.8,0,6.9,3.1,6.9,6.9V89c0,3.8-3.1,6.9-6.9,6.9H137c-3.8,0-6.9-3.1-6.9-6.9V78.4
				C130.1,74.6,133.2,71.5,137,71.5z"/>
			<path class="st11" d="M137,77.9h41.1c3.8,0,6.9,3.1,6.9,6.9v10.6c0,3.8-3.1,6.9-6.9,6.9H137c-3.8,0-6.9-3.1-6.9-6.9V84.8
				C130.1,81,133.2,77.9,137,77.9z"/>
		</g>
		<g>
			<path class="st12" d="M135,84.8V-17.3h58.3V84.8c0,2.9-2.4,5.3-5.3,5.3h-47.7C137.3,90.1,135,87.7,135,84.8z"/>
			<path class="st13" d="M135-17.3h46.2V83.5c0,3.7-3,6.6-6.6,6.6h-32.9c-3.7,0-6.6-3-6.6-6.6V-17.3z"/>
			<path class="st12" d="M135,83.2V65c0.2,0,0.4,0,0.6,0h57.1c0.2,0,0.4,0,0.6,0v18.2c0,2.9-2.4,5.3-5.3,5.3h-47.7
				C137.3,88.4,135,86.1,135,83.2z"/>
			<g>
				<path class="st14" d="M164.1,102.3L164.1,102.3c17,0,33,12.8,38.4,21.2c8.1,12.7,8.3,27.9,8.3,27.9l-57.3,12.2l-37.1-0.7V150
					C116.4,123.7,137.8,102.3,164.1,102.3z"/>
				<path class="st15" d="M216.5,196.9c-2.7,0.6-5.4,0-7.5-1.4c-2.2-1.4-3.8-3.6-4.4-6.3l-6.4-29.1l-0.6-2.7l13.8-3l3.4,15.6
					l0.2,1.1l0.3,1.2l0.2,1.1l2.1,9.5l2,9c0,0.1,0,0.2,0,0.3c0,0,0,0.1,0,0.1C220,194.5,218.6,196.5,216.5,196.9z"/>
				<path class="st15" d="M172.1,137.2h14.1v98.6c0,3.9-3.2,8.7-7.1,8.7l0,0c-3.9,0-7.1-4.8-7.1-8.7V137.2z"/>
				<path class="st11" d="M183.9,232.5v3.1c0,2.5-1.8,5.5-4.3,5.8c-2.8,0.3-5.2-2.8-5.2-5.6v-3.3c0-0.9,0.7-1.6,1.6-1.6h6.4
					C183.2,230.9,183.9,231.6,183.9,232.5z"/>
				<path class="st11" d="M214.1,188.8l-0.7-3.2c-0.2-0.8,0.3-1.7,1.2-1.8l3.1-0.7l2,9c0,0.1,0.1,0.3,0.1,0.4
					C217.2,193,214.6,191.3,214.1,188.8z"/>
				<path class="st15" d="M153.5,162.2h14.1v24.3c0,3-2.5,5.5-5.5,5.5H159c-3,0-5.5-2.5-5.5-5.5V162.2z"/>
				<path class="st15" d="M135,160.2h14.1v22.7c0,3-2.5,5.5-5.5,5.5h-3.2c-3,0-5.5-2.5-5.5-5.5V160.2z"/>
				<path class="st15" d="M116.4,156.6h14.1v22.7c0,3-2.5,5.5-5.5,5.5h-3.2c-3,0-5.5-2.5-5.5-5.5V156.6z"/>
				<path class="st15" d="M172.1,159.4v24.4v2.2c0-1.2-1-2.2-2.2-2.2l0,0c-1.2,0-2.2,1-2.2,2.2v-2.2v-24.4H172.1z"/>
				<path class="st15" d="M153.5,156.9v24.4v2.2c0-1.2-1-2.2-2.2-2.2l0,0c-1.2,0-2.2,1-2.2,2.2v-2.2v-24.4H153.5z"/>
				<path class="st15" d="M135,154.5v24.4v2.2c0-1.2-1-2.2-2.2-2.2l0,0c-1.2,0-2.2,1-2.2,2.2v-2.2v-24.4H135z"/>
				<path class="st15" d="M116.4,172.5v-17.9c0-16.9,8.8-31.7,22-40.2c5.9-3.8,12.7-6.3,20-7.2c1.9-0.2,3.8,4.6,5.7,4.6
					c9.5,0,18.3,2.8,25.7,7.5c13.2,8.5,18.4,17.9,21.7,35.1l0.3,5.8l-24.2-0.1l-34.1,13L116.4,172.5z"/>
				<rect x="138.4" y="90" class="st15" width="51.4" height="40.7"/>
				<path class="st15" d="M181,114.9V90h8.8v29.4C187,117.6,184.1,116.1,181,114.9z"/>
				<path class="st14" d="M181,109.3V90h8.8v29.4c-1.4-0.9-2.7-1.7-4.2-2.4C182.8,115.5,181,112.5,181,109.3z"/>
			</g>
			<path class="st16" d="M198.1,96.8V76.9c0-3-2.4-5.5-5.5-5.5h-57c-3,0-5.5,2.4-5.5,5.5v19.9c0,3,2.4,5.5,5.5,5.5h57
				C195.6,102.3,198.1,99.9,198.1,96.8z"/>
			<path class="st17" d="M186.6,96.8V76.9c0-3-2.4-5.5-5.5-5.5h-45.5c-3,0-5.5,2.4-5.5,5.5v19.9c0,3,2.4,5.5,5.5,5.5h45.5
				C184.1,102.3,186.6,99.9,186.6,96.8z"/>
			<path class="st18" d="M116.6,150.7c1.2-15.3,9.6-28.5,21.8-36.3v-5.5c0-2,1.6-3.6,3.6-3.6l0,0c2,0,3.6,1.6,3.6,3.6v6.2
				c0,2-1,3.8-2.7,4.9l-0.6,0.4c-10.8,6.9-17.6,18.3-18.6,30.9c-0.1,1.8-1.7,3.3-3.6,3.3l0,0C118,154.6,116.4,152.8,116.6,150.7z"/>
		</g>
		<g>
			<path class="st10" d="M175.6,223.3h6.9c0.3,0,0.6,0.3,0.6,0.6l0,0c0,0.3-0.3,0.6-0.6,0.6h-6.9c-0.3,0-0.6-0.3-0.6-0.6l0,0
				C175.1,223.6,175.3,223.3,175.6,223.3z"/>
			<path class="st10" d="M175.6,221h6.9c0.3,0,0.6,0.3,0.6,0.6l0,0c0,0.3-0.3,0.6-0.6,0.6h-6.9c-0.3,0-0.6-0.3-0.6-0.6l0,0
				C175.1,221.2,175.3,221,175.6,221z"/>
		</g>
		<g>
			<path class="st10" d="M175.6,202.1h6.9c0.3,0,0.6,0.3,0.6,0.6l0,0c0,0.3-0.3,0.6-0.6,0.6h-6.9c-0.3,0-0.6-0.3-0.6-0.6l0,0
				C175.1,202.3,175.3,202.1,175.6,202.1z"/>
			<path class="st10" d="M175.6,199.7h6.9c0.3,0,0.6,0.3,0.6,0.6l0,0c0,0.3-0.3,0.6-0.6,0.6h-6.9c-0.3,0-0.6-0.3-0.6-0.6l0,0
				C175.1,200,175.3,199.7,175.6,199.7z"/>
		</g>
		<g>
			<path class="st10" d="M215.6,173.5l-3.7,0.9c-0.3,0.1-0.6-0.1-0.7-0.4c0,0,0-0.1,0-0.1c0-0.3,0.2-0.5,0.4-0.6l3.7-0.9
				L215.6,173.5z"/>
			<path class="st10" d="M215.1,171.2l-3.8,0.9c-0.3,0.1-0.6-0.1-0.7-0.4c0,0,0-0.1,0-0.1c0-0.2,0.2-0.5,0.4-0.5l3.8-0.9
				L215.1,171.2z"/>
		</g>
		<path class="st15" d="M186.2,177.1v-8.7c0-1.4,1.2-2.6,2.6-2.6l1.9,0c5,0,9.4,3.4,10.5,8.3l2,9l7.1-7.1l-7.3-25.3l-26.9,3.2
			l4.5,27.2"/>
	</g>
	<path class="st19" d="M138.4,31.5L138.4,31.5c2,0,3.6,1.6,3.6,3.6v19.5c0,2-1.6,3.6-3.6,3.6l0,0c-2,0-3.6-1.6-3.6-3.6V35.1
		C134.8,33.1,136.4,31.5,138.4,31.5z"/>
	<ellipse transform="matrix(0.2053 -0.9787 0.9787 0.2053 31.199 202.2428)" class="st20" cx="140.1" cy="81.9" rx="6.5" ry="6.5"/>
	<path class="st21" d="M135.6,81.9c0-2.5,2-4.5,4.5-4.5c2.5,0,4.5,2,4.5,4.5c0,0.2,0,0.4,0,0.5c-0.3,2.2-2.2,4-4.5,4
		c-2.3,0-4.2-1.7-4.5-4C135.6,82.3,135.6,82.1,135.6,81.9z"/>
</g>
<rect x="101.9" y="256.3" class="st6" width="122.4" height="52.7"/>
<text transform="matrix(1 0 0 1 103.7912 280.9844)" class="st22 st23 st24">INICIAR</text>
</svg>
