<?xml version="1.0" encoding="utf-8"?>
<!-- Generator: Adobe Illustrator 22.0.0, SVG Export Plug-In . SVG Version: 6.00 Build 0)  -->
<svg version="1.1" id="Capa_1" xmlns="http://www.w3.org/2000/svg" xmlns:xlink="http://www.w3.org/1999/xlink" x="0px" y="0px"
	 viewBox="0 0 320 359.1" style="enable-background:new 0 0 320 359.1;" xml:space="preserve">
<style type="text/css">
	.st0{opacity:0.2;fill:url(#SVGID_1_);enable-background:new    ;}
	.st1{fill:#55C655;}
	.st2{fill:#F5B041;stroke:#FFFFFF;stroke-width:5;stroke-miterlimit:10;}
	.st3{fill:none;}
	.st4{enable-background:new    ;}
	.st5{fill:#FFFFFF;}
</style>
<radialGradient id="SVGID_1_" cx="413.4513" cy="538.5427" r="54.1769" gradientTransform="matrix(1.4655 0 0 -0.129 -455.9129 418.872)" gradientUnits="userSpaceOnUse">
	<stop  offset="0" style="stop-color:#000000"/>
	<stop  offset="1" style="stop-color:#FFFFFF"/>
</radialGradient>
<ellipse class="st0" cx="150" cy="349.4" rx="111.8" ry="10"/>
<g>
	<ellipse class="st1" cx="154" cy="151.7" rx="151.7" ry="151.7"/>
</g>
<polygon class="st2" points="281.4,290.2 217.8,258.8 238.9,326.6 251.1,307.6 268.7,328.2 278.3,319.9 260.7,299.3 "/>
<rect x="35" y="125" class="st3" width="245.3" height="72"/>
<g class="st4">
	<path class="st5" d="M51.7,173.8h-9.5v-46.2h9.5V173.8z"/>
	<path class="st5" d="M98.1,173.8h-9.5L70,143.3v30.4h-9.5v-46.2H70L88.6,158v-30.5h9.5V173.8z"/>
	<path class="st5" d="M116.5,173.8H107v-46.2h9.5V173.8z"/>
	<path class="st5" d="M161.6,158.4c-0.4,5-2.2,8.9-5.5,11.7c-3.3,2.9-7.7,4.3-13.1,4.3c-5.9,0-10.6-2-14-6c-3.4-4-5.1-9.5-5.1-16.4
		v-2.8c0-4.4,0.8-8.4,2.3-11.7c1.6-3.4,3.8-6,6.7-7.8c2.9-1.8,6.3-2.7,10.1-2.7c5.3,0,9.6,1.4,12.9,4.3c3.3,2.9,5.1,6.9,5.7,12h-9.5
		c-0.2-3-1.1-5.1-2.5-6.5c-1.4-1.3-3.6-2-6.5-2c-3.2,0-5.5,1.1-7.1,3.4s-2.4,5.8-2.4,10.6v3.5c0,5,0.8,8.6,2.3,11
		c1.5,2.3,3.9,3.5,7.2,3.5c2.9,0,5.1-0.7,6.6-2s2.3-3.4,2.5-6.2H161.6z"/>
	<path class="st5" d="M178,173.8h-9.5v-46.2h9.5V173.8z"/>
	<path class="st5" d="M213.5,164.2h-16.7l-3.2,9.5h-10.1l17.2-46.2h8.8l17.3,46.2h-10.1L213.5,164.2z M199.4,156.5h11.6l-5.8-17.3
		L199.4,156.5z"/>
	<path class="st5" d="M248.2,156.8h-7.6v16.9h-9.5v-46.2h17.2c5.5,0,9.7,1.2,12.6,3.7c3,2.4,4.4,5.9,4.4,10.3c0,3.2-0.7,5.8-2,7.9
		c-1.4,2.1-3.4,3.8-6.2,5l10,18.9v0.4h-10.2L248.2,156.8z M240.6,149.1h7.7c2.4,0,4.2-0.6,5.6-1.8c1.3-1.2,2-2.9,2-5
		c0-2.2-0.6-3.9-1.9-5.1c-1.2-1.2-3.1-1.9-5.7-1.9h-7.6V149.1z"/>
</g>
</svg>
