<?xml version="1.0" encoding="utf-8"?>
<!-- Generator: Adobe Illustrator 21.1.0, SVG Export Plug-In . SVG Version: 6.00 Build 0)  -->
<svg version="1.1" id="Capa_1" xmlns="http://www.w3.org/2000/svg" xmlns:xlink="http://www.w3.org/1999/xlink" x="0px" y="0px"
	 viewBox="0 0 512 512" style="enable-background:new 0 0 512 512;" xml:space="preserve">
<style type="text/css">
	.st0{fill:none;stroke:#000000;stroke-width:10;stroke-miterlimit:10;}
	.st1{fill:none;stroke:#000000;stroke-width:5;stroke-miterlimit:10;}
</style>
<path class="st0" d="M509.4,388.5l-22.8-27.9c-3.7-4.5-5.7-10.1-5.7-16v-26.4v-16.8v-48.8l0,0V117.5c0-24.7-20.1-44.8-44.8-44.8
	H268.6l0,0H76.3c-24.7,0-44.8,20.1-44.8,44.8v183.8v9.8v33c0,5.9-2,11.4-5.7,15.9L2.7,388.4C0.9,390.5,0,393.2,0,396v13
	c0,16.7,13.6,30.3,30.3,30.3h451.3c16.7,0,30.3-13.6,30.3-30.3v-13C512.1,393.3,511.2,390.6,509.4,388.5z M304.7,395.1
	c0,8.5-6.9,15.5-15.5,15.5h-66.1c-8.5,0-15.5-6.9-15.5-15.5v-3.3h97v3.3H304.7z M436.2,318.3v28.8H76.1v-33.9v-11.8v-184l0.1-0.1
	h212.6l0,0H436c0.1,0,0.1,0.1,0.1,0.1v184v11.8v3l0,0v2.1H436.2z"/>
<path class="st1" d="M319.8,176.5H207c-3.2,0-6.3,0.9-9,2.5l-5.8-20.2c-0.9-3.2-4-5.5-7.3-5.5l0,0h-8.8h-16.7
	c-3.2,0-5.8,2.6-5.8,5.8v0.6c0,3.2,2.6,5.8,5.8,5.8h22l11.2,39.6l15.4,54.6c-8.8,2.2-15.3,10.1-15.3,19.6c0,10.7,8.4,19.5,18.8,20.1
	c-0.8,2.5-1.3,5.2-1,8.2c0.7,9.6,8.6,17.4,18.3,18.1c11.5,0.8,21.1-8.4,21.1-19.7c0-2.3-0.4-4.5-1.2-6.5h23
	c-0.9,2.7-1.4,5.7-0.9,8.8c1,9.3,8.8,16.7,18.2,17.4c11.5,0.8,21.1-8.3,21.1-19.7c0-11-9.1-19.8-20.1-19.8h-77.1
	c-3.8,0-6.9-2.9-7.1-6.7c-0.1-4,3-7.2,6.9-7.2h11.6H287h17.7c7.8,0,14.6-5.3,16.5-13l15.3-61.7c1.3-5.2,0.1-10.7-3.3-14.9
	C330,178.7,325,176.5,319.8,176.5z M290.4,299.4c3.6,0,6.5,2.9,6.5,6.5s-2.9,6.5-6.5,6.5s-6.5-2.9-6.5-6.5
	C283.9,302.3,286.8,299.4,290.4,299.4z M230.1,299.4c3.6,0,6.5,2.9,6.5,6.5s-2.9,6.5-6.5,6.5c-3.6,0-6.5-2.9-6.5-6.5
	C223.6,302.3,226.4,299.4,230.1,299.4z M206.2,205.1l-2.9-10.5c-0.4-1.6,0.2-2.8,0.6-3.3c0.4-0.5,1.4-1.6,3-1.6h12.3l3.3,15.3h-16.4
	V205.1z M209.9,218.3h15.6l3.1,14.2h-14.8L209.9,218.3z M224.3,259.1c-1.7,0-3.2-1.2-3.7-2.8l-3-10.7h13.9l2.9,13.4h-10.1
	L224.3,259.1L224.3,259.1z M257.4,259.1h-9.3l-2.9-13.4h12.2V259.1z M257.4,232.5h-15.2l-3.1-14.2h18.3V232.5z M257.4,205.1h-21.1
	l-3.3-15.3h24.6v15.3H257.4z M281.1,259.1h-10.5v-13.4h13.3L281.1,259.1z M286.7,232.5h-16v-14.2h19L286.7,232.5z M270.6,205.1
	v-15.3h25.1l-3.2,15.3H270.6z M308.5,256.2c-0.4,1.7-2,2.9-3.8,2.9h-10.1l2.8-13.4h13.7L308.5,256.2z M314.3,232.5h-14.1l3-14.2
	h14.6L314.3,232.5z M323.7,194.5l-2.6,10.6H306l3.2-15.3h10.9c1.7,0,2.6,0.9,3,1.5C323.5,191.7,324.2,193,323.7,194.5z"/>
</svg>
