<?xml version="1.0" encoding="utf-8"?>
<!-- Generator: Adobe Illustrator 22.0.0, SVG Export Plug-In . SVG Version: 6.00 Build 0)  -->
<svg version="1.1" id="Capa_1" xmlns="http://www.w3.org/2000/svg" xmlns:xlink="http://www.w3.org/1999/xlink" x="0px" y="0px"
	 viewBox="0 0 512 512" style="enable-background:new 0 0 512 512;" xml:space="preserve">
<style type="text/css">
	.st0{fill:#55C655;}
</style>
<g>
	<g>
		<g>
			<path class="st0" d="M458.8,70.8H53.2c-29.1,0-52.7,23.7-52.7,52.7v265c0,29.1,23.7,52.7,52.7,52.7h405.6
				c29.1,0,52.7-23.7,52.7-52.7v-265C511.5,94.4,487.9,70.8,458.8,70.8z M441.4,109.6L268.1,247.2c-7.1,5.6-17,5.6-24.2,0
				L70.6,109.6H441.4z M472.7,388.5c0,7.7-6.2,13.9-13.9,13.9H53.2c-7.7,0-13.9-6.2-13.9-13.9v-254l180.5,143.2
				c10.3,8.1,23.1,12.6,36.2,12.6c13.1,0,26-4.5,36.2-12.6l180.5-143.2L472.7,388.5L472.7,388.5z"/>
			<path class="st0" d="M458.8,441.7H53.2C23.9,441.7,0,417.8,0,388.5v-265c0-29.3,23.9-53.2,53.2-53.2h405.6
				c29.3,0,53.2,23.9,53.2,53.2v265C512,417.8,488.1,441.7,458.8,441.7z M53.2,71.2c-28.8,0-52.3,23.5-52.3,52.3v265
				c0,28.8,23.5,52.3,52.3,52.3h405.6c28.8,0,52.3-23.5,52.3-52.3v-265c0-28.8-23.5-52.3-52.3-52.3H53.2z M458.8,402.8H53.2
				c-7.9,0-14.3-6.4-14.3-14.3v-255l181.2,143.7c10.2,8.1,22.9,12.5,35.9,12.5c13,0,25.8-4.4,35.9-12.5l181.2-143.7v255
				C473.1,396.4,466.7,402.8,458.8,402.8z M39.8,135.4v253.1c0,7.4,6,13.4,13.4,13.4h405.6c7.4,0,13.4-6,13.4-13.4V135.4L292.5,278
				c-10.3,8.2-23.3,12.7-36.5,12.7c-13.2,0-26.2-4.5-36.5-12.7L39.8,135.4z M256,251.8c-4.5,0-8.8-1.5-12.4-4.3L69.3,109.2h373.4
				L268.4,247.5C264.8,250.3,260.4,251.8,256,251.8z M71.9,110.1l172.3,136.7c3.4,2.7,7.5,4.1,11.8,4.1c4.2,0,8.4-1.5,11.8-4.1
				l172.3-136.7C440.1,110.1,71.9,110.1,71.9,110.1z"/>
		</g>
	</g>
</g>
</svg>
