<?xml version="1.0" encoding="utf-8"?>
<!-- Generator: Adobe Illustrator 22.0.0, SVG Export Plug-In . SVG Version: 6.00 Build 0)  -->
<svg version="1.1" id="Capa_1" xmlns="http://www.w3.org/2000/svg" xmlns:xlink="http://www.w3.org/1999/xlink" x="0px" y="0px"
	 viewBox="0 0 320 359.1" style="enable-background:new 0 0 320 359.1;" xml:space="preserve">
<style type="text/css">
	.st0{fill:#E0E0E0;}
	.st1{fill:#F0F0F0;}
	.st2{fill:#F5F5F5;}
	.st3{fill:#FFFFFF;}
	.st4{fill:#EBEBEB;}
	.st5{fill:#263238;}
	.st6{fill:#455A64;}
	.st7{fill:#E6E6E6;}
	.st8{fill:#55C655;}
	.st9{fill:#E5BAAB;}
	.st10{fill:#FF9D00;}
	.st11{fill:#D78776;}
	.st12{fill:#FF725E;}
	.st13{opacity:0.2;fill:#55C655;enable-background:new    ;}
	.st14{opacity:0.2;fill:none;stroke:#FF9D00;stroke-miterlimit:10;enable-background:new    ;}
</style>
<g id="freepik--background-complete--inject-17">
	<rect x="14" y="246.2" class="st0" width="58.2" height="76.8"/>
	<rect x="45" y="246.2" class="st1" width="27.3" height="76.8"/>
	<rect x="26.2" y="256.6" class="st2" width="5.2" height="12.7"/>
	<rect x="26.2" y="306.4" class="st2" width="5.2" height="12.7"/>
	<path class="st3" d="M45,274.3c0,0.1-6.9,0.2-15.5,0.2S14,274.4,14,274.3s6.9-0.2,15.5-0.2S45,274.2,45,274.3z"/>
	<rect x="26.2" y="281.7" class="st2" width="5.2" height="12.7"/>
	<path class="st3" d="M45,299.4c0,0.1-6.9,0.2-15.5,0.2S14,299.5,14,299.4s6.9-0.2,15.5-0.2S45,299.3,45,299.4z"/>
	<rect x="50.8" y="256.6" class="st0" width="5.2" height="12.7"/>
	<rect x="62.1" y="256.6" class="st0" width="5.2" height="12.7"/>
	<rect x="50.8" y="280.8" class="st0" width="5.2" height="12.7"/>
	<rect x="62.1" y="280.8" class="st0" width="5.2" height="12.7"/>
	<rect x="50.8" y="304.9" class="st0" width="5.2" height="12.7"/>
	<rect x="62.1" y="304.9" class="st0" width="5.2" height="12.7"/>
	<rect x="9.7" y="243.6" class="st0" width="67" height="2.8"/>
	<path class="st3" d="M72.7,246.6c0,0.1-13,0.2-29.1,0.2s-29-0.1-29-0.2s13-0.2,29.1-0.2S72.7,246.5,72.7,246.6z"/>
	<rect x="256" y="267.3" class="st0" width="41.9" height="55.2"/>
	<rect x="278.2" y="267.3" class="st1" width="19.6" height="55.2"/>
	<rect x="264.8" y="274.8" class="st2" width="3.8" height="9.2"/>
	<rect x="264.8" y="310.6" class="st2" width="3.8" height="9.2"/>
	<path class="st3" d="M278.2,287.5c0,0.1-5,0.1-11.1,0.1s-11.1-0.1-11.1-0.1s5-0.1,11.1-0.1C273.3,287.4,278.2,287.5,278.2,287.5z"
		/>
	<rect x="264.8" y="292.8" class="st2" width="3.8" height="9.2"/>
	<path class="st3" d="M278.2,305.6c0,0.1-5,0.1-11.1,0.1s-11.1-0.1-11.1-0.1c0-0.1,5-0.1,11.1-0.1
		C273.3,305.4,278.2,305.5,278.2,305.6z"/>
	<rect x="282.4" y="274.8" class="st0" width="3.8" height="9.2"/>
	<rect x="290.6" y="274.8" class="st0" width="3.8" height="9.2"/>
	<rect x="282.4" y="292.2" class="st0" width="3.8" height="9.2"/>
	<rect x="290.6" y="292.2" class="st0" width="3.8" height="9.2"/>
	<rect x="282.4" y="309.5" class="st0" width="3.8" height="9.2"/>
	<rect x="290.6" y="309.5" class="st0" width="3.8" height="9.2"/>
	<rect x="252.8" y="265.4" class="st0" width="48.2" height="2"/>
	<path class="st3" d="M298.1,267.6c0,0.1-9.4,0.1-20.9,0.1s-20.9-0.1-20.9-0.1c0-0.1,9.4-0.1,20.9-0.1
		C288.8,267.4,298.1,267.5,298.1,267.6z"/>
	<path class="st0" d="M4.5,116.7h42.9c0,0,0-9.8-5.1-9.8c-3.7-0.1-7,2.4-7.9,6.1c0,0,0-18.3-9.2-15.6c-8.7,2.5-9.7,14.3-9.7,14.3
		s-1.6-5.9-6.3-2.6S4.5,116.7,4.5,116.7z"/>
	<path class="st4" d="M231.1,34.8h27.8c0,0,0-6.4-3.3-6.4c-2.4-0.1-4.6,1.6-5.1,3.9c0,0,0-11.9-6-10.1c-5.7,1.6-6.3,9.2-6.3,9.2
		s-1-3.8-4.1-1.7C231.1,32,231.1,34.8,231.1,34.8z"/>
	<path class="st0" d="M287.5,157.6h27.8c0,0,0-6.4-3.3-6.4c-2.4-0.1-4.6,1.6-5.1,3.9c0,0,0-11.9-6-10.1c-5.7,1.7-6.3,9.3-6.3,9.3
		s-1-3.8-4.1-1.7C287.5,154.8,287.5,157.6,287.5,157.6z"/>
</g>
<g id="freepik--Floor--inject-17">
	<path class="st5" d="M318.4,323c0,0.1-70.9,0.2-158.3,0.2S1.8,323.1,1.8,323s70.9-0.2,158.3-0.2S318.4,322.9,318.4,323z"/>
</g>
<polygon class="st6" points="265.6,41.4 157.2,41.4 157.2,48.6 258.4,48.6 258.4,301.6 157.2,301.6 157.2,308.8 265.6,308.8 "/>
<polygon class="st3" points="157.2,48.6 157.2,55.9 157.2,294.3 157.2,301.6 258.4,301.6 258.4,48.6 "/>
<polygon class="st5" points="50.4,301.6 50.4,48.6 157.2,48.6 157.2,41.4 43.1,41.4 43.1,308.8 157.2,308.8 157.2,301.6 "/>
<polygon class="st2" points="50.4,48.6 50.4,301.6 157.2,301.6 157.2,294.3 157.2,55.9 157.2,48.6 "/>
<path class="st2" d="M234.4,56.4c1.9,0.6,3.8,1.3,5.7,2.1v-9.9h-60.8h1.1C196.3,49.2,216.9,50.5,234.4,56.4z"/>
<path class="st2" d="M250,48.6v14.2c2.8,1.3,5.5,2.7,8.3,4.1V52.1c-2.6-1.2-5.3-2.4-8-3.5H250z"/>
<path class="st2" d="M81.6,268.2c5.4-1.9,10.5-4.3,15.4-7.3l-32.8-23.6c-5,2.3-10.1,4.8-13.8,7.4v20C58.2,270.3,71,271.8,81.6,268.2
	z"/>
<path class="st2" d="M138.1,208.7c-0.8-4.8-0.8-9.7-0.2-14.5l-16-3.8c-7.6-1.8-15.8,1.3-17.7,6.6c-4.4,13.2-16.2,26.1-30.3,35
	c-2,1.2-4.1,2.4-6.3,3.4l15.6,11.2l55.7-33.8C138.7,211.5,138.4,210.1,138.1,208.7z"/>
<path class="st2" d="M150,231c-4.2-4.2-7.6-9.2-9.8-14.8l-53.8,32.7l13.8,9.9c5.2-3.3,10.1-6.9,15.4-10.3
	C126.4,241.5,137.9,235.6,150,231z"/>
<path class="st2" d="M204.7,210.2l-62.4-15c-0.6,4.4-0.5,8.8,0.2,13.1c1.5,8.1,5.5,15.5,11.4,21.2c16.2-5.9,33-10,50.1-12.3
	C209.4,216.5,209.8,211.4,204.7,210.2z"/>
<path class="st2" d="M78,186l2.4-14l0.2-1.3c-0.4-0.8-0.8-1.5-1.1-2.2c-3.4,0.9-7.2,0.8-10.8,1.2c-3.6,0.4-7.4,1.6-8.6,4
	c-0.8,1.4-0.3,3,0.1,4.5c0.6,2.3,1.3,4.6,1.9,6.9c0.5,1.9,1.1,3.9,2.7,5.6c2,1.9,4.7,2.7,7.3,2.3c1.9-0.3,3.5-1.3,4.6-2.9
	C77.4,188.9,77.9,187.5,78,186z"/>
<polygon class="st7" points="211.2,157.5 250.4,169.2 258.4,163.6 258.4,147.4 232.2,139.6 "/>
<polygon class="st7" points="236.8,135.7 258.4,142.2 258.4,125.5 250,124.5 "/>
<path class="st0" d="M250,62.8V48.6h-10v61l-127.7-25l6.9-36h-9.8l-6.7,34.9l-52.3-2.2V88l51,2.1l-12.7,66.1l-34.9,4.3l-3.4-12.1v22
	c0.3,6,1.3,11.9,2.8,17.7c0.6,3,1.9,5.8,3.7,8.3c3.5,4.4,10.2,7.6,17.5,8.4c-2.6,3.7-5.8,7-9.4,9.7c-4.2,3.1-9.2,5.7-14.6,8.1v7.9
	l2.7-1.2l11,8l32.8,23.6l9.9,7.1c-9.6,5.3-19.1,9.6-29.2,10.7c-2.4,0.3-5.2,0.4-8.3,0.6c-6.4,0.2-12.7,0.8-19,1.9v6.9
	c0.5-0.1,1-0.2,1.5-0.3c5.9-1.1,12-1.7,18-1.8c3.2-0.2,6.3-0.3,9.1-0.6c17.5-2,32.2-10.9,47.8-20.4c16.2-9.9,34.5-21.1,58.3-24.4
	c25.2-3.6,53.3,2.6,73.3,16.1l0,0v-9.1c-11.9-6.4-24.8-10.8-38.1-13c7.2-5,12.4-11.4,14.4-18.3c0.1-0.4,0.2-0.8,0.3-1.2
	c0.3-1.4,0.5-2.9,0.5-4.4c0-0.8,0-1.5-0.1-2.3l23.1-6.9v-7.2l-25.1,7.5c-1.5-2.9-3.4-5.6-5.8-7.8l30.9-14.5v-3.7l-33.7,15.8
	c-5.4-4-11.5-6.8-18-8.3l-29.1-7.1l69.3-58.4l11.4,1.2v-6.7l-8.3-0.9L250,62.8L250,62.8z M111,91.3l36.1,7.1l-2,69.8l-46.7-11.4
	L111,91.3z M60.8,195c-1.8-2.3-2.7-5-3.3-7.4c-1.8-6.7-2.7-13.5-2.8-20.4l32.7-4.1l-2.1,10.7c-2,10.4-4.2,19.9-9.1,28.1
	C69.8,201.5,63.8,198.9,60.8,195z M67.8,235.5l-10.9-7.9c5.4-2.4,10.5-5.3,15.3-8.7c15.4-11.4,19.4-26.8,22.8-44.2l2.2-11.2
	l46.4,11.3c-2.7,6.2-4.6,12.7-5.6,19.4c-0.7,4.8-0.6,9.7,0.2,14.5c0.2,1.4,0.6,2.8,1,4.2l-55.7,33.9L67.8,235.5z M120.5,259.9
	c-3.5,2.1-6.9,4.2-10.3,6.2l-10-7.2L86.4,249l53.8-32.7c2.2,5.5,5.5,10.6,9.8,14.8c3.2,3.3,6.9,6.1,10.9,8.3
	C145.3,244.7,132.4,252.6,120.5,259.9L120.5,259.9z M203.4,189.3c15.1,3.7,24.3,14,21.9,24.5c-0.1,0.3-0.2,0.7-0.3,1
	c-2.1,7.2-8.4,13.9-17.3,18.1c-14.3-1-28.7,0.7-42.5,4.9c-4.2-2.2-8.1-5-11.4-8.4c-5.9-5.7-9.9-13.1-11.4-21.2
	c-0.7-4.3-0.8-8.8-0.2-13.1c0.9-6.7,2.8-13.2,5.5-19.4L203.4,189.3z M195.1,150.6l-27.3,23l-18.2-4.4l2-70l43.6,8.5L195.1,150.6z
	 M200,146.4v-37.7l36.3,7.1L200,146.4z"/>
<polygon class="st4" points="93.3,95.5 61.8,94.5 61.8,129 87.7,129 "/>
<rect x="56.8" y="135.5" class="st4" width="30" height="14.1"/>
<polygon class="st4" points="165.1,86.6 233.4,98.7 233.4,63 190.1,63 190.1,79.2 165.1,79.2 "/>
<polygon class="st4" points="148.4,83.9 148.4,54.3 127.4,54.3 123.7,79.2 "/>
<rect x="158.4" y="53.3" class="st0" width="21.7" height="15.1"/>
<polygon class="st7" points="193.5,172.6 229.4,183.8 245.1,172.9 206.6,161.5 "/>
<rect x="118.4" y="103" class="st4" width="20" height="44.4"/>
<rect x="105.1" y="145.2" class="st0" width="5" height="8.7"/>
<polygon class="st4" points="188.4,113.2 158.4,106.9 158.4,129.6 158.4,133.3 188.4,133.3 "/>
<rect x="155.1" y="146.3" class="st4" width="6.7" height="13"/>
<rect x="165.1" y="146.3" class="st4" width="6.7" height="13"/>
<rect x="175.1" y="146.3" class="st4" width="6.7" height="13"/>
<polygon class="st7" points="60.1,48.6 50.4,48.6 50.4,75.5 60.1,75.8 "/>
<polygon class="st7" points="95,77 99.6,48.6 68.5,48.6 68.5,76 "/>
<polygon class="st1" points="258.4,241.2 258.4,227.8 252.2,238.3 "/>
<path class="st5" d="M108.9,266.1c15.8-7.6,26.1-22.9,41.4-31.3c3.9-2.3,8.3-3.7,12.8-4.1c4-0.3,7.8,0.1,11.8-1.1
	c5.5-1.5,8.8-5.1,11.2-10.2c3-6.3,5.2-14.6,2.4-21.2c-2.7-6.3-7.6-11.4-13.9-14.3c-3.4-1.6-7-2.6-10.5-4c-2.3-0.9-5-1.9-6.9-3.6
	c-1.4-1.3-0.9-2.1,0.1-3.7c1.2-2.1,2.6-4,4.2-5.9c2.8-3.5,6.2-6.9,8.2-11c1.4-2.8,1.7-6,1.8-9.1c0.2-10.2,0.5-20.3,0.8-30.5
	c0-1.1-1.7-1.1-1.7,0c-0.6,9-1.1,18.1-0.9,27.2c0.1,3.3,0.3,6.9-0.9,10.1c-1.5,4.2-5,7.7-7.8,11.1c-2.2,2.5-4.2,5.3-5.8,8.3
	c-0.7,1.4-1.1,2.3-0.3,3.6c1.9,3,6.9,4.6,10.1,5.8c4,1.5,8,2.6,11.7,4.8c3.5,2.1,6.4,5.1,8.5,8.6c3.2,5,3.6,9.8,2.2,15.6
	c-1.8,7.4-5,14.9-12.9,17.2c-3.8,1.1-7.5,0.8-11.4,1.1c-3.3,0.3-6.5,1.1-9.6,2.4c-17.4,7.4-28.6,24.5-45,33.7
	C108.1,265.8,108.4,266.4,108.9,266.1L108.9,266.1z"/>
<path class="st8" d="M119.4,220c1.2-10.3-12.1-13.6-17.1-6c-4.6,6.9,8.1,27.3,8.1,27.3l0,0 M112.7,223.9c-2.3,1.6-5.4,1-7-1.3
	s-1-5.4,1.3-7s5.4-1,7,1.3l0,0C115.5,219.3,114.9,222.4,112.7,223.9L112.7,223.9z"/>
<path class="st9" d="M259.3,133.5c-3.6-5.2-6-7.8-11.1-9.7c-2-0.7-4-1.1-6.1-1.2l0,0c-4.9,1.5-8.3,1.5-13.2,0
	c-2.5,0.3-4.6-1.5-17.4,6.4c-5.3,3.3-8.9,5.4-15.2,8.7c-1.7,0.8-2.9,1.3-3.2,1.1c-1.2-0.7-13.8-23.8-13.8-23.8s-2.8-8-4-7.9
	s-9.6,0.3-9.7,1.6s0.4,7.1,1.3,7.9c0.9,0.8,4.2,2.9,4.2,2.9s14,36.2,19.2,35.7c3.8-0.4,18.4-6.4,25.9-9.7l1.7-0.6l1,21l-0.4,26.5
	l33-1.9l-0.5-27.2c0.3-6.8,0.1-9,0.8-14.6l9.9,3.8l1.8-11.2C262.3,138.6,260.9,136,259.3,133.5z"/>
<path class="st10" d="M169.9,101.4c-1.9-4.6-9.5-3.7-10.1,1.1c-0.9,6.7,12.1,12.1,12.1,12.1v-0.5
	C171.9,114.1,171.4,104.9,169.9,101.4z M167.9,105.2c-0.6,1.4-2.2,2.1-3.6,1.5c-1.4-0.6-2.1-2.2-1.5-3.6s2.2-2.1,3.6-1.5l0,0
	C167.8,102.2,168.5,103.8,167.9,105.2z"/>
<path class="st11" d="M168.3,112.8c0.5,0.2,0.9,0.4,1.3,0.8l1.3,0.9c0.2,0.2,0.5,0.4,0.8,0.6s0.5,0.6,0.6,1c0,0.4-0.2,0.7-0.6,0.9
	c-0.3,0.1-0.6,0.1-0.9,0c-0.5-0.2-0.9-0.4-1.3-0.6c-0.8-0.4-1.3-0.7-1.5-0.9l0.1-0.1c0,0.1,0,0.2,0,0.2s-0.1,0-0.1-0.1l-0.1-0.1h0.1
	c0.3,0.1,0.8,0.3,1.6,0.7c0.4,0.2,0.8,0.4,1.3,0.5c0.4,0.1,1-0.1,1-0.5c0-0.5-0.7-0.9-1.2-1.3l-1.2-1
	C169,113.5,168.6,113.2,168.3,112.8z"/>
<path class="st11" d="M169.6,111c0.5,0.1,1,0.3,1.4,0.6c0.5,0.3,0.9,0.6,1.3,1c0.2,0.2,0.4,0.5,0.6,0.8c0.2,0.3,0.3,0.8,0.2,1.2
	c-0.1,0.2-0.3,0.4-0.5,0.5s-0.4,0.1-0.6,0.1c-0.3,0-0.7-0.1-1-0.3c-0.5-0.2-1-0.5-1.4-0.9c-0.8-0.6-1.1-1.1-1-1.1
	c0,0,0.4,0.4,1.2,0.9c0.4,0.3,0.9,0.6,1.4,0.8c0.3,0.1,0.6,0.2,0.9,0.2c0.3,0,0.6-0.1,0.7-0.3c0.1-0.3,0-0.6-0.1-0.9
	s-0.3-0.5-0.5-0.8c-0.3-0.4-0.8-0.7-1.2-1C170.5,111.6,170,111.3,169.6,111z"/>
<path class="st9" d="M175.4,107.5l-6.6,1.9c-0.3,0.1-0.6,0.2-0.8,0.5c-0.2,0.5,0.2,1,0.6,1.3c1,0.5,2.1,0.7,3.2,0.6
	c1.1-0.1,2.2-0.4,3.2-0.8"/>
<path class="st11" d="M175.1,111.1c-0.2,0.1-0.4,0.2-0.6,0.3c-0.5,0.2-1.1,0.4-1.7,0.5c-0.8,0.2-1.7,0.2-2.6,0.1
	c-0.5-0.1-1-0.2-1.5-0.5c-0.3-0.1-0.5-0.3-0.7-0.5s-0.4-0.6-0.3-0.9c0.1-0.3,0.3-0.6,0.7-0.7c0.3-0.1,0.5-0.2,0.8-0.2l1.4-0.4
	l2.4-0.7c0.7-0.2,1.5-0.4,2.3-0.5c-0.7,0.3-1.4,0.6-2.2,0.8l-2.4,0.8l-1.4,0.4c-0.5,0.2-1.1,0.3-1.2,0.6c0,0.2,0.1,0.4,0.2,0.6
	c0.2,0.2,0.4,0.3,0.6,0.4c0.4,0.2,0.9,0.4,1.4,0.4c0.8,0.1,1.7,0.1,2.5,0C174.2,111.3,175.1,111,175.1,111.1z"/>
<path class="st10" d="M263.3,232.5c8,0.5,15-5.5,15.5-13.6c0.2-3.4-0.7-6.7-2.7-9.5c-2.1-2.9-5.1-4.9-8.1-6.9l-10.7-7l3.3,27.6
	L263.3,232.5"/>
<path class="st5" d="M278.5,214.3c-0.1,0.3-0.3,0.5-0.6,0.7c-0.6,0.5-1.4,0.9-2.2,1.1c-2.1,0.5-5.1,0.1-7.9-1.5
	c-2.4-1.3-4.5-3-6.3-5.1c-0.7-0.8-1.3-1.4-1.6-1.8c-0.2-0.2-0.4-0.5-0.6-0.7c0.2,0.2,0.5,0.4,0.7,0.6l1.7,1.7c1.8,1.9,4,3.6,6.3,4.9
	c2.3,1.3,5,1.9,7.6,1.5c0.8-0.1,1.5-0.4,2.2-0.9C278.2,214.5,278.4,214.2,278.5,214.3z"/>
<path class="st6" d="M251.1,164.4l0.8-15.7c0,0-5.4-4.5-3.6-24.8l-2.6-0.8c0,0-1.6,25.6-14.6,24.4s-8.4-24.1-8.4-24.1
	c-1.4,0.1-2.8,0.6-3.8,1.6c-0.1,0-0.6,8.4-0.8,15.5c-1.4,2.5-2.1,5.4-2.1,8.2c0.1,2.2,1,4.3,2.4,6c0.4,4.8,0.7,11.2,0.7,11.2
	L214,179l1.2,4.6l37.1-0.4l1.1-4.9L251.1,164.4z"/>
<path class="st3" d="M245.6,146.8c-0.1,0.6-0.4,1.1-0.7,1.5c-0.5,0.8-1,1.4-1.1,1.3c-0.1-0.1,0.2-0.8,0.7-1.5
	C245,147.3,245.5,146.7,245.6,146.8z"/>
<path class="st3" d="M247.1,160c-0.1,0.1-0.8-0.5-1.6-1.3c-0.5-0.5-1-1-1.3-1.6c0.1-0.1,0.8,0.5,1.6,1.3
	C246.3,158.8,246.8,159.4,247.1,160z"/>
<path class="st3" d="M225.7,150c-1.1,1-2.4,1.9-3.8,2.5C223,151.5,224.3,150.6,225.7,150z"/>
<path class="st3" d="M219.9,149.1c-0.6-0.1-1.2-0.4-1.7-0.8c-0.9-0.5-1.5-1-1.5-1.1c0.6,0.1,1.2,0.4,1.7,0.8
	C219.2,148.5,219.9,149,219.9,149.1z"/>
<path class="st3" d="M220,133.2c0.2,0.7,0.2,1.4,0.1,2.1c0,0.7-0.1,1.4-0.3,2.1c-0.2-0.7-0.2-1.4-0.1-2.1
	C219.7,134.6,219.8,133.9,220,133.2z"/>
<path class="st3" d="M246.9,136c0.1,0.1-0.1,0.6-0.4,1.3c-0.3,0.7-0.7,1.2-0.8,1.1c-0.1,0,0.1-0.6,0.4-1.3
	C246.5,136.5,246.8,136,246.9,136z"/>
<path class="st3" d="M233.4,156.7c-0.4-1.1-0.6-2.2-0.5-3.4C233.3,154.4,233.4,155.5,233.4,156.7z"/>
<path class="st3" d="M241.8,146.3c0,0.1-0.3,0.4-0.8,0.6c-0.5,0.2-0.9,0.3-1,0.2s0.3-0.4,0.8-0.6
	C241.3,146.3,241.7,146.3,241.8,146.3z"/>
<path class="st3" d="M250.9,152.3c0,0.1-0.4,0.3-0.9,0.5s-1,0.2-1,0.1c0-0.1,0.4-0.3,0.9-0.5S250.9,152.2,250.9,152.3z"/>
<path class="st3" d="M223.3,146.2c-0.1,0.1-0.5-0.5-1-1.2c-0.4-0.7-0.7-1.4-0.6-1.4c0.1-0.1,0.5,0.5,1,1.2
	C223.1,145.5,223.4,146.1,223.3,146.2z"/>
<path class="st3" d="M223.8,157.5c-0.1,0-0.3-0.2-0.5-0.4s-0.4-0.5-0.4-0.6c0.1-0.1,0.4,0,0.7,0.3
	C223.9,157.1,224,157.5,223.8,157.5z"/>
<path class="st3" d="M219.1,175.6c-0.1-0.5,0-1.1,0.2-1.6c0.2-0.9,0.5-1.6,0.6-1.5c0.1,0.5,0,1.1-0.2,1.6
	C219.5,175,219.2,175.7,219.1,175.6z"/>
<path class="st3" d="M227.1,175.9c-0.1,0.1-0.7-0.4-1.3-1.1c-0.6-0.7-1.1-1.3-1-1.4c0.1-0.1,0.7,0.4,1.3,1.1
	C226.7,175.2,227.1,175.8,227.1,175.9z"/>
<path class="st3" d="M223.4,180.2c0,0.1-0.7,0-1.4-0.3c-0.8-0.3-1.3-0.6-1.3-0.7c0-0.1,0.7,0,1.4,0.3
	C222.9,179.8,223.5,180,223.4,180.2z"/>
<path class="st3" d="M233.8,174.7c-0.1,0.6-0.2,1.1-0.5,1.6c-0.4,0.8-0.8,1.5-0.9,1.4c0.1-0.6,0.3-1.1,0.6-1.6
	C233.3,175.3,233.7,174.7,233.8,174.7z"/>
<path class="st3" d="M242.8,176.8c-0.3,0.8-0.8,1.4-1.5,1.8c-0.6,0.5-1.4,0.8-2.2,0.8c0-0.1,1-0.4,2-1.1
	C242,177.5,242.7,176.7,242.8,176.8z"/>
<path class="st3" d="M250,179.3c-0.8-0.4-1.6-0.9-2.3-1.6c-0.8-0.5-1.5-1.2-2.1-1.9c0.8,0.4,1.6,0.9,2.3,1.5
	C248.8,177.9,249.5,178.5,250,179.3z"/>
<path class="st3" d="M238.6,166.7c-0.5,0.7-1.1,1.3-1.8,1.8c-0.6,0.6-1.3,1.1-2,1.5c0.5-0.7,1.1-1.3,1.8-1.8
	C237.2,167.6,237.9,167.1,238.6,166.7z"/>
<path class="st3" d="M227.6,167.1c-0.6-0.4-1.2-0.9-1.7-1.5c-0.6-0.5-1-1.1-1.4-1.8c0.6,0.4,1.2,0.9,1.7,1.5
	C226.7,165.8,227.2,166.4,227.6,167.1z"/>
<path class="st3" d="M238,161.8c-0.6,0.4-1.3,0.6-1.9,0.8c-0.7,0.3-1.4,0.4-2.1,0.4C235.3,162.3,236.6,161.9,238,161.8L238,161.8z"
	/>
<path class="st3" d="M247.7,168.6c-0.5-0.5-0.9-1.1-1.1-1.8c-0.4-0.6-0.6-1.3-0.8-2c0.5,0.5,0.9,1.1,1.1,1.8
	C247.3,167.2,247.6,167.9,247.7,168.6z"/>
<path class="st3" d="M220.5,164.6c0.1,0.7,0.1,1.4,0,2c0,0.7-0.1,1.4-0.4,2c-0.1-0.7-0.1-1.4,0-2
	C220.1,165.9,220.2,165.2,220.5,164.6z"/>
<path class="st5" d="M221.7,107.7c-1.9,0.3-3.8,0.2-5.6-0.3s-3.4-1.8-4.1-3.6c-0.8-1.8-0.2-3.9,1.4-5.1c0.8-0.5,1.8-0.8,2.1-1.6
	c0.4-0.8-0.3-1.9-0.7-2.8c-1.5-3.1-0.2-6.9,2.9-8.4c1.9-0.9,4.1-0.8,5.9,0.2c0.4-4.7,4.5-8.1,9.2-7.7c4,0.3,7.2,3.4,7.7,7.4
	c0.1,1.2,0,2.5,0.7,3.6c0.7,1.2,2.1,1.8,3.1,2.8c1.9,1.9,1.6,5.1,0.8,7.7c-0.9,2.6-2.2,5.1-2.2,7.8"/>
<path class="st9" d="M228.9,122.8c-0.2-2.7-0.4-5.1-0.4-5.1s-5.6-0.4-6.1-6c-0.5-5.5-0.4-18.3-0.4-18.3l10-5.2l10.1,8.2l0.2,25.9
	c0,3.6-2.7,6.5-6.3,6.8l0,0C232.4,129.3,229.2,126.5,228.9,122.8z"/>
<path class="st5" d="M223.4,102.7c0,0.4,0.4,0.7,0.8,0.7c0.4,0,0.7-0.4,0.7-0.8s-0.3-0.7-0.7-0.7
	C223.7,101.9,223.4,102.2,223.4,102.7L223.4,102.7z"/>
<path class="st5" d="M222.7,101.9c0.1,0.1,0.6-0.4,1.4-0.4c0.8-0.1,1.3,0.3,1.4,0.2c0.1-0.1-0.1-0.2-0.3-0.4
	c-0.7-0.4-1.6-0.3-2.2,0.2C222.7,101.7,222.6,101.9,222.7,101.9z"/>
<path class="st5" d="M231.6,102.5c0,0.4,0.3,0.7,0.7,0.7l0,0c0.4,0,0.7-0.3,0.7-0.7c0-0.4-0.3-0.7-0.7-0.7
	C231.9,101.7,231.6,102,231.6,102.5C231.6,102.4,231.6,102.5,231.6,102.5z"/>
<path class="st5" d="M231.1,101.7c0.1,0.1,0.6-0.4,1.4-0.4c0.8-0.1,1.3,0.3,1.4,0.2c0.1-0.1-0.1-0.2-0.3-0.4
	c-0.3-0.2-0.7-0.3-1.1-0.3c-0.4,0-0.8,0.2-1.1,0.5C231.1,101.5,231.1,101.7,231.1,101.7z"/>
<path class="st5" d="M228.5,108.2c-0.4,0.1-0.8,0.1-1.3,0.1c-0.1,0-0.2,0-0.3,0s-0.3-0.1-0.3-0.3c-0.1-0.3-0.1-0.6,0.1-0.8
	c0.2-0.5,0.3-1,0.5-1.6c0.4-1.4,0.8-2.7,1.4-4.1c-0.2,1.4-0.6,2.8-1.1,4.2c-0.2,0.6-0.3,1.1-0.5,1.6c-0.1,0.2-0.1,0.4-0.1,0.6
	c0,0.1,0.2,0.2,0.4,0.2C227.7,108.1,228.1,108.1,228.5,108.2z"/>
<path class="st3" d="M231.2,108.9c0.1-0.1-2.2,1.4-3.8,1.4c0.6,0.8,1.6,1.1,2.5,0.7C230.8,110.6,231.4,109.7,231.2,108.9z"/>
<path class="st11" d="M228.5,117.7c2.6-0.2,5.2-1.1,7.3-2.7c0,0-1.6,4.1-7.1,4L228.5,117.7z"/>
<path class="st5" d="M219.5,95.1c1.7,1.6,4.5,1.8,6.7,1c2.2-0.9,4.1-2.5,5.5-4.4c2,1.9,4.8,2.7,7.4,2.1c0.4,5,1.3,8.1,3.2,13.2
	c0,0-0.4,2.2,0.2,1.9c0.6-3.5,1.3-7.2,1.9-10.7c0.2-1.3,0.5-2.6,0-3.8c-0.5-1.2-1.8-2-2.9-2.9c-1.4-1-2.6-2.2-4-3.2s-3-1.7-4.7-1.9
	c-1.7,0-3.5,0.3-5.1,1c-1.9,0.5-3.7,1.4-5.3,2.6c-1.5,1.3-2.6,3.3-2.2,5.2"/>
<path class="st9" d="M242.2,101.7c0.6-0.3,1.2-0.4,1.8-0.5c0.6,0,1.2,0.2,1.6,0.8c0.2,0.4,0.3,0.9,0.2,1.3c-0.3,1.3-1.7,2.2-3,1.8
	c-0.2,0-0.3-0.1-0.5-0.2"/>
<path class="st5" d="M234.3,100.3c0.1,0,0.1,0.4-0.2,0.7c-0.3,0.3-0.7,0.3-0.7,0.2c0-0.1,0.3-0.2,0.5-0.4
	C234.1,100.6,234.2,100.3,234.3,100.3z"/>
<path class="st9" d="M214.6,188.4L205,332.9c-0.7,0.1-9.7,1.8-9.5,3.1s23,0.5,23,0.5L232,211l20.9-24.6L214.6,188.4z"/>
<path class="st5" d="M218.3,335.5c0,0.2-5.2,0.4-11.7,0.3s-11.7-0.3-11.7-0.5s5.2-0.4,11.7-0.3S218.3,335.3,218.3,335.5z"/>
<path class="st5" d="M202.6,335.8c-0.1,0-0.3-0.9-0.9-1.7c-0.6-0.9-1.4-1.3-1.4-1.4C201.6,333,202.6,334.3,202.6,335.8L202.6,335.8z
	"/>
<path class="st5" d="M218.8,331.8c-4-0.1-8,1.1-11.1,3.6c0.4-0.5,0.8-0.9,1.3-1.2c1.2-0.8,2.4-1.5,3.8-1.9c1.4-0.4,2.8-0.7,4.2-0.7
	C217.6,331.5,218.2,331.6,218.8,331.8z"/>
<path class="st5" d="M218.8,330.2c-2.3,0.1-4.7,0.1-7,0c-2.4,0-4.7-0.1-7-0.4c2.3-0.1,4.7-0.1,7,0
	C214.1,329.8,216.5,329.9,218.8,330.2z"/>
<path class="st5" d="M219,327.7c-2.4,0.3-4.7,0.4-7.1,0.4c-2.4,0.1-4.8,0.1-7.1,0c2.4-0.3,4.7-0.4,7.1-0.4
	C214.2,327.6,216.6,327.6,219,327.7z"/>
<path class="st5" d="M195.1,335.4c-0.2,0.5,0,1,0.5,1.2s0.9,0.2,1.4,0s0.9-0.2,1.4-0.3c1,0,1.9,0.8,2.9,0.6c0.6-0.1,1.1-0.4,1.7-0.5
	c1-0.2,2,0.6,3,0.6s2-0.8,3-0.7c1,0.1,1.8,0.8,2.7,0.9c0.8,0,1.4-0.4,2.2-0.5c1,0,2,0.7,3,0.5c0.4-0.1,0.8-0.3,1-0.7
	c0.2-0.4,0.1-0.8-0.2-1.1"/>
<path class="st5" d="M215.3,328c0,0-0.5-0.2-1-0.7c-0.3-0.3-0.5-0.7-0.7-1.2c-0.1-0.3-0.1-0.6-0.1-0.8c0-0.3,0.2-0.7,0.4-0.9
	c0.2-0.1,0.4-0.1,0.6-0.1c0.2,0.1,0.3,0.2,0.4,0.3c0.2,0.2,0.3,0.5,0.4,0.8c0.2,0.4,0.2,0.9,0.2,1.4c-0.1,0.8-0.4,1.2-0.5,1.1
	c0,0,0.2-0.4,0.2-1.2c0-0.4-0.1-0.8-0.2-1.2c-0.1-0.2-0.2-0.4-0.4-0.6s-0.3-0.3-0.4-0.2c-0.2,0.2-0.2,0.4-0.2,0.6s0,0.5,0.1,0.7
	c0.1,0.4,0.3,0.8,0.5,1.1C214.9,327.6,215.4,327.9,215.3,328z"/>
<path class="st5" d="M215.3,327.5c0,0-0.1-0.4,0.2-0.9c0.2-0.3,0.5-0.6,0.8-0.8c0.2-0.1,0.4-0.2,0.6-0.2c0.1,0,0.3,0,0.4,0.1
	c0.2,0.1,0.2,0.3,0.2,0.5c-0.1,0.8-0.7,1.5-1.5,1.7c-0.6,0.1-1-0.1-1-0.1s0.4,0,0.9-0.2c0.6-0.2,1.1-0.8,1.2-1.5c0-0.1,0-0.1,0-0.1
	c-0.1,0-0.1,0-0.2,0c-0.5,0.1-0.9,0.4-1.2,0.8C215.4,327.2,215.4,327.5,215.3,327.5z"/>
<path class="st9" d="M263.5,327.8l-0.2,0.1l-6.3-50.6l-5.9-88.4l-17.3,16.3c-0.4,0.8,5.4,71.3,6.7,76.2c1.2,4.6,8.5,44.7,9.4,49.6
	c-1,0.5-8.7,4.4-8.2,5.6s22.3-5.8,22.3-5.8L263.5,327.8z"/>
<path class="st5" d="M264.1,330.9c0.1,0.2-4.9,1.8-11.2,3.5s-11.3,2.9-11.4,2.7c-0.1-0.2,5-1.8,11.2-3.5
	C258.9,331.9,264,330.6,264.1,330.9z"/>
<path class="st5" d="M249,335.4c-0.1,0-0.5-0.8-1.4-1.4s-1.7-0.9-1.7-1C247.4,333,248.6,334,249,335.4z"/>
<path class="st5" d="M263.5,327.1c-1.9,0.6-3.7,1.4-5.4,2.4c-1.6,1.2-3.1,2.5-4.3,4.1c0.2-0.6,0.5-1.1,0.9-1.5
	c1.8-2.3,4.3-3.9,7-4.7C262.3,327.2,262.9,327.1,263.5,327.1z"/>
<path class="st5" d="M263.1,325.6c-2.2,0.8-4.5,1.4-6.8,1.9c-2.3,0.6-4.5,1.1-6.9,1.5c2.2-0.8,4.5-1.4,6.8-1.9
	C258.5,326.5,260.8,325.9,263.1,325.6z"/>
<path class="st5" d="M262.6,323.1c-2.2,0.9-4.4,1.7-6.7,2.3c-2.2,0.8-4.5,1.4-6.9,1.9c2.2-0.9,4.4-1.7,6.7-2.3
	C258,324.3,260.2,323.7,262.6,323.1z"/>
<path class="st5" d="M241.8,337.1c-0.1,0.5,0.3,0.9,0.8,1s1-0.1,1.4-0.3c0.4-0.3,0.8-0.5,1.3-0.6c1-0.3,2,0.2,2.9-0.2
	c0.5-0.2,0.9-0.8,1.5-1c0.9-0.4,2.1,0,3-0.3c1-0.3,1.7-1.3,2.7-1.5s1.9,0.3,2.9,0.1c0.7-0.2,1.2-0.8,2-1.1c1-0.3,2.1,0.1,3-0.3
	c0.4-0.2,0.7-0.5,0.8-0.9c0.1-0.4-0.1-0.8-0.5-1.1"/>
<path class="st5" d="M259.1,324.4c-0.4,0-0.8-0.2-1.2-0.4c-0.4-0.2-0.7-0.6-1-1c-0.1-0.2-0.3-0.5-0.3-0.8c-0.1-0.3,0-0.7,0.1-1
	c0.1-0.2,0.3-0.3,0.5-0.2c0.2,0,0.3,0.1,0.5,0.2c0.2,0.2,0.4,0.4,0.6,0.6c0.3,0.4,0.5,0.8,0.5,1.3c0.1,0.4,0.1,0.9-0.1,1.2
	c-0.1,0,0-0.5-0.1-1.2c-0.1-0.4-0.3-0.8-0.5-1.1c-0.1-0.2-0.3-0.3-0.5-0.5c-0.2-0.1-0.4-0.2-0.5,0s-0.1,0.4-0.1,0.6s0.1,0.5,0.2,0.7
	c0.2,0.4,0.5,0.7,0.8,0.9C258.7,324.2,259.1,324.3,259.1,324.4z"/>
<path class="st5" d="M259,324c0,0-0.2-0.4,0-1c0.1-0.3,0.3-0.7,0.5-0.9c0.2-0.2,0.3-0.3,0.5-0.4c0.1-0.1,0.3-0.1,0.4-0.1
	c0.2,0.1,0.3,0.2,0.3,0.4c0.1,0.8-0.3,1.6-1,2.1c-0.5,0.3-0.9,0.2-0.9,0.2s0.4-0.1,0.8-0.4c0.6-0.4,0.9-1.1,0.8-1.8
	c0-0.1,0-0.1,0-0.1c-0.1,0-0.1,0-0.2,0c-0.4,0.2-0.8,0.6-0.9,1.1C259,323.6,259,324,259,324z"/>
<path class="st5" d="M252.3,180.4l-37.1,0.4l-11.7,49.9c0,0-2.9,12.2,11.6,12.8c14.5,0.6,21.3-5.7,33.3-1.1c7.8,3,19.2-2.6,18.6-3.9
	C260.3,223.1,260.4,201,252.3,180.4z"/>
<path class="st6" d="M263.6,242c0,0-0.1-0.2-0.2-0.6c-0.1-0.4-0.2-1-0.4-1.8c-0.6-2.1-1.4-4.2-2.3-6.3c-1.5-3-2.7-6.1-3.8-9.3
	c-1.1-3.9-1.8-8-1.9-12.1c-0.3-4.3-0.3-8.5-0.5-12.2c-0.2-3.3-0.6-6.7-1.4-9.9c-0.5-2.2-1.3-4.3-2.2-6.3c-0.3-0.7-0.6-1.3-0.8-1.6
	c-0.1-0.2-0.2-0.4-0.3-0.6c0.1,0.2,0.2,0.3,0.4,0.5c0.3,0.5,0.6,1,0.9,1.6c1,2,1.8,4.1,2.4,6.3c0.8,3.2,1.3,6.6,1.5,9.9
	c0.3,3.8,0.3,7.9,0.5,12.2c0.2,4.1,0.8,8.1,1.9,12c1.1,3.1,2.3,6.2,3.7,9.2c0.9,2.1,1.7,4.2,2.2,6.4c0.2,0.8,0.3,1.4,0.4,1.8
	C263.6,241.6,263.6,241.8,263.6,242z"/>
<path class="st6" d="M229,201c0,0-0.1,0.1-0.2,0.1c-0.2,0.1-0.4,0.1-0.7,0.1c-0.8-0.2-1.5-0.8-1.8-1.6c-0.3-1.2-0.3-2.4-0.2-3.6
	c0-1.3,0.1-2.8,0.1-4.3c0.1-3,0.2-5.8,0.3-7.8c0.1-0.9,0.1-1.7,0.1-2.4c0-0.3,0-0.6,0.1-0.9c0.1,0.3,0.1,0.6,0,0.9
	c0,0.6,0,1.4,0,2.4c0,2-0.1,4.8-0.2,7.9c-0.1,1.5-0.1,3-0.2,4.3c-0.1,1.2-0.1,2.3,0.1,3.5c0.2,0.7,0.8,1.3,1.5,1.5
	C228.4,201.1,228.7,201,229,201z"/>
<path class="st6" d="M228.9,182.6c0,0,0.3-0.3,0.9-0.1c0.3,0.1,0.6,0.4,0.6,0.8c0.1,0.5-0.2,0.9-0.6,1.1c-0.4,0.2-0.9,0.1-1.2-0.3
	c-0.2-0.3-0.2-0.7,0-1c0.1-0.2,0.3-0.4,0.5-0.4s0.2,0,0.2,0s-0.4,0.1-0.5,0.5c-0.1,0.2-0.1,0.5,0.1,0.7c0.2,0.2,0.5,0.3,0.8,0.1
	c0.3-0.1,0.4-0.4,0.4-0.7c0-0.2-0.2-0.5-0.4-0.6C229.3,182.5,228.9,182.6,228.9,182.6z"/>
<path class="st5" d="M253.1,190.3c-0.2,0.1-0.4,0.1-0.7,0.1c-0.6,0-1.2,0-1.8,0c-2-0.1-4-0.7-5.7-1.8c-1.7-1.2-2.8-3-3-5.1
	c-0.1-0.6,0-1.2,0.2-1.8c0-0.2,0.1-0.4,0.3-0.6c-0.2,0.8-0.2,1.6-0.1,2.4c0.3,1.9,1.4,3.7,3,4.8s3.5,1.7,5.5,1.8
	C252.2,190.3,253.1,190.2,253.1,190.3z"/>
<path class="st5" d="M218.3,180.5c0,0,0.1,0.2,0.2,0.5c0.1,0.5,0.1,1,0.2,1.5c0,1.7-0.3,3.5-0.9,5.1c-0.6,1.7-1.6,3.1-3,4.2
	c-0.4,0.3-1,0.5-1.5,0.6c-0.2,0-0.4,0-0.6,0c0.7-0.1,1.3-0.4,1.9-0.8c1.3-1.1,2.2-2.5,2.8-4.1s0.9-3.2,1-4.9
	C218.4,181.3,218.2,180.5,218.3,180.5z"/>
<path class="st5" d="M265.7,235.7c-0.6,0.6-1.2,1.2-2,1.6c-2,1.2-4.2,2-6.5,2.3c-3.4,0.4-6.9,0.2-10.2-0.5
	c-3.8-0.6-7.9-1.7-12.3-1.7c-4.4,0-8.5,1.3-12.2,2.3c-1.8,0.5-3.5,0.9-5.3,1.1c-1.6,0.2-3.2,0.2-4.8,0.1c-2.3-0.2-4.6-0.9-6.5-2.2
	c-0.3-0.2-0.6-0.4-0.9-0.7c-0.2-0.2-0.4-0.4-0.6-0.6c-0.2-0.2-0.3-0.3-0.4-0.5c0.6,0.6,1.3,1.1,1.9,1.6c1.9,1.2,4.2,1.9,6.4,2.1
	c1.6,0.1,3.2,0.1,4.7-0.1c1.8-0.3,3.6-0.7,5.3-1.1c3.7-1,7.8-2.3,12.3-2.3c4.5,0.1,8.6,1.1,12.4,1.8c3.3,0.7,6.7,0.9,10.1,0.6
	c2.3-0.2,4.5-1,6.4-2.1C265,236.3,265.6,235.6,265.7,235.7z"/>
<path class="st6" d="M251.3,181.6c-0.1,0.1-0.3-0.1-0.5-0.4c-0.2-0.3-0.2-0.5-0.1-0.6c0.1-0.1,0.3,0.1,0.5,0.4
	S251.4,181.6,251.3,181.6z"/>
<path class="st6" d="M253.4,185.9c-0.1,0-0.4-0.4-0.6-1c-0.3-0.6-0.4-1.1-0.3-1.2c0.1-0.1,0.4,0.4,0.7,1
	C253.4,185.3,253.5,185.9,253.4,185.9z"/>
<path class="st6" d="M254.8,190.4c-0.1,0-0.3-0.5-0.5-1.1s-0.2-1.2-0.1-1.2c0.1,0,0.3,0.5,0.5,1.1
	C254.8,189.9,254.9,190.4,254.8,190.4z"/>
<path class="st6" d="M255.6,195.1c-0.1,0-0.3-0.5-0.4-1.1s-0.1-1.2,0-1.2s0.3,0.5,0.4,1.1C255.7,194.5,255.7,195.1,255.6,195.1z"/>
<path class="st6" d="M256.1,199.8c-0.1,0-0.2-0.5-0.3-1.2c-0.1-0.6,0-1.2,0.1-1.2c0.1,0,0.2,0.5,0.3,1.2
	C256.2,199.2,256.2,199.8,256.1,199.8z"/>
<path class="st6" d="M256.4,204.5c-0.1,0-0.2-0.5-0.3-1.2s0-1.2,0.1-1.2s0.2,0.5,0.3,1.2C256.5,204,256.5,204.5,256.4,204.5z"/>
<path class="st6" d="M256.6,209.3c-0.1,0-0.2-0.5-0.3-1.2c0-0.7,0-1.2,0.1-1.2s0.2,0.5,0.3,1.2S256.7,209.2,256.6,209.3z"/>
<path class="st6" d="M257,214c-0.1,0-0.3-0.5-0.3-1.2c-0.1-0.6,0-1.2,0.1-1.2s0.2,0.5,0.3,1.2S257.1,214,257,214z"/>
<path class="st6" d="M257.7,218.7c-0.1,0-0.3-0.5-0.4-1.1s-0.1-1.2,0-1.2s0.3,0.5,0.4,1.1S257.8,218.6,257.7,218.7z"/>
<path class="st6" d="M258.9,223.2c-0.1,0-0.3-0.4-0.5-1.1c-0.2-0.6-0.2-1.2-0.1-1.2s0.3,0.5,0.5,1.1
	C258.9,222.7,259,223.2,258.9,223.2z"/>
<path class="st6" d="M260.7,227.6c-0.1,0.1-0.4-0.4-0.7-1c-0.3-0.6-0.4-1.1-0.3-1.2c0.1,0,0.4,0.4,0.7,1
	C260.6,227.1,260.8,227.6,260.7,227.6z"/>
<path class="st6" d="M262.9,231.8c-0.1,0.1-0.4-0.4-0.8-0.9s-0.5-1.1-0.4-1.1c0.1-0.1,0.4,0.4,0.8,0.9S263,231.7,262.9,231.8z"/>
<path class="st6" d="M264.9,236.1c-0.1,0-0.4-0.4-0.6-1s-0.4-1.1-0.3-1.2c0.1,0,0.4,0.4,0.6,1C264.9,235.5,265,236.1,264.9,236.1z"
	/>
<path class="st6" d="M265.5,239.6c-0.1,0-0.2-0.2-0.3-0.5c0-0.3,0-0.6,0.1-0.6s0.2,0.2,0.3,0.5C265.7,239.3,265.6,239.6,265.5,239.6
	z"/>
<path class="st10" d="M224.2,123c0,0,21.1,67.9,34.7,78.1l-1.1-6c-8.2-14.3-17.9-41.9-28.9-72.5C228,122,224.6,122.2,224.2,123z"/>
<path class="st9" d="M251.5,148.2l7.3,16.3c-10.6-0.1-22.2-2.5-27-3.8c-0.4-0.4-0.8-0.8-1.2-1.2c-0.5-0.5-0.9-1.2-1.2-1.9
	c-0.4-0.8-0.7-1.7-0.9-2.6c-0.1-0.8-1.1-1.2-1.5-0.5s-0.2,3,1.1,5.4s-2.6,0.8-4.1,0.2c-1.5-0.5-6-2.1-6.6-1.8
	c-0.8,0.5-0.4,1.4,1.1,1.9s5.8,2.4,5.5,3.2s-7.7-2.2-7.7-2.2s-1.5-0.9-1.9,0c-0.7,1.6,7.4,4.1,8.1,4.4c0.5,0.2,0.2,1-0.3,0.8
	c-0.6-0.2-7.3-3.1-8-1.5c-0.6,1.2,6.6,2.2,7.7,3.6c1.1,1.4-5.4-1.3-5.9-0.1c-0.2,0.4-0.3,0.8,3.7,1.8c3.2,0.7,6.4,1.1,9.6,1.4
	c6.2,1.8,21.5,5.3,32.7,5c0,0,15.8,0.3,13.1-9.3c-2.9-10.2-11.4-25.9-11.4-25.9L251.5,148.2z"/>
<path class="st12" d="M243.1,104.6c-0.3,0-0.6,0.2-0.6,0.5s0.2,0.6,0.5,0.6l0,0c0.3,0,0.5-0.3,0.5-0.6l0,0c-0.1-0.3-0.4-0.4-0.6-0.3
	c0,0,0,0-0.1,0"/>
<path class="st8" d="M314.7,288.8c-1.8,0.1-3.6,1-4.7,2.5c-1.2,1.4-2,3.1-2.4,4.9c-0.9,3.4-0.3,7.5,0.7,10.9c3.7-1.4,5.9-5.3,7-7.4
	C316.8,296.3,317.7,289.4,314.7,288.8"/>
<path class="st13" d="M314,288.8c-1.7,0.1-3.5,1-4.5,2.4c-1.2,1.3-1.9,3-2.3,4.7c-0.9,3.3-0.3,7.2,0.7,10.5c3.6-1.3,5.7-5.1,6.7-7.1
	C316,296,316.9,289.4,314,288.8"/>
<path class="st8" d="M302.7,310.4c1.1-1.7,1.2-3.9,0.2-5.6s-2.6-3-4.5-3.6c-0.9-0.4-1.8-0.3-2.6,0.2c-0.7,0.6-1.1,1.3-0.9,2.2
	c0.1,0.9,0.5,1.6,1.1,2.3C297.6,308.2,299.8,310.2,302.7,310.4"/>
<path class="st5" d="M302.9,322.9c0.1-0.2,0.2-0.5,0.2-0.7c0.1-0.5,0.2-1.2,0.3-2c0.4-2.2,0.4-4.5,0.2-6.7c-0.3-2.3-1.1-4.4-2.5-6.2
	c-0.4-0.5-0.9-1-1.5-1.4c-0.2-0.2-0.4-0.3-0.6-0.4c0.7,0.6,1.3,1.3,1.9,2c1.3,1.8,2.1,3.9,2.3,6.1c0.2,2.2,0.2,4.4-0.1,6.6
	C303,321.1,303,322,302.9,322.9z"/>
<path class="st5" d="M313.5,294c-0.2,0.4-0.4,0.7-0.5,1.1c-0.3,0.7-0.8,1.8-1.3,3c-1.1,2.6-2.6,6.2-4.1,10.2s-2.8,7.7-3.7,10.4
	c-0.4,1.3-0.8,2.4-1,3.2c-0.1,0.4-0.2,0.8-0.3,1.2c0.2-0.4,0.3-0.7,0.5-1.1c0.3-0.8,0.7-1.9,1.1-3.1c1-2.7,2.3-6.3,3.8-10.3
	s2.9-7.6,4-10.3c0.5-1.3,0.9-2.3,1.2-3.1C313.3,294.8,313.4,294.4,313.5,294z"/>
<path class="st8" d="M306.8,314.5c2.5-3.6,6.5-5.8,10.9-5.9c1.1,0,2.4,0.3,2.8,1.3s-0.3,2.1-1.1,2.9c-3.4,3.2-8.5,4-12.7,2.1"/>
<path class="st5" d="M315.9,311.3c-0.2,0-0.5,0-0.7,0c-0.3,0-0.6,0.1-0.8,0.1c-0.4,0.1-0.7,0.1-1.1,0.2c-0.9,0.2-1.8,0.6-2.7,1
	c-1.1,0.5-2.1,1.2-3,1.9c-0.9,0.8-1.7,1.6-2.5,2.5c-0.6,0.8-1.1,1.6-1.5,2.5c-0.2,0.3-0.3,0.7-0.4,1c-0.1,0.2-0.2,0.5-0.3,0.8
	c-0.1,0.2-0.1,0.5-0.2,0.7c0.1,0,0.4-1,1.1-2.4c0.5-0.8,1-1.6,1.6-2.4c1.4-1.8,3.3-3.3,5.3-4.3c0.8-0.4,1.7-0.8,2.6-1
	C314.9,311.5,315.9,311.4,315.9,311.3z"/>
<path class="st8" d="M16.9,153.6c10.7-4.7,15.8,28.9,16.4,31.5s2.5,2.9,5.6-1s5.8-2.4,5.8-2.4c5.8,3.6-2.1,24.3-2,25.9
	c0.1,1.7-1.2,4.1,4.9,0.7s11.2-5.3,12,0c0.8,4.8-5.4,18.6-5.3,20.6c0.1,2,6.3-3,9-4.6c3.4-2.1,7.1-2,7.7,2.3
	c0.8,5.6-10.3,21.9-10.3,21.9l-5.3,8.3l-9.7-2.6c0,0-19-5.4-22-10.2c-2.3-3.7,0.4-6.2,4.3-6.8c3-0.5,11-0.8,9.8-2.3
	s-14.9-8-17.4-12.1c-2.7-4.6,2.3-6.5,9.1-7.8c6.9-1.3,4.3-2.4,3.3-3.7s-20.5-11.9-18.4-18.4c0,0,1-2.9,5.9-1.9s6.1-0.5,4.9-2.9
	s-19.1-31.2-8-34.6"/>
<path class="st3" d="M61,272.4c-0.2,0.1-9.3-24.3-20.3-54.5s-19.8-54.7-19.6-54.7c0.2-0.1,9.3,24.3,20.3,54.5S61.2,272.3,61,272.4z"
	/>
<path class="st3" d="M35.7,203.2c-0.2-0.1,0.6-2.8,2.1-6c1.4-3.2,2.9-5.7,3.1-5.6c0.2,0.1-1,2.7-2.4,5.9
	C37,200.6,35.9,203.2,35.7,203.2z"/>
<path class="st3" d="M22.6,197.6c0-0.2,3.1,0.4,6.7,1.9s6.2,3.1,6.1,3.3s-2.9-1.2-6.4-2.6C25.4,198.8,22.5,197.9,22.6,197.6z"/>
<path class="st3" d="M43.7,225.4c-0.2-0.1,2.1-3,5.1-6.6c3-3.5,5.5-6.2,5.7-6c0.2,0.1-2.1,3-5.1,6.6
	C46.4,222.9,43.8,225.6,43.7,225.4z"/>
<path class="st3" d="M26,221.8c0-0.2,4.2,0.1,9.2,1.1s9,2.2,8.9,2.4c-0.1,0.2-4.1-0.7-9.1-1.7S25.9,222.1,26,221.8z"/>
<path class="st3" d="M31.5,243.2c0-0.2,4.4,0.2,9.7,1s9.6,1.6,9.6,1.8c0,0.2-4.4-0.2-9.7-1C35.7,244.2,31.4,243.4,31.5,243.2z"/>
<path class="st3" d="M51.2,245.6c-0.1-0.2,2.8-2.6,5.9-6c3.1-3.5,5.1-6.7,5.3-6.5s-1.5,3.5-4.7,7.1
	C54.5,243.6,51.3,245.8,51.2,245.6z"/>
<path class="st5" d="M316.4,101.9c0,0,0-0.2,0-0.5s0.1-0.8,0.2-1.4c0-0.3,0.1-0.7,0.1-1.1s0-0.8,0-1.3s0-1,0-1.5s-0.1-1.1-0.1-1.7
	c-0.3-2.9-1.1-5.8-2.3-8.5c-1.6-3.6-3.9-6.8-6.9-9.4l-1.2-1.1c-0.4-0.3-0.9-0.7-1.4-1c-0.9-0.7-1.9-1.3-3-1.8
	c-2.2-1.1-4.5-2-6.9-2.5c-1.3-0.3-2.5-0.5-3.8-0.6c-0.7-0.1-1.3,0-2-0.1h-1c-0.3,0-0.7,0.1-1,0.1c-2.8,0.2-5.6,0.8-8.2,1.8
	c-5.6,2.2-10.4,6.1-13.6,11.3c-3.4,5.5-4.8,12.1-3.9,18.5c0.1,0.4,0.1,0.8,0.2,1.3v0.1v0.1l-9,12.5l-0.2-0.3l13.2-2h0.1l0.1,0.1
	c3.8,5.7,9.6,9.8,16.3,11.5c1,0.3,2,0.5,3,0.6l1.5,0.2c0.5,0.1,1,0,1.5,0.1c3.8,0.1,7.5-0.6,11-2c3-1.2,5.8-2.9,8.2-5l1.6-1.5
	l1.3-1.5c0.4-0.5,0.8-1,1.2-1.5c0.3-0.5,0.8-1,1-1.5c1-1.7,1.9-3.4,2.6-5.2l0.7-2c0.1-0.6,0.3-1.1,0.4-1.5l0.2-0.9
	C316.4,102,316.4,101.9,316.4,101.9c0,0.1,0,0.2-0.1,0.3c0,0.2-0.1,0.5-0.2,0.9s-0.2,0.9-0.3,1.5l-0.7,2c-0.7,1.9-1.5,3.6-2.5,5.3
	c-0.3,0.5-0.7,1-1,1.5c-0.4,0.5-0.7,1-1.2,1.5l-1.3,1.5l-1.6,1.5c-2.4,2.2-5.2,3.9-8.2,5.1c-3.5,1.4-7.3,2.1-11.1,2
	c-0.5,0-1,0-1.5-0.1l-1.5-0.2c-1.1-0.1-2.1-0.3-3.1-0.6c-2.1-0.5-4.2-1.3-6.1-2.3c-4.2-2.2-7.7-5.4-10.4-9.3l0.2,0.1l-13.2,2.1
	l-0.5,0.1l0.3-0.4c2.9-4,5.9-8.2,9-12.5v0.2c-0.1-0.4-0.2-0.8-0.2-1.3c-0.9-6.5,0.5-13.2,4-18.8c3.2-5.2,8.1-9.2,13.8-11.4
	c2.6-1,5.4-1.6,8.3-1.8c0.3,0,0.7-0.1,1-0.1h1c0.7,0,1.3,0,2,0.1c1.3,0.1,2.6,0.3,3.9,0.6c3.6,0.8,7,2.3,9.9,4.5
	c0.5,0.3,0.9,0.7,1.4,1l1.2,1.1c5.2,4.7,8.5,11.1,9.1,18.1c0,0.6,0.1,1.2,0.1,1.7s0,1.1,0,1.5c0,0.5,0,0.9,0,1.3s-0.1,0.8-0.1,1.1
	c-0.1,0.6-0.2,1.1-0.2,1.4C316.6,101.8,316.4,101.9,316.4,101.9z"/>
<polygon class="st8" points="298,86.4 301.4,111.7 276.6,111.7 280.2,86.4 "/>
<path class="st3" d="M282.2,90.1c0.3,0.8,0.7,1.7,1.3,2.4c0.6,0.8,1.3,1.4,2.2,1.9c1.1,0.6,2.2,0.8,3.4,0.8c1.2,0,2.4-0.2,3.4-0.8
	c0.9-0.5,1.6-1.1,2.1-1.9s0.9-1.6,1.1-2.5c0,0.3,0,0.5-0.1,0.8c-0.2,0.7-0.4,1.3-0.8,1.9c-0.5,0.9-1.3,1.6-2.2,2.1
	c-1.1,0.6-2.4,0.9-3.6,0.8c-1.3,0-2.5-0.3-3.6-0.9c-0.9-0.5-1.6-1.2-2.2-2.1c-0.4-0.6-0.7-1.2-0.9-1.8
	C282.2,90.6,282.2,90.3,282.2,90.1z"/>
<polyline class="st10" points="144.7,28.7 144.7,89.3 129.2,73.8 16.8,73.8 16.8,28.7 144.7,28.7 "/>
<circle class="st10" cx="113.6" cy="52.8" r="17"/>
<circle class="st14" cx="113.6" cy="52.8" r="17"/>
<path class="st3" d="M28.6,47.3c0-0.1,13.2-0.3,29.4-0.3s29.4,0.1,29.4,0.3S74.2,47.6,58,47.6S28.6,47.5,28.6,47.3z"/>
<path class="st3" d="M28.6,53.8c0-0.1,13.2-0.3,29.4-0.3s29.4,0.1,29.4,0.3S74.3,54,58.1,54S28.6,53.9,28.6,53.8z"/>
<path class="st3" d="M56.9,60.2c0-0.1,6.9-0.3,15.3-0.3s15.3,0.1,15.3,0.3s-6.9,0.2-15.3,0.2S56.9,60.3,56.9,60.2z"/>
<path class="st3" d="M55.7,40.6c0-0.1,7.1-0.3,15.9-0.3s15.9,0.1,15.9,0.3s-7.1,0.3-15.9,0.3C62.9,40.9,55.7,40.8,55.7,40.6z"/>
<path class="st3" d="M115.1,52.6c1.5-0.7,2.5-2.3,2.4-4c0.1-2.2-1.6-4-3.8-4.2c-2.2-0.1-4,1.6-4.2,3.8c0,0.2,0,0.3,0,0.5
	c0,1.7,1,3.2,2.6,3.9c-6.1,1-5.7,7.6-5.7,7.6L121,60C121,60,121.2,53.4,115.1,52.6z"/>
<polyline class="st10" points="119.5,115.1 119.5,140 113.2,133.6 67.1,133.6 67.1,115.1 119.5,115.1 "/>
<path class="st3" d="M89.9,121c0-0.1,5.1-0.2,11.4-0.2s11.4,0.1,11.4,0.2c0,0.1-5.1,0.2-11.4,0.2S89.9,121.2,89.9,121z"/>
<path class="st3" d="M105.4,126.2c1.1-0.2,2.1-0.3,3.2-0.2c1.1-0.1,2.2,0,3.2,0.2c-1.1,0.2-2.1,0.3-3.2,0.2
	C107.5,126.5,106.4,126.4,105.4,126.2z"/>
<path class="st3" d="M103.8,127.6c-0.1,0-0.3-0.3-0.5-0.8c-0.2-0.4-0.4-0.8-0.3-0.9s0.4,0.2,0.6,0.7
	C103.9,127.2,103.9,127.6,103.8,127.6z"/>
<path class="st3" d="M92,126c1.5-0.2,2.9-0.3,4.4-0.2c1.5-0.1,2.9,0,4.4,0.2c-1.5,0.2-2.9,0.3-4.4,0.2C94.9,126.3,93.4,126.2,92,126
	z"/>
<path class="st3" d="M90.9,127.5c-0.1,0.1-0.4-0.3-0.6-0.8c-0.3-0.5-0.4-0.9-0.3-0.9c0.1-0.1,0.4,0.3,0.6,0.8S91,127.5,90.9,127.5z"
	/>
<path class="st3" d="M78.1,125.9c1.5-0.2,3.1-0.3,4.6-0.2c1.5-0.1,3.1,0,4.6,0.2c-1.5,0.2-3.1,0.3-4.6,0.2
	C81.2,126.2,79.6,126.1,78.1,125.9z"/>
<path class="st3" d="M76.9,126.7c-0.1,0.1-0.4-0.2-0.6-0.6s-0.4-0.8-0.3-0.8c0.1-0.1,0.4,0.2,0.6,0.6S77,126.7,76.9,126.7z"/>
<path class="st3" d="M71.7,125.6c0-0.1,0.6-0.2,1.4-0.2s1.4,0.1,1.4,0.2c0,0.1-0.6,0.2-1.4,0.2S71.7,125.7,71.7,125.6z"/>
</svg>
