<?xml version="1.0" encoding="utf-8"?>
<!-- Generator: Adobe Illustrator 22.0.0, SVG Export Plug-In . SVG Version: 6.00 Build 0)  -->
<svg version="1.1" id="Capa_1" xmlns="http://www.w3.org/2000/svg" xmlns:xlink="http://www.w3.org/1999/xlink" x="0px" y="0px"
	 viewBox="0 0 200 200" style="enable-background:new 0 0 200 200;" xml:space="preserve">
<style type="text/css">
	.st0{fill:#FFFFFF;}
	.st1{font-family:'Roboto-Bold';}
	.st2{font-size:2.9131px;}
	.st3{fill-rule:evenodd;clip-rule:evenodd;fill:#538CBD;}
	.st4{fill-rule:evenodd;clip-rule:evenodd;fill:#5393CF;}
	.st5{fill-rule:evenodd;clip-rule:evenodd;fill:#E4B480;}
	.st6{fill-rule:evenodd;clip-rule:evenodd;fill:#4E89CB;}
	.st7{fill-rule:evenodd;clip-rule:evenodd;fill:#4479B0;}
	.st8{fill-rule:evenodd;clip-rule:evenodd;fill:#63A2D9;}
	.st9{fill-rule:evenodd;clip-rule:evenodd;fill:#E7BE86;}
	.st10{fill-rule:evenodd;clip-rule:evenodd;fill:#EAC797;}
	.st11{fill-rule:evenodd;clip-rule:evenodd;fill:#B18F48;}
	.st12{fill-rule:evenodd;clip-rule:evenodd;fill:#3F3D3D;}
	.st13{fill-rule:evenodd;clip-rule:evenodd;fill:#C0805D;}
	.st14{fill-rule:evenodd;clip-rule:evenodd;fill:#D6AE7F;}
	.st15{fill:#E3E9EC;}
	.st16{fill:#EFEFEF;}
	.st17{fill:#55C655;}
	.st18{clip-path:url(#SVGID_2_);}
	.st19{fill:#F6A084;}
	.st20{fill:#F8B8A3;}
	.st21{fill:#19475E;}
	.st22{fill:#8F503C;}
	.st23{fill:#E5E5E5;}
	.st24{fill:#3B6376;}
	.st25{fill:#EB7379;}
	.st26{fill:#E55058;}
	.st27{fill:#F5B041;}
	.st28{fill:#AEBFC7;}
	.st29{opacity:0.2;fill:#EFEFEF;}
</style>
<text transform="matrix(1 0 0 1 45.8027 135.7344)" class="st0 st1 st2">DNI</text>
<g>
	<polygon class="st3" points="82.9,145.3 82.6,134.9 115.7,134.9 115.4,145 	"/>
	<path class="st4" d="M77,166.9c-1.1-0.8-24.7-11.9-24.7-11.9c-10.5,3.5-12.9,27.1-13.9,41h25.1L77,166.9z"/>
	<path class="st4" d="M118.8,166.9c1.1-0.8,24.7-11.9,24.7-11.9c10.5,3.5,12.9,27.1,13.9,41h-25.1L118.8,166.9z"/>
	<path class="st5" d="M97.9,129.2H86.8v7c0,4.3-0.7,3.4-4.8,5.7c0,0-3.9,3.2-5.1,3.6c4.9,15.8,8.9,32.4,18.5,46.7h2.9h2.9
		c9.6-14.3,12.8-30.9,17.7-46.7c-1.2-0.4-5.1-3.6-5.1-3.6c-4.1-2.3-4.8-1.4-4.8-5.7v-7H97.9z"/>
	<path class="st6" d="M98.9,167.7c0,0-3.5-4.6-5-7.1c-4.8-7.8-11.6-18.5-11.8-18.6c-5.9,2.7-27.4,11.1-29.9,13.2
		c2,4.3,4.9,21.9,7.5,40.8h38.2h38.2c2.6-18.9,5.5-36.6,7.5-40.8c-2.4-2.1-23.9-10.5-29.9-13.2c-0.1,0.1-4.4,11.1-9.4,18.6
		C102.3,163.6,98.9,167.7,98.9,167.7z"/>
	<path class="st7" d="M87.6,151.5c0.6,0,3.9,0.5,3.9,0.5l2.3,8.5l-8.4-3.9L87.6,151.5z"/>
	<path class="st8" d="M82.6,134.9l9,17.2c0,0-9.2,9-9.1,8.6c0.1-0.4-4.1-16.4-3.8-17.2C78.9,142.6,82.6,134.9,82.6,134.9z"/>
	<path class="st7" d="M110.7,151.5c-0.6,0-3.9,0.5-3.9,0.5l-2.3,8.5l8.4-3.9L110.7,151.5z"/>
	<path class="st8" d="M115.7,134.9l-9,17.2c0,0,9.2,9,9.1,8.6c-0.1-0.4,4.1-16.4,3.8-17.2C119.3,142.6,115.7,134.9,115.7,134.9z"/>
	<path class="st9" d="M126.5,78.2c-1.6,8.3,3.8,15.1,11.9,16.6c8.2,1.5,16.1-3,17.7-11.2c1.6-8.3-3.8-16.1-11.9-17.6
		C136,64.5,128.1,69.9,126.5,78.2z"/>
	<path class="st9" d="M69.4,78.2c1.6,8.3-3.8,15.1-11.9,16.6c-8.2,1.5-16.1-3-17.7-11.2c-1.6-8.3,3.8-16.1,11.9-17.6
		C59.9,64.5,67.8,69.9,69.4,78.2z"/>
	<path class="st10" d="M138.8,25.8c-8-10.8-20.4-18-33.7-18.5c0,0-0.3,0-0.7,0l0-0.5c0,0-3.2,0.1-6.5,0.3c-3.3-0.1-6.5-0.3-6.5-0.3
		l0,0.5c-0.4,0-0.7,0-0.7,0C77.5,7.8,65.1,15,57.1,25.8c-8,10.9-9.1,24.5-8.4,37.6c1.6,33.7,4.6,71.3,49.4,71.7
		c44.9,0.4,47.5-38.3,49.1-71.7C147.8,50.3,146.8,36.7,138.8,25.8z"/>
	<path class="st11" d="M53.5,74.3c0.6-12.4,0.8-34.8,11.6-34.8c0.3,0,33-13.6,70.7-13.6c8.7,0,10.8,24.6,11,40.8
		c0.1,14-2.5,20.4-1.5,20.8c1.2,0.5,6-7.6,6-27.3c0-8.9-0.2-22.7-8-35.7c-2.7-4.6-4.5-10.1-10.1-13.9C120,1.8,91.6,3.9,76.4,8.9
		C34.2,22.8,49.2,87.4,50.5,87.2C52.2,87.1,53.4,76,53.5,74.3z"/>
	<path class="st11" d="M103.2,18.7c5.3-0.3,31.1,6.7,31.1,6.7c-19.3,19.2-50.7,32.1-77.9,27c0,0,12.4-7.9,11.5-7.1
		C67,46,56.4,48.3,52.7,47.8c-3.7-0.5-3.5-1.8-3.5-1.8C70.4,26.6,69.9,26.7,103.2,18.7z"/>
	<path class="st12" d="M92.1,69.4c-0.4-0.5-1.7-2-3.6-2.7c-9-3.2-33.8-1.9-40.4-0.2c-0.8,0.2-0.9,0.2-1,0.8c-0.1,0.6-0.1,4,0.2,4.5
		c0.3,0.5,1.6,0.7,2.7,2.4c2.1,3,1.9,14.1,6.9,19.3c5.1,5.4,24.5,5.6,29.7-1.6c3.5-4.8,5.2-10.1,7-15.2c1.1-1.2,2.1-1.2,3-1.4
		c0.5-0.1,1-0.1,1.3-0.1c0.3,0,0.8,0,1.3,0.1c0.9,0.1,1.9,0.2,3,1.4c1.9,5.1,3.6,10.4,7,15.2c5.2,7.2,24.6,7,29.7,1.6
		c4.9-5.2,4.8-16.3,6.9-19.3c1.2-1.7,2.5-1.9,2.7-2.4c0.3-0.5,0.2-3.9,0.2-4.5c-0.1-0.6-0.2-0.5-1-0.8c-6.6-1.6-31.4-3-40.4,0.2
		c-1.9,0.7-3.2,2.2-3.6,2.7c-0.7,0.3-2,0.4-5.8,0.3C94.1,69.8,92.8,69.7,92.1,69.4L92.1,69.4z M138.7,68.2L138.7,68.2
		c0,0,2.3,0.2,3.2,2.7c1,2.5,0.5,8.2,0,11c-0.5,2.8-1.7,7.2-3.5,9.3c-5.4,6.7-23.1,5.9-27.5,0.1c-3.4-4.4-9.2-17.5-2.1-21.3
		C115,66.8,132.5,66.1,138.7,68.2L138.7,68.2z M57.2,68.2L57.2,68.2c6.2-2.1,23.7-1.4,29.8,1.8c7.1,3.7,1.3,16.9-2.1,21.3
		c-4.4,5.7-22.1,6.5-27.5-0.1c-1.7-2.2-2.9-6.5-3.5-9.3c-0.5-2.8-0.9-8.5,0-11C54.9,68.4,57.2,68.2,57.2,68.2z"/>
	<g>
		<path class="st12" d="M72.9,84.9c2.1,0,3.8-1.7,3.8-3.8c0-2.1-1.7-3.8-3.8-3.8c-2.1,0-3.8,1.7-3.8,3.8
			C69.1,83.2,70.8,84.9,72.9,84.9z"/>
		<path class="st12" d="M122.9,84.9c2.1,0,3.8-1.7,3.8-3.8c0-2.1-1.7-3.8-3.8-3.8c-2.1,0-3.8,1.7-3.8,3.8
			C119.1,83.2,120.8,84.9,122.9,84.9z"/>
	</g>
	<path class="st13" d="M116.3,109.1c-3.5,4.5-10,7.5-17.4,7.5c-7.4,0-13.9-3-17.4-7.5c4.3,3.1,10.3,6.2,17.2,6.2
		C105.7,115.4,112.1,112.2,116.3,109.1z"/>
	<path class="st14" d="M90.2,103.9c0,0-0.1-0.1,0-0.1c0-0.2,0.1-0.4,0.3-0.6c1.6-3,4.7-11.9,6.1-21.6c1.6,0.1-1.5,16.5-2.9,20.5
		c1.3-0.2,3-0.4,4.8-0.4c4.6,0,8.3,0.9,8.3,2c0,1.1-3.7,2-8.3,2C94.1,105.8,90.4,105,90.2,103.9z"/>
	<path class="st11" d="M59.4,61.5c-1.2-2.1,5.4-3.1,12.1-3.1c11.3,0.1,17.3,5.6,11.9,5.4C79.3,63.7,59.7,62.2,59.4,61.5z"/>
	<path class="st11" d="M136.1,61.3c1.2-2.1-5.4-3.1-12.1-3.1c-11.3,0.1-17.3,5.6-11.9,5.4C116.1,63.4,135.7,61.9,136.1,61.3z"/>
</g>
<path class="st15" d="M25.1,189h26c-3.9-3.7-10.6-8.5-13.3-8c-3.3,0.5-10.2,5.8-12,7.4C25.5,188.6,25.3,188.8,25.1,189z"/>
<path class="st16" d="M57.2,188.4H18.7c-3.2,0-5.7-2.6-5.7-5.7v-19.9c0-3.2,2.6-5.7,5.7-5.7h38.5c3.2,0,5.7,2.6,5.7,5.7v19.9
	C63,185.8,60.4,188.4,57.2,188.4z"/>
<path class="st17" d="M63,163.8v-3.3c0-1.9-1.6-3.5-3.5-3.5H16.5c-1.9,0-3.5,1.6-3.5,3.5v3.3H63z"/>
<g>
	<rect x="16.9" y="167.7" class="st17" width="14.2" height="16.3"/>
	<g>
		<defs>
			<rect id="SVGID_1_" x="16.9" y="167.7" width="14.2" height="16.3"/>
		</defs>
		<clipPath id="SVGID_2_">
			<use xlink:href="#SVGID_1_"  style="overflow:visible;"/>
		</clipPath>
		<g class="st18">
			<g>
				<g>
					<ellipse class="st19" cx="20.1" cy="174.4" rx="0.8" ry="0.9"/>
					<ellipse class="st19" cx="27.7" cy="174.4" rx="0.8" ry="0.9"/>
				</g>
				<path class="st19" d="M23.9,182L23.9,182c-0.9,0-1.6-0.7-1.6-1.6V177c0-0.9,0.7-1.6,1.6-1.6l0,0c0.9,0,1.6,0.7,1.6,1.6v3.4
					C25.5,181.3,24.8,182,23.9,182z"/>
				<path class="st20" d="M23.9,178.3L23.9,178.3c-1.9,0-3.5-1.6-3.5-3.5v-2.3c0-1.9,1.6-3.5,3.5-3.5l0,0c1.9,0,3.5,1.6,3.5,3.5v2.3
					C27.4,176.7,25.8,178.3,23.9,178.3z"/>
				<path class="st16" d="M21.3,175c0.1,1.2,1.2,2.1,2.6,2.1s2.5-0.9,2.6-2.1H21.3z"/>
				<g>
					<ellipse class="st21" cx="22.6" cy="173.4" rx="0.5" ry="0.7"/>
					<path class="st0" d="M22.6,173.2c0,0.1-0.1,0.2-0.2,0.2c-0.1,0-0.2-0.1-0.2-0.2c0-0.1,0.1-0.2,0.2-0.2
						C22.6,173,22.6,173.1,22.6,173.2z"/>
				</g>
				<g>
					<ellipse class="st21" cx="25.1" cy="173.4" rx="0.5" ry="0.7"/>
					<path class="st0" d="M25.2,173.2c0,0.1-0.1,0.2-0.2,0.2s-0.2-0.1-0.2-0.2c0-0.1,0.1-0.2,0.2-0.2S25.2,173.1,25.2,173.2z"/>
				</g>
				<path class="st22" d="M20.3,173.6c0.4-0.3,0.5-1,0.5-1.5c0-0.3,0-0.8-0.2-1.1c1.6,0.6,3.9,0.4,5.4-0.4c0.2-0.1,0.5-0.2,0.7-0.4
					c-0.1,0.7-0.2,1.6,0.1,2.3c0.1,0.3,0.3,0.8,0.6,1c0.8-1.7-0.1-4-1.8-4.8c-2.2-1-4.8,0.1-5.4,2.5C20,172.1,20.1,173.1,20.3,173.6
					z"/>
			</g>
			<path class="st23" d="M29.9,182.3c-0.1-0.8-0.7-1.4-1.1-1.6c-1.1-0.6-3.2-1.8-3.2-1.8l-1.6,1.7l-1.6-1.7c0,0-2.1,1.2-3.2,1.8
				c-0.4,0.2-1.1,0.8-1.1,1.6c-0.1,1.3-0.1,2.6-0.1,2.6h5.6h1H30C30,184.9,30,183.6,29.9,182.3z"/>
			<path class="st21" d="M19.1,180.7c-0.4,0.2-1.1,0.8-1.1,1.6c-0.1,1.3-0.1,2.6-0.1,2.6h4.9c-0.5-1.8-1-3.6-1.3-5.5
				C20.7,179.8,19.7,180.3,19.1,180.7z"/>
			<path class="st24" d="M21.4,179.4c-0.3,0.2-0.6,0.3-0.9,0.5l-0.2,2.8l1.1,0.3l-0.7,0.6l0.6,1.4h1.4
				C22.3,183.1,21.8,181.3,21.4,179.4z"/>
			<path class="st21" d="M28.8,180.7c0.4,0.2,1.1,0.8,1.1,1.6c0.1,1.3,0.1,2.6,0.1,2.6h-4.9c0.5-1.8,1-3.6,1.3-5.5
				C27.2,179.8,28.2,180.3,28.8,180.7z"/>
			<polygon class="st25" points="24.7,185.1 23.2,185.1 23.6,181.4 24.3,181.4 			"/>
			<path class="st24" d="M26.5,179.4c0.3,0.2,0.6,0.3,0.9,0.5l0.2,2.8l-1.1,0.3l0.7,0.6l-0.6,1.4h-1.4
				C25.6,183.1,26.1,181.3,26.5,179.4z"/>
			<ellipse class="st26" cx="23.9" cy="181.4" rx="0.8" ry="0.8"/>
			<polygon class="st0" points="22.3,178.7 21.6,179.3 22.6,182.1 23.9,180.5 			"/>
			<polygon class="st0" points="25.6,178.7 26.2,179.3 25.3,182.1 23.9,180.5 			"/>
		</g>
	</g>
</g>
<rect x="34" y="167.7" class="st27" width="25.4" height="2.8"/>
<g>
	<rect x="37.2" y="180.8" class="st21" width="0.3" height="3.2"/>
	<rect x="38.7" y="180.8" class="st21" width="0.2" height="3.2"/>
	<rect x="46.6" y="180.8" class="st21" width="0.3" height="3.2"/>
	<rect x="48.7" y="180.8" class="st21" width="0.3" height="3.2"/>
	<rect x="39.2" y="180.8" class="st21" width="0.1" height="3.2"/>
	<rect x="46.1" y="180.8" class="st21" width="0.1" height="3.2"/>
	<rect x="49.3" y="180.8" class="st21" width="0.1" height="3.2"/>
	<rect x="55.2" y="180.8" class="st21" width="0.1" height="3.2"/>
	<rect x="52.2" y="180.8" class="st21" width="0.1" height="3.2"/>
	<rect x="53.3" y="180.8" class="st21" width="0.1" height="3.2"/>
	<rect x="42.4" y="180.8" class="st21" width="0.1" height="3.2"/>
	<rect x="45.6" y="180.8" class="st21" width="0.2" height="3.2"/>
	<rect x="38" y="180.8" class="st21" width="0.5" height="3.2"/>
	<rect x="44" y="180.8" class="st21" width="0.5" height="3.2"/>
	<rect x="44.8" y="180.8" class="st21" width="0.6" height="3.2"/>
	<rect x="51.3" y="180.8" class="st21" width="0.7" height="3.2"/>
	<rect x="53.8" y="180.8" class="st21" width="1" height="3.2"/>
	<rect x="52.4" y="180.8" class="st21" width="0.5" height="3.2"/>
	<rect x="47.2" y="180.8" class="st21" width="0.9" height="3.2"/>
	<rect x="40.7" y="180.8" class="st21" width="1.1" height="3.2"/>
	<rect x="39.7" y="180.8" class="st21" width="0.4" height="3.2"/>
	<rect x="42.9" y="180.8" class="st21" width="0.4" height="3.2"/>
	<rect x="49.8" y="180.8" class="st21" width="0.4" height="3.2"/>
	<rect x="55.7" y="180.8" class="st21" width="0.4" height="3.2"/>
	<rect x="50.4" y="180.8" class="st21" width="0.4" height="3.2"/>
</g>
<rect x="36.3" y="172.9" class="st28" width="16.7" height="1.5"/>
<rect x="36.3" y="176" class="st28" width="16.7" height="1.5"/>
<path class="st29" d="M13.8,185.6v-24.3c0-1.8,1.5-3.3,3.3-3.3h42.9c0.8,0,1.6,0.3,2.2,0.8c-0.6-0.9-1.6-1.5-2.8-1.5H16.5
	c-1.8,0-3.3,1.5-3.3,3.3v24.3c0,1,0.4,1.9,1.1,2.5C14,186.8,13.8,186.2,13.8,185.6z"/>
<path class="st23" d="M61.3,157.5c0.5,0.6,0.8,1.4,0.8,2.2v24.3c0,1.9-1.6,3.5-3.5,3.5H15.7c-0.7,0-1.3-0.2-1.9-0.5
	c0.6,0.8,1.6,1.3,2.7,1.3h42.9c1.9,0,3.5-1.6,3.5-3.5v-24.3C63,159.3,62.3,158.2,61.3,157.5z"/>
</svg>
