<?xml version="1.0" encoding="utf-8"?>
<!-- Generator: Adobe Illustrator 22.0.0, SVG Export Plug-In . SVG Version: 6.00 Build 0)  -->
<svg version="1.1" id="Capa_1" xmlns="http://www.w3.org/2000/svg" xmlns:xlink="http://www.w3.org/1999/xlink" x="0px" y="0px"
	 viewBox="0 0 200 200" style="enable-background:new 0 0 200 200;" xml:space="preserve">
<style type="text/css">
	.st0{fill:#55C655;}
	.st1{fill:#F5B041;}
</style>
<g>
	<g>
		<path class="st0" d="M126.3,16.3l-25.2,21.1c-0.7,0.6-0.7,1.8,0,2.3l25.2,21.1c0.8,0.7,2,0,2-1.2V47.5c28.7,0,52,23.3,52,52
			c0,28.7-23.3,52-52,52v18.5c38.9,0,70.5-31.5,70.5-70.5c0-38.9-31.5-70.5-70.5-70.5V17.4C128.3,16.3,127.2,15.6,126.3,16.3z"/>
	</g>
	<g>
		<path class="st0" d="M74.3,181.7l25.2-21.1c0.7-0.6,0.7-1.8,0-2.3l-25.2-21.1c-0.8-0.7-2,0-2,1.2v12.2c-28.7,0-52-23.3-52-52
			c0-28.7,23.3-52,52-52V28.1c-38.9,0-70.5,31.5-70.5,70.5c0,38.9,31.5,70.5,70.5,70.5v11.5C72.3,181.7,73.5,182.4,74.3,181.7z"/>
	</g>
</g>
<g>
	<g>
		<path class="st1" d="M80.5,69.9l-6.6,5c-0.6,0.4-1.4,0.3-1.8-0.3l-3.2-4.2c-0.4-0.6-0.3-1.4,0.3-1.8l6.6-5
			c0.6-0.4,1.4-0.3,1.8,0.3l3.2,4.2C81.2,68.7,81.1,69.5,80.5,69.9z"/>
	</g>
	<g>
		<path class="st1" d="M108.9,92.1l-2.2-0.4c-1.9-0.3-3.3-1.8-3.6-3.6c-2.5-13.9-13.2-15.5-17.4-15.6c-1,0-2,0.3-2.8,0.9l-3.2,2.4
			l-3.2,2.4c-0.8,0.6-1.4,1.4-1.6,2.4c-1.1,4-2.5,14.7,10.2,21c1.7,0.8,2.7,2.6,2.5,4.5l-0.3,2.2c-0.1,1.1,0.2,2.3,0.9,3.2
			l18.6,24.7c1.5,2,4.3,2.4,6.2,0.9l8.2-6.2l8.2-6.2c2-1.5,2.4-4.3,0.9-6.2l-18.6-24.7C111,92.9,110,92.3,108.9,92.1z"/>
	</g>
</g>
</svg>
