<?xml version="1.0" encoding="utf-8"?>
<!-- Generator: Adobe Illustrator 22.0.0, SVG Export Plug-In . SVG Version: 6.00 Build 0)  -->
<svg version="1.1" id="Capa_1" xmlns="http://www.w3.org/2000/svg" xmlns:xlink="http://www.w3.org/1999/xlink" x="0px" y="0px"
	 viewBox="0 0 320 359.1" style="enable-background:new 0 0 320 359.1;" xml:space="preserve">
<style type="text/css">
	.st0{fill:#B3BBBD;}
	.st1{fill:#FF9D00;}
	.st2{fill:#C5EAFF;}
	.st3{fill:#B0DCF9;}
	.st4{fill:#55C655;}
</style>
<polygon class="st0" points="75.9,340.1 75.9,330.2 31,330.2 31,285.7 20.8,285.7 20.8,340.1 "/>
<polygon class="st0" points="264.9,42 264.9,51.9 309.8,51.9 309.8,96.4 320,96.4 320,42 "/>
<polygon class="st0" points="21.1,97.8 31,97.8 31,52.9 75.6,52.9 75.6,42.7 21.1,42.7 "/>
<polygon class="st0" points="319.6,288.3 309.8,288.3 309.8,333.2 265.2,333.2 265.2,343.5 319.6,343.5 "/>
<polygon class="st1" points="3.4,79.4 13.2,79.4 13.2,34.5 57.8,34.5 57.8,24.3 3.4,24.3 "/>
<polygon class="st1" points="301.9,269.4 292,269.4 292,314.4 247.4,314.4 247.4,324.6 301.9,324.6 "/>
<polygon class="st1" points="247.1,24.3 247.1,34.2 292,34.2 292,78.7 302.2,78.7 302.2,24.3 "/>
<polygon class="st1" points="58.1,323.7 58.1,313.8 13.2,313.8 13.2,269.3 3,269.3 3,323.7 "/>
<path id="XMLID_10583_" class="st2" d="M155.7,312.5c0,0,17.8,0,27.9,0c10,0,10.2-11.4,10.2-15.7c0-4.2,0-92.6,0-103.7
	c0-11.1-4.6-16.4-4.6-16.4s4.6-3.2,4.6-13.7c0-10.4-4.2-13.1-4.2-13.1c3.4-3,4.4-3.2,4-20.5s-8.9-30.3-13-38.5s-13.7-21.2-13.7-23.8
	h-11.1h-11.1c0,2.6-9.7,15.7-13.7,23.8c-4.1,8.2-12.6,21.2-13,38.5s0.6,17.5,4,20.5c0,0-4.2,2.7-4.2,13.1c0,10.4,4.6,13.7,4.6,13.7
	s-4.6,5.3-4.6,16.4c0,11.1,0,99.5,0,103.7s0.2,15.7,10.2,15.7C137.9,312.5,155.7,312.5,155.7,312.5z"/>
<path id="XMLID_10582_" class="st3" d="M155.7,312.5c0,0,17.8,0,27.9,0c10,0,10.2-11.4,10.2-15.7c0-4.2,0-92.6,0-103.7
	c0-11.1-4.6-16.4-4.6-16.4s4.6-3.2,4.6-13.7c0-10.4-4.2-13.1-4.2-13.1c3.4-3,4.4-3.2,4-20.5s-8.9-30.3-13-38.5s-13.7-21.2-13.7-23.8
	h-11.1L155.7,312.5L155.7,312.5z"/>
<path id="XMLID_10581_" class="st4" d="M168,70.4h-24.6c-1.5,0-2.8-1.2-2.8-2.8V57.4c0-1.5,1.2-2.8,2.8-2.8H168
	c1.5,0,2.8,1.2,2.8,2.8v10.2C170.8,69.2,169.5,70.4,168,70.4z"/>
<path id="XMLID_10580_" class="st4" d="M155.7,70.4h11.2c2.1,0,3.9-1.4,3.9-3.1v-9.4c0-1.7-1.7-3.1-3.9-3.1h-11.2V70.4z"/>
<rect id="XMLID_10579_" x="117.7" y="193.1" class="st4" width="76.1" height="78.9"/>
<rect id="XMLID_10578_" x="155.7" y="193.1" class="st4" width="38.1" height="78.9"/>
</svg>
