<?xml version="1.0" encoding="utf-8"?>
<!-- Generator: Adobe Illustrator 22.0.0, SVG Export Plug-In . SVG Version: 6.00 Build 0)  -->
<svg version="1.1" id="Capa_1" xmlns="http://www.w3.org/2000/svg" xmlns:xlink="http://www.w3.org/1999/xlink" x="0px" y="0px"
	 viewBox="0 0 320 359.1" style="enable-background:new 0 0 320 359.1;" xml:space="preserve">
<style type="text/css">
	.st0{fill:#C4C4C4;}
	.st1{fill:#3B4048;}
	.st2{fill:#89BBBD;}
	.st3{fill:#FFFFFF;}
	.st4{fill:#B0B0AF;}
	.st5{fill:#459945;}
	.st6{fill:#BA6E00;}
	.st7{fill:#55C655;}
	.st8{fill:#FF9D00;}
	.st9{opacity:0.1;fill:#FF9D00;enable-background:new    ;}
	.st10{fill:#363137;}
	.st11{fill:#C0C0C0;}
	.st12{fill:#D8D8D8;}
	.st13{fill:#A5A5A5;}
	.st14{fill:#BEBEBE;}
</style>
<path class="st0" d="M258.8,327.3c0,8.6-7,15.6-15.6,15.6H79.1c-8.6,0-15.6-7-15.6-15.6V22.8c0-8.6,7-15.6,15.6-15.6h164.1
	c8.6,0,15.6,7,15.6,15.6L258.8,327.3L258.8,327.3z"/>
<path class="st1" d="M254,322.6c0,8.4-6.8,15.2-15.2,15.2H83.6c-8.4,0-15.2-6.8-15.2-15.2V27.5c0-8.4,6.8-15.2,15.2-15.2h155.2
	c8.4,0,15.2,6.8,15.2,15.2L254,322.6L254,322.6z"/>
<path class="st2" d="M243.7,292c0,7.5-6.1,13.5-13.5,13.5h-138c-7.5,0-13.5-6.1-13.5-13.5V53.4c0-7.5,6.1-13.5,13.5-13.5h138
	c7.5,0,13.5,6.1,13.5,13.5V292z"/>
<g>
	<path class="st3" d="M174.3,27.5c0,1.1-0.9,1.9-1.9,1.9H140c-1.1,0-1.9-0.9-1.9-1.9l0,0c0-1.1,0.9-1.9,1.9-1.9h32.4
		C173.4,25.6,174.3,26.4,174.3,27.5L174.3,27.5z"/>
	<path class="st3" d="M184.3,27.5c0,1.6-1.3,2.9-2.9,2.9c-1.6,0-2.9-1.3-2.9-2.9s1.3-2.9,2.9-2.9S184.3,25.9,184.3,27.5z"/>
</g>
<g>
	<path class="st3" d="M181,321.7c0,1.4-1.1,2.5-2.5,2.5h-34.7c-1.4,0-2.5-1.1-2.5-2.5v-5.8c0-1.4,1.1-2.5,2.5-2.5h34.7
		c1.4,0,2.5,1.1,2.5,2.5V321.7z"/>
	<path class="st4" d="M181,319.1v-3.2c0-1.4-1.1-2.5-2.5-2.5h-34.7c-1.4,0-2.5,1.1-2.5,2.5v3.2H181z"/>
</g>
<path class="st4" d="M305.5,109.7h-0.3c-18.9-16.2-37.7-32.4-56.6-48.7c-5.7,0-8.6,0-14.3,0s-8.6,0-14.3,0s-8.6,0-14.3,0
	s-8.6,0-14.3,0s-8.6,0-14.3,0s-8.6,0-14.3,0s-8.6,0-14.3,0s-8.6,0-14.3,0s-8.6,0-14.3,0c-5.7,0-8.6,0-14.3,0c-5.7,0-8.6,0-14.3,0
	c-5.7,0-8.6,0-14.3,0c-18.5,16.2-37,32.4-55.5,48.7l0,0c0,0.1,0,0.1,0,0.2v4.4c0,5.4,4.3,9.9,9.6,9.9h4.3c5.3,0,9.6-4.4,9.6-9.9
	v-4.4c0-0.1,0-0.1,0-0.2h0.1l0,0c0,0.1,0,0.1,0,0.2v4.4c0,5.4,4.3,9.9,9.6,9.9H59c5.3,0,9.6-4.4,9.6-9.9v-4.4c0-0.1,0-0.1,0-0.2h0.1
	h0.1c0,0.1,0,0.1,0,0.2v4.4c0,5.4,4.3,9.9,9.6,9.9h4.3c5.3,0,9.6-4.4,9.6-9.9v-4.4c0-0.1,0-0.1,0-0.2l0,0h0.1c0,0.1,0,0.1,0,0.2v4.4
	c0,5.4,4.3,9.9,9.6,9.9h4.3c5.3,0,9.6-4.4,9.6-9.9v-4.4c0-0.1,0-0.1,0-0.2l0,0c0,0,0.1,0,0.2,0c0,0.1,0,0.1,0,0.2v4.4
	c0,5.4,4.3,9.9,9.6,9.9h4.3c5.3,0,9.6-4.4,9.6-9.9v-4.4c0-0.1,0-0.1,0-0.2h0.1c0,0.1,0,0.1,0,0.2v4.4c0,5.4,4.3,9.9,9.6,9.9h4.3
	c5.3,0,9.6-4.4,9.6-9.9v-4.4c0-0.1,0-0.1,0-0.2c0.1,0,0.1,0,0.2,0c0,0.1,0,0.1,0,0.2v4.4c0,5.4,4.3,9.9,9.6,9.9h4.3
	c5.3,0,9.6-4.4,9.6-9.9v-4.4c0-0.1,0-0.1,0-0.2h0.1c0,0.1,0,0.1,0,0.2v4.4c0,5.4,4.3,9.9,9.6,9.9h4.3c5.3,0,9.6-4.4,9.6-9.9v-4.4
	c0-0.1,0-0.1,0-0.2c0.1,0,0.1,0,0.2,0c0,0.1,0,0.1,0,0.2v4.4c0,5.4,4.3,9.9,9.6,9.9h4.3c5.3,0,9.6-4.4,9.6-9.9v-4.4
	c0-0.1,0-0.1,0-0.2h0.1c0,0.1,0,0.1,0,0.2v4.4c0,5.4,4.3,9.9,9.6,9.9h4.3c5.3,0,9.6-4.4,9.6-9.9v-4.4c0-0.1,0-0.1,0-0.2
	c0.1,0,0.1,0,0.2,0c0,0.1,0,0.1,0,0.2v4.4c0,5.4,4.3,9.9,9.6,9.9h4.3c5.3,0,9.6-4.4,9.6-9.9v-4.4c0-0.1,0-0.1,0-0.2h0.1
	c0,0.1,0,0.1,0,0.2v4.4c0,5.4,4.3,9.9,9.6,9.9h4.3c5.3,0,9.6-4.4,9.6-9.9v-4.4C305.5,109.8,305.5,109.7,305.5,109.7z"/>
<path class="st5" d="M21.6,101.8c0,0.1,0,0.1,0,0.2v4.4c0,5.4,4.3,9.9,9.6,9.9h4.3c5.3,0,9.6-4.4,9.6-9.9V102c0-0.1,0-0.1,0-0.2
	H21.6z"/>
<path class="st6" d="M45.3,101.8c0,0.1,0,0.1,0,0.2v4.4c0,5.4,4.3,9.9,9.6,9.9h4.3c5.3,0,9.6-4.4,9.6-9.9V102c0-0.1,0-0.1,0-0.2
	H45.3z"/>
<path class="st5" d="M69,101.8c0,0.1,0,0.1,0,0.2v4.4c0,5.4,4.3,9.9,9.6,9.9h4.3c5.3,0,9.6-4.4,9.6-9.9V102c0-0.1,0-0.1,0-0.2H69z"
	/>
<path class="st6" d="M281.9,101.8c0,0.1,0,0.1,0,0.2v4.4c0,5.4,4.3,9.9,9.6,9.9h4.3c5.3,0,9.6-4.4,9.6-9.9V102c0-0.1,0-0.1,0-0.2
	H281.9z"/>
<path class="st7" d="M45.3,101.8c-7.9,0-15.8,0-23.6,0c18.5-16.2,37-32.4,55.5-48.7c5.7,0,8.6,0,14.3,0
	C76,69.4,60.6,85.6,45.3,101.8z"/>
<path class="st8" d="M68.9,101.8c-7.9,0-15.8,0-23.6,0C60.6,85.6,76,69.4,91.4,53.1c5.7,0,8.6,0,14.3,0
	C93.4,69.4,81.2,85.6,68.9,101.8z"/>
<path class="st7" d="M92.5,101.8c-7.9,0-15.8,0-23.6,0c12.3-16.2,24.5-32.4,36.8-48.7c5.7,0,8.6,0,14.3,0
	C110.8,69.4,101.7,85.6,92.5,101.8z"/>
<path class="st8" d="M116.2,101.8c-7.9,0-15.8,0-23.6,0c9.2-16.2,18.3-32.4,27.5-48.7c5.7,0,8.6,0,14.3,0
	C128.2,69.4,122.2,85.6,116.2,101.8z"/>
<path class="st7" d="M139.8,101.8c-7.9,0-15.8,0-23.6,0c6-16.2,12.1-32.4,18.1-48.7c5.7,0,8.6,0,14.3,0
	C145.7,69.4,142.7,85.6,139.8,101.8z"/>
<path class="st8" d="M163.4,101.8c-7.9,0-15.8,0-23.6,0c2.9-16.2,5.9-32.4,8.8-48.7c5.7,0,8.6,0,14.3,0
	C163.1,69.4,163.2,85.6,163.4,101.8z"/>
<path class="st7" d="M187,101.8c-7.9,0-15.8,0-23.6,0c-0.2-16.2-0.4-32.4-0.5-48.7c5.7,0,8.6,0,14.3,0
	C180.5,69.4,183.8,85.6,187,101.8z"/>
<path class="st8" d="M210.7,101.8c-7.9,0-15.8,0-23.6,0c-3.3-16.2-6.6-32.4-9.9-48.7c5.7,0,8.6,0,14.3,0
	C197.9,69.4,204.3,85.6,210.7,101.8z"/>
<path class="st7" d="M234.3,101.8c-7.9,0-15.8,0-23.6,0c-6.4-16.2-12.8-32.4-19.2-48.7c5.7,0,8.6,0,14.3,0
	C215.3,69.4,224.8,85.6,234.3,101.8z"/>
<path class="st8" d="M257.9,101.8c-7.9,0-15.8,0-23.6,0c-9.5-16.2-19-32.4-28.5-48.7c5.7,0,8.6,0,14.3,0
	C232.7,69.4,245.3,85.6,257.9,101.8z"/>
<path class="st7" d="M281.6,101.8c-7.9,0-15.8,0-23.6,0c-12.6-16.2-25.3-32.4-37.9-48.7c5.7,0,8.6,0,14.3,0
	C250.1,69.4,265.8,85.6,281.6,101.8z"/>
<path class="st8" d="M305.2,101.8c-7.9,0-15.8,0-23.6,0c-15.7-16.2-31.5-32.4-47.2-48.7c5.7,0,8.6,0,14.3,0
	C267.5,69.4,286.3,85.6,305.2,101.8z"/>
<path class="st6" d="M92.6,101.8c0,0.1,0,0.1,0,0.2v4.4c0,5.4,4.3,9.9,9.6,9.9h4.3c5.3,0,9.6-4.4,9.6-9.9V102c0-0.1,0-0.1,0-0.2
	H92.6z"/>
<path class="st5" d="M116.3,101.8c0,0.1,0,0.1,0,0.2v4.4c0,5.4,4.3,9.9,9.6,9.9h4.3c5.3,0,9.6-4.4,9.6-9.9V102c0-0.1,0-0.1,0-0.2
	H116.3z"/>
<path class="st6" d="M139.9,101.8c0,0.1,0,0.1,0,0.2v4.4c0,5.4,4.3,9.9,9.6,9.9h4.3c5.3,0,9.6-4.4,9.6-9.9V102c0-0.1,0-0.1,0-0.2
	H139.9z"/>
<path class="st5" d="M163.6,101.8c0,0.1,0,0.1,0,0.2v4.4c0,5.4,4.3,9.9,9.6,9.9h4.3c5.3,0,9.6-4.4,9.6-9.9V102c0-0.1,0-0.1,0-0.2
	H163.6z"/>
<path class="st6" d="M187.3,101.8c0,0.1,0,0.1,0,0.2v4.4c0,5.4,4.3,9.9,9.6,9.9h4.3c5.3,0,9.6-4.4,9.6-9.9V102c0-0.1,0-0.1,0-0.2
	H187.3z"/>
<path class="st5" d="M211,101.8c0,0.1,0,0.1,0,0.2v4.4c0,5.4,4.3,9.9,9.6,9.9h4.3c5.3,0,9.6-4.4,9.6-9.9V102c0-0.1,0-0.1,0-0.2H211z
	"/>
<path class="st6" d="M234.6,101.8c0,0.1,0,0.1,0,0.2v4.4c0,5.4,4.3,9.9,9.6,9.9h4.3c5.3,0,9.6-4.4,9.6-9.9V102c0-0.1,0-0.1,0-0.2
	H234.6z"/>
<path class="st5" d="M258.3,101.8c0,0.1,0,0.1,0,0.2v4.4c0,5.4,4.3,9.9,9.6,9.9h4.3c5.3,0,9.6-4.4,9.6-9.9V102c0-0.1,0-0.1,0-0.2
	H258.3z"/>
<rect x="63.6" y="31.4" class="st8" width="195.1" height="20.6"/>
<g>
	<g>
		<polygon class="st8" points="156.1,173 148.2,173 148.2,145.9 156.1,144.5 		"/>
		<polygon class="st8" points="189.6,173 181.6,173 181.6,144.9 189.6,145.9 		"/>
		<path class="st8" d="M137.1,172.7c0,0-10.1,61-9.4,63.9c1,3.9,3,6.7,6.7,6.7h69.7c3.7,0,5.4-2.3,6.7-6.7
			c1.5-5.1-12.4-63.9-12.4-63.9L137.1,172.7L137.1,172.7z"/>
		<path class="st9" d="M168.3,182.6c-1.7,9.3,1.6,19.1,8.3,25.7c6.3,6.2,16.6,8.8,23.4,1.7c2.2-2.3,3.8-5.1,5-8.1
			c-2.6-12.9-6.4-29.2-6.4-29.2H172C170.2,175.7,168.9,179.1,168.3,182.6z"/>
		<path class="st8" d="M189.2,234.5c-11.9,1.9-22.9-6.3-29.2-15.8c-7-10.6-9.7-23.3-6.3-35.6c1-3.6,2.4-7.1,4.2-10.4h-20.7
			c0,0-10.1,61-9.4,63.9c1,3.9,3,6.7,6.7,6.7h69.7c3.7,0,5.4-2.3,6.7-6.7c0.5-1.7-0.6-9-2.4-18.2C204.7,226.4,198.5,233,189.2,234.5
			z"/>
		<rect x="137.1" y="163.7" class="st8" width="61.4" height="8.9"/>
		<rect x="137.1" y="168.2" class="st8" width="61.4" height="4.5"/>
		<polygon class="st8" points="148.2,145.9 156.1,138.7 181.6,138.7 189.6,145.9 		"/>
	</g>
</g>
<path class="st10" d="M206.7,286.9c0,4.9-4,8.8-8.8,8.8c-4.9,0-8.8-4-8.8-8.8c0-4.9,4-8.8,8.8-8.8S206.7,282,206.7,286.9z"/>
<path class="st11" d="M203.3,286.9c0,3-2.4,5.4-5.4,5.4s-5.4-2.4-5.4-5.4s2.4-5.4,5.4-5.4C200.8,281.5,203.3,283.9,203.3,286.9z"/>
<path class="st12" d="M201.8,285.2c1.7,5.4-5.6,7.9-7.8,2.5c-1.3-3.2-5.9-15.8-5.9-15.8h17.1C205.2,271.9,199.5,278.2,201.8,285.2z"
	/>
<path class="st13" d="M200.2,286.3c0,1.1-0.9,2-2,2s-2-0.9-2-2s0.9-2,2-2C199.3,284.2,200.2,285.1,200.2,286.3z"/>
<path class="st10" d="M152.3,286.9c0,4.9-4,8.8-8.8,8.8c-4.9,0-8.8-4-8.8-8.8c0-4.9,4-8.8,8.8-8.8
	C148.4,278.1,152.3,282,152.3,286.9z"/>
<path class="st11" d="M148.9,286.9c0,3-2.4,5.4-5.4,5.4s-5.4-2.4-5.4-5.4s2.4-5.4,5.4-5.4S148.9,283.9,148.9,286.9z"/>
<path class="st14" d="M110.6,191.5c3.6,14.5,10.6,42.8,11.4,46c1.1,4.4,3.4,7.5,7.5,7.5h78.3c4.2,0,6-2.5,7.5-7.5
	c1.7-5.7,7.1-32.2,9.9-46H110.6z M213.2,236.1c-1.4,4.6-3.2,6.9-7.2,6.9h-75c-4,0-6.2-2.9-7.2-6.9c-0.8-3-7.5-29.1-10.9-42.5h109.7
	C220,206.3,214.9,230.8,213.2,236.1z"/>
<path class="st4" d="M226.7,192.1c0,0.8-1.3,1.4-2.8,1.4H113.4c-1.6,0-2.8-0.6-2.8-1.4l0,0c0-0.8,1.3-1.4,2.8-1.4h110.5
	C225.5,190.7,226.7,191.4,226.7,192.1L226.7,192.1z"/>
<path class="st4" d="M212.1,246.5c0,0.8-1,1.4-2.1,1.4c0,0-66.8,0-70.8,0c-7.3,0-9.5,11.6-9.5,11.6l-1.7-7c0,0,4.1-7.4,8.8-7.4
	s73.2,0,73.2,0C211.2,245.1,212.1,245.7,212.1,246.5L212.1,246.5z"/>
<path class="st4" d="M223.8,205.1c0,0.8-1.2,1.4-2.7,1.4H115.3c-1.5,0-2.7-0.6-2.7-1.4l0,0c0-0.8,1.2-1.4,2.7-1.4h105.8
	C222.6,203.7,223.8,204.3,223.8,205.1L223.8,205.1z"/>
<path class="st4" d="M136,244.9c-0.8,0.2-1.5-0.3-1.7-1l-12-51.1c-0.2-0.7,0.3-1.4,1.1-1.6l0,0c0.8-0.2,1.5,0.3,1.7,1l12,51.1
	C137.2,244,136.7,244.8,136,244.9L136,244.9z"/>
<path class="st4" d="M150.1,244.9c-0.8,0.2-1.5-0.3-1.7-1l-12-51.1c-0.2-0.7,0.3-1.4,1.1-1.6l0,0c0.8-0.2,1.5,0.3,1.7,1l12,51.1
	C151.3,244,150.8,244.7,150.1,244.9L150.1,244.9z"/>
<path class="st4" d="M165.9,244.9c-0.8,0.2-1.5-0.3-1.7-1l-12-51.1c-0.2-0.7,0.3-1.4,1.1-1.6l0,0c0.8-0.2,1.5,0.3,1.7,1l12,51.1
	C167.1,244,166.7,244.7,165.9,244.9L165.9,244.9z"/>
<path class="st4" d="M181.7,244.9c-0.8,0.2-1.5-0.3-1.7-1l-12-51.1c-0.2-0.7,0.3-1.4,1.1-1.6l0,0c0.8-0.2,1.5,0.3,1.7,1l12,51.1
	C183,244,182.5,244.7,181.7,244.9L181.7,244.9z"/>
<path class="st4" d="M197.6,244.9c-0.8,0.2-1.5-0.3-1.7-1l-12-51.1c-0.2-0.7,0.3-1.4,1.1-1.6l0,0c0.8-0.2,1.5,0.3,1.7,1l12,51.1
	C198.8,244,198.3,244.7,197.6,244.9L197.6,244.9z"/>
<path class="st4" d="M212.7,242.1c-0.8,0.2-1.5-0.2-1.7-0.9l-11.3-48.5c-0.2-0.7,0.3-1.4,1.1-1.6l0,0c0.8-0.2,1.5,0.2,1.7,0.9
	l11.3,48.5C214,241.3,213.5,242,212.7,242.1L212.7,242.1z"/>
<path class="st4" d="M221,209.2c-0.8,0.2-1.5-0.3-1.7-1l-3.8-15.4c-0.2-0.7,0.3-1.4,1.1-1.6l0,0c0.8-0.2,1.5,0.3,1.7,1l3.8,15.4
	C222.3,208.3,221.8,209.1,221,209.2L221,209.2z"/>
<path class="st4" d="M221.4,219.7c0,0.8-1.2,1.4-2.6,1.4H118.1c-1.4,0-2.6-0.6-2.6-1.4l0,0c0-0.8,1.2-1.4,2.6-1.4h100.7
	C220.2,218.3,221.4,218.9,221.4,219.7L221.4,219.7z"/>
<path class="st4" d="M218.4,231.9c0,0.8-1.1,1.4-2.4,1.4h-94.9c-1.3,0-2.4-0.6-2.4-1.4l0,0c0-0.8,1.1-1.4,2.4-1.4H216
	C217.3,230.5,218.4,231.1,218.4,231.9L218.4,231.9z"/>
<path class="st12" d="M147.4,285.2c1.7,5.4-5.6,7.9-7.8,2.5c-1.3-3.2-5.9-15.8-5.9-15.8h17.1C150.8,271.9,145.1,278.2,147.4,285.2z"
	/>
<g>
	<path class="st14" d="M203.9,275.3h-69c-3.1,0-5.6-1.3-7.7-10.1c-0.6-2.6-16.1-66.7-19.2-79.5L88.4,184c-1.9-0.2-2.9,0.7-2.8-1.2
		c0.2-1.9,1.9-3.2,3.7-3l18.9,1.9c1.4,0.1,2.6,1.2,2.9,2.6c0,0,18.8,76.5,19.5,79.3c1.2,4.9,3.4,7.2,4.2,7.2h69
		C208,270.7,207.3,275.3,203.9,275.3z"/>
</g>
<g>
	<path class="st8" d="M102.8,181.1l-13.4-1.4c-1.9-0.2-3.5,1.2-3.7,3c-0.2,1.9,1.2,1.7,3,1.9l13.9,1.1
		C103.3,184.6,103.3,182.1,102.8,181.1z"/>
</g>
<path class="st13" d="M145.8,286.3c0,1.1-0.9,2-2,2s-2-0.9-2-2s0.9-2,2-2C144.9,284.2,145.8,285.1,145.8,286.3z"/>
<rect x="63.6" y="42.7" class="st7" width="195.1" height="10.3"/>
</svg>
